Karrik-Italic.ufo
<glyph name="exclam" format="2">
  <advance width="250"/>
  <unicode hex="0021"/>
  <outline>
    <contour>
      <point x="60" y="216" type="line"/>
      <point x="170" y="216" type="line"/>
      <point x="321" y="680" type="line"/>
      <point x="181" y="680" type="line"/>
    </contour>
    <contour>
      <point x="23" y="140" type="line"/>
      <point x="-17" y="0" type="line"/>
      <point x="123" y="0" type="line"/>
      <point x="163" y="140" type="line"/>
    </contour>
  </outline>
</glyph>
<glyph name="quotedbl" format="2">
  <advance width="323"/>
  <unicode hex="0022"/>
  <outline>
    <contour>
      <point x="71" y="389" type="line"/>
      <point x="167" y="389" type="line"/>
      <point x="260" y="680" type="line"/>
      <point x="144" y="680" type="line"/>
    </contour>
    <contour>
      <point x="236" y="389" type="line"/>
      <point x="332" y="389" type="line"/>
      <point x="425" y="680" type="line"/>
      <point x="309" y="680" type="line"/>
    </contour>
  </outline>
</glyph>
<glyph name="numbersign" format="2">
  <advance width="646"/>
  <unicode hex="0023"/>
  <outline>
    <contour>
      <point x="93" y="0" type="line"/>
      <point x="197" y="0" type="line"/>
      <point x="246" y="170" type="line"/>
      <point x="348" y="170" type="line"/>
      <point x="299" y="0" type="line"/>
      <point x="403" y="0" type="line"/>
      <point x="452" y="170" type="line"/>
      <point x="542" y="170" type="line"/>
      <point x="568" y="260" type="line"/>
      <point x="478" y="260" type="line"/>
      <point x="523" y="420" type="line"/>
      <point x="613" y="420" type="line"/>
      <point x="639" y="510" type="line"/>
      <point x="549" y="510" type="line"/>
      <point x="598" y="680" type="line"/>
      <point x="494" y="680" type="line"/>
      <point x="445" y="510" type="line"/>
      <point x="343" y="510" type="line"/>
      <point x="392" y="680" type="line"/>
      <point x="288" y="680" type="line"/>
      <point x="239" y="510" type="line"/>
      <point x="149" y="510" type="line"/>
      <point x="123" y="420" type="line"/>
      <point x="213" y="420" type="line"/>
      <point x="168" y="260" type="line"/>
      <point x="78" y="260" type="line"/>
      <point x="52" y="170" type="line"/>
      <point x="142" y="170" type="line"/>
    </contour>
    <contour>
      <point x="272" y="260" type="line"/>
      <point x="317" y="420" type="line"/>
      <point x="419" y="420" type="line"/>
      <point x="374" y="260" type="line"/>
    </contour>
  </outline>
</glyph>
<glyph name="dollar" format="2">
  <advance width="646"/>
  <unicode hex="0024"/>
  <outline>
    <contour>
      <point x="627" y="465" type="line"/>
      <point x="642" y="495"/>
      <point x="648" y="523"/>
      <point x="648" y="549" type="curve" smooth="yes"/>
      <point x="648" y="624"/>
      <point x="593" y="678"/>
      <point x="483" y="688" type="curve"/>
      <point x="504" y="760" type="line"/>
      <point x="414" y="760" type="line"/>
      <point x="393" y="687" type="line"/>
      <point x="241" y="669"/>
      <point x="142" y="573"/>
      <point x="142" y="466" type="curve"/>
      <point x="142" y="367"/>
      <point x="211" y="331"/>
      <point x="283" y="305" type="curve"/>
      <point x="222" y="91" type="line"/>
      <point x="182" y="106"/>
      <point x="166" y="136"/>
      <point x="166" y="167" type="curve" smooth="yes"/>
      <point x="166" y="188"/>
      <point x="169" y="205"/>
      <point x="176" y="223" type="curve"/>
      <point x="50" y="223" type="line"/>
      <point x="38" y="203"/>
      <point x="32" y="178"/>
      <point x="32" y="152" type="curve" smooth="yes"/>
      <point x="32" y="82"/>
      <point x="79" y="15"/>
      <point x="195" y="-4" type="curve"/>
      <point x="173" y="-80" type="line"/>
      <point x="263" y="-80" type="line"/>
      <point x="283" y="-10" type="line"/>
      <point x="442" y="-4"/>
      <point x="576" y="83"/>
      <point x="576" y="230" type="curve"/>
      <point x="576" y="340"/>
      <point x="484" y="374"/>
      <point x="401" y="403" type="curve"/>
      <point x="456" y="594" type="line"/>
      <point x="500" y="582"/>
      <point x="517" y="551"/>
      <point x="517" y="517" type="curve" smooth="yes"/>
      <point x="517" y="500"/>
      <point x="514" y="482"/>
      <point x="507" y="465" type="curve"/>
    </contour>
    <contour>
      <point x="275" y="498" type="curve"/>
      <point x="275" y="544"/>
      <point x="307" y="583"/>
      <point x="367" y="596" type="curve"/>
      <point x="321" y="435" type="line"/>
      <point x="293" y="450"/>
      <point x="275" y="469"/>
    </contour>
    <contour>
      <point x="440" y="191" type="curve"/>
      <point x="440" y="140"/>
      <point x="393" y="88"/>
      <point x="309" y="81" type="curve"/>
      <point x="365" y="275" type="line"/>
      <point x="408" y="257"/>
      <point x="440" y="235"/>
    </contour>
  </outline>
</glyph>
<glyph name="ampersand" format="2">
  <advance width="574"/>
  <unicode hex="0026"/>
  <outline>
    <contour>
      <point x="532" y="550" type="curve" smooth="yes"/>
      <point x="532" y="634"/>
      <point x="471" y="690"/>
      <point x="375" y="690" type="curve" smooth="yes"/>
      <point x="237" y="690"/>
      <point x="161" y="590"/>
      <point x="161" y="470" type="curve"/>
      <point x="161" y="434"/>
      <point x="168" y="405"/>
      <point x="178" y="379" type="curve"/>
      <point x="76" y="340"/>
      <point x="-20" y="286"/>
      <point x="-20" y="156" type="curve"/>
      <point x="-20" y="60"/>
      <point x="50" y="-10"/>
      <point x="176" y="-10" type="curve"/>
      <point x="234" y="-10"/>
      <point x="289" y="6"/>
      <point x="339" y="34" type="curve"/>
      <point x="355" y="0" type="line"/>
      <point x="491" y="0" type="line"/>
      <point x="437" y="110" type="line"/>
      <point x="493" y="167"/>
      <point x="537" y="241"/>
      <point x="565" y="325" type="curve"/>
      <point x="445" y="325" type="line"/>
      <point x="433" y="284"/>
      <point x="414" y="244"/>
      <point x="388" y="209" type="curve"/>
      <point x="325" y="335" type="line"/>
      <point x="430" y="376"/>
      <point x="532" y="427"/>
    </contour>
    <contour>
      <point x="275" y="480" type="curve" smooth="yes"/>
      <point x="275" y="534"/>
      <point x="309" y="580"/>
      <point x="361" y="580" type="curve" smooth="yes"/>
      <point x="396" y="580"/>
      <point x="413" y="562"/>
      <point x="413" y="534" type="curve" smooth="yes"/>
      <point x="413" y="475"/>
      <point x="358" y="445"/>
      <point x="286" y="418" type="curve"/>
      <point x="279" y="437"/>
      <point x="275" y="456"/>
    </contour>
    <contour>
      <point x="96" y="172" type="curve" smooth="yes"/>
      <point x="96" y="232"/>
      <point x="148" y="266"/>
      <point x="217" y="294" type="curve"/>
      <point x="296" y="125" type="line"/>
      <point x="264" y="106"/>
      <point x="228" y="95"/>
      <point x="190" y="95" type="curve" smooth="yes"/>
      <point x="126" y="95"/>
      <point x="96" y="130"/>
    </contour>
  </outline>
</glyph>
<glyph name="quotesingle" format="2">
  <advance width="158"/>
  <unicode hex="0027"/>
  <outline>
    <contour>
      <point x="71" y="389" type="line"/>
      <point x="167" y="389" type="line"/>
      <point x="260" y="680" type="line"/>
      <point x="144" y="680" type="line"/>
    </contour>
  </outline>
</glyph>
<glyph name="parenleft" format="2">
  <advance width="291"/>
  <unicode hex="0028"/>
  <outline>
    <contour>
      <point x="49" y="-165" type="curve"/>
      <point x="149" y="-165" type="line"/>
      <point x="135" y="-114"/>
      <point x="125" y="-47"/>
      <point x="125" y="30" type="curve" smooth="yes"/>
      <point x="125" y="284"/>
      <point x="201" y="461"/>
      <point x="385" y="665" type="curve"/>
      <point x="285" y="665" type="line"/>
      <point x="121" y="504"/>
      <point x="23" y="288"/>
      <point x="23" y="33" type="curve" smooth="yes"/>
      <point x="23" y="-45"/>
      <point x="35" y="-110"/>
    </contour>
  </outline>
</glyph>
<glyph name="parenright" format="2">
  <advance width="291"/>
  <unicode hex="0029"/>
  <outline>
    <contour>
      <point x="242" y="665" type="curve"/>
      <point x="142" y="665" type="line"/>
      <point x="156" y="614"/>
      <point x="166" y="547"/>
      <point x="166" y="470" type="curve" smooth="yes"/>
      <point x="166" y="216"/>
      <point x="90" y="39"/>
      <point x="-94" y="-165" type="curve"/>
      <point x="6" y="-165" type="line"/>
      <point x="170" y="-4"/>
      <point x="268" y="212"/>
      <point x="268" y="467" type="curve" smooth="yes"/>
      <point x="268" y="545"/>
      <point x="256" y="610"/>
    </contour>
  </outline>
</glyph>
<glyph name="asterisk" format="2">
  <advance width="340"/>
  <unicode hex="002A"/>
  <outline>
    <contour>
      <point x="128" y="396" type="line"/>
      <point x="198" y="356" type="line"/>
      <point x="248" y="442" type="line"/>
      <point x="298" y="356" type="line"/>
      <point x="368" y="396" type="line"/>
      <point x="318" y="483" type="line"/>
      <point x="418" y="483" type="line"/>
      <point x="418" y="563" type="line"/>
      <point x="318" y="563" type="line"/>
      <point x="368" y="650" type="line"/>
      <point x="298" y="690" type="line"/>
      <point x="248" y="604" type="line"/>
      <point x="198" y="690" type="line"/>
      <point x="128" y="650" type="line"/>
      <point x="178" y="563" type="line"/>
      <point x="78" y="563" type="line"/>
      <point x="78" y="483" type="line"/>
      <point x="178" y="483" type="line"/>
    </contour>
  </outline>
</glyph>
<glyph name="plus" format="2">
  <advance width="688"/>
  <unicode hex="002B"/>
  <outline>
    <contour>
      <point x="79" y="282" type="line"/>
      <point x="303" y="282" type="line"/>
      <point x="239" y="58" type="line"/>
      <point x="339" y="58" type="line"/>
      <point x="403" y="282" type="line"/>
      <point x="627" y="282" type="line"/>
      <point x="656" y="382" type="line"/>
      <point x="432" y="382" type="line"/>
      <point x="496" y="606" type="line"/>
      <point x="396" y="606" type="line"/>
      <point x="332" y="382" type="line"/>
      <point x="108" y="382" type="line"/>
    </contour>
  </outline>
</glyph>
<glyph name="comma" format="2">
  <advance width="230"/>
  <unicode hex="002C"/>
  <outline>
    <contour>
      <point x="13" y="140" type="line"/>
      <point x="-27" y="0" type="line"/>
      <point x="48" y="0" type="line"/>
      <point x="33" y="-50"/>
      <point x="-2" y="-70"/>
      <point x="-48" y="-70" type="curve"/>
      <point x="-70" y="-140" type="line"/>
      <point x="26" y="-140"/>
      <point x="88" y="-96"/>
      <point x="115" y="2" type="curve" smooth="yes"/>
      <point x="153" y="140" type="line"/>
    </contour>
  </outline>
</glyph>
<glyph name="hyphen" format="2">
  <advance width="351"/>
  <unicode hex="002D"/>
  <outline>
    <contour>
      <point x="9" y="205" type="line"/>
      <point x="316" y="205" type="line"/>
      <point x="342" y="295" type="line"/>
      <point x="35" y="295" type="line"/>
    </contour>
  </outline>
</glyph>
<glyph name="period" format="2">
  <advance width="230"/>
  <unicode hex="002E"/>
  <outline>
    <contour>
      <point x="13" y="140" type="line"/>
      <point x="-27" y="0" type="line"/>
      <point x="113" y="0" type="line"/>
      <point x="153" y="140" type="line"/>
    </contour>
  </outline>
</glyph>
<glyph name="slash" format="2">
  <advance width="342"/>
  <unicode hex="002F"/>
  <outline>
    <contour>
      <point x="-135" y="-112" type="line"/>
      <point x="-31" y="-112" type="line"/>
      <point x="511" y="731" type="line"/>
      <point x="407" y="731" type="line"/>
    </contour>
  </outline>
</glyph>
<glyph name="zero" format="2">
  <advance width="646"/>
  <unicode hex="0030"/>
  <outline>
    <contour>
      <point x="243" y="-10" type="curve"/>
      <point x="450" y="-10"/>
      <point x="644" y="231"/>
      <point x="644" y="483" type="curve" smooth="yes"/>
      <point x="644" y="622"/>
      <point x="563" y="690"/>
      <point x="454" y="690" type="curve"/>
      <point x="245" y="690"/>
      <point x="53" y="449"/>
      <point x="53" y="197" type="curve" smooth="yes"/>
      <point x="53" y="58"/>
      <point x="133" y="-10"/>
    </contour>
    <contour>
      <point x="272" y="113" type="curve"/>
      <point x="213" y="113"/>
      <point x="181" y="157"/>
      <point x="181" y="229" type="curve" smooth="yes"/>
      <point x="181" y="364"/>
      <point x="280" y="567"/>
      <point x="423" y="567" type="curve"/>
      <point x="483" y="567"/>
      <point x="515" y="523"/>
      <point x="515" y="450" type="curve" smooth="yes"/>
      <point x="515" y="315"/>
      <point x="414" y="113"/>
    </contour>
  </outline>
</glyph>
<glyph name="one" format="2">
  <advance width="646"/>
  <unicode hex="0031"/>
  <outline>
    <contour>
      <point x="28" y="0" type="line"/>
      <point x="508" y="0" type="line"/>
      <point x="536" y="97" type="line"/>
      <point x="364" y="97" type="line"/>
      <point x="530" y="680" type="line"/>
      <point x="440" y="680" type="line"/>
      <point x="413" y="620"/>
      <point x="370" y="570"/>
      <point x="220" y="570" type="curve"/>
      <point x="197" y="490" type="line"/>
      <point x="356" y="490" type="line"/>
      <point x="244" y="97" type="line"/>
      <point x="56" y="97" type="line"/>
    </contour>
  </outline>
</glyph>
<glyph name="two" format="2">
  <advance width="646"/>
  <unicode hex="0032"/>
  <outline>
    <contour>
      <point x="13" y="0" type="line"/>
      <point x="487" y="0" type="line"/>
      <point x="521" y="120" type="line"/>
      <point x="229" y="120" type="line"/>
      <point x="406" y="236" type="line" smooth="yes"/>
      <point x="533" y="319"/>
      <point x="633" y="412"/>
      <point x="633" y="536" type="curve" smooth="yes"/>
      <point x="633" y="626"/>
      <point x="566" y="690"/>
      <point x="454" y="690" type="curve" smooth="yes"/>
      <point x="305" y="690"/>
      <point x="169" y="594"/>
      <point x="132" y="429" type="curve"/>
      <point x="252" y="429" type="line"/>
      <point x="279" y="528"/>
      <point x="336" y="580"/>
      <point x="408" y="580" type="curve" smooth="yes"/>
      <point x="468" y="580"/>
      <point x="493" y="546"/>
      <point x="493" y="500" type="curve" smooth="yes"/>
      <point x="493" y="428"/>
      <point x="434" y="378"/>
      <point x="325" y="301" type="curve" smooth="yes"/>
      <point x="42" y="100" type="line"/>
    </contour>
  </outline>
</glyph>
<glyph name="three" format="2">
  <advance width="646"/>
  <unicode hex="0033"/>
  <outline>
    <contour>
      <point x="306" y="401" type="line"/>
      <point x="280" y="311" type="line"/>
      <point x="336" y="311" type="line" smooth="yes"/>
      <point x="398" y="311"/>
      <point x="425" y="282"/>
      <point x="425" y="232" type="curve" smooth="yes"/>
      <point x="425" y="158"/>
      <point x="366" y="100"/>
      <point x="273" y="100" type="curve" smooth="yes"/>
      <point x="205" y="100"/>
      <point x="175" y="136"/>
      <point x="175" y="184" type="curve" smooth="yes"/>
      <point x="175" y="199"/>
      <point x="178" y="215"/>
      <point x="183" y="231" type="curve"/>
      <point x="63" y="231" type="line"/>
      <point x="54" y="206"/>
      <point x="49" y="180"/>
      <point x="49" y="155" type="curve" smooth="yes"/>
      <point x="49" y="67"/>
      <point x="110" y="-10"/>
      <point x="252" y="-10" type="curve"/>
      <point x="429" y="-10"/>
      <point x="560" y="108"/>
      <point x="560" y="238" type="curve" smooth="yes"/>
      <point x="560" y="296"/>
      <point x="538" y="334"/>
      <point x="493" y="360" type="curve"/>
      <point x="581" y="394"/>
      <point x="634" y="455"/>
      <point x="634" y="540" type="curve" smooth="yes"/>
      <point x="634" y="619"/>
      <point x="576" y="690"/>
      <point x="448" y="690" type="curve" smooth="yes"/>
      <point x="290" y="690"/>
      <point x="153" y="584"/>
      <point x="140" y="449" type="curve"/>
      <point x="260" y="449" type="line"/>
      <point x="277" y="526"/>
      <point x="327" y="580"/>
      <point x="414" y="580" type="curve" smooth="yes"/>
      <point x="475" y="580"/>
      <point x="500" y="548"/>
      <point x="500" y="508" type="curve" smooth="yes"/>
      <point x="500" y="436"/>
      <point x="441" y="401"/>
      <point x="372" y="401" type="curve" smooth="yes"/>
    </contour>
  </outline>
</glyph>
<glyph name="four" format="2">
  <advance width="646"/>
  <unicode hex="0034"/>
  <outline>
    <contour>
      <point x="34" y="162" type="line"/>
      <point x="341" y="162" type="line"/>
      <point x="295" y="0" type="line"/>
      <point x="415" y="0" type="line"/>
      <point x="461" y="162" type="line"/>
      <point x="580" y="162" type="line"/>
      <point x="609" y="262" type="line"/>
      <point x="490" y="262" type="line"/>
      <point x="609" y="680" type="line"/>
      <point x="489" y="680" type="line"/>
      <point x="63" y="262" type="line"/>
    </contour>
    <contour>
      <point x="188" y="262" type="line"/>
      <point x="439" y="504" type="line"/>
      <point x="370" y="262" type="line"/>
    </contour>
  </outline>
</glyph>
<glyph name="five" format="2">
  <advance width="646"/>
  <unicode hex="0035"/>
  <outline>
    <contour>
      <point x="234" y="297" type="line"/>
      <point x="250" y="324"/>
      <point x="293" y="364"/>
      <point x="357" y="364" type="curve"/>
      <point x="420" y="364"/>
      <point x="445" y="328"/>
      <point x="445" y="280" type="curve" smooth="yes"/>
      <point x="445" y="191"/>
      <point x="377" y="100"/>
      <point x="280" y="100" type="curve"/>
      <point x="223" y="100"/>
      <point x="190" y="126"/>
      <point x="190" y="176" type="curve" smooth="yes"/>
      <point x="190" y="193"/>
      <point x="194" y="214"/>
      <point x="203" y="237" type="curve"/>
      <point x="93" y="237" type="line"/>
      <point x="77" y="202"/>
      <point x="70" y="170"/>
      <point x="70" y="141" type="curve" smooth="yes"/>
      <point x="70" y="46"/>
      <point x="135" y="-10"/>
      <point x="242" y="-10" type="curve" smooth="yes"/>
      <point x="441" y="-10"/>
      <point x="573" y="170"/>
      <point x="573" y="309" type="curve" smooth="yes"/>
      <point x="573" y="399"/>
      <point x="518" y="457"/>
      <point x="418" y="457" type="curve" smooth="yes"/>
      <point x="359" y="457"/>
      <point x="312" y="443"/>
      <point x="272" y="419" type="curve"/>
      <point x="324" y="560" type="line"/>
      <point x="632" y="560" type="line"/>
      <point x="666" y="680" type="line"/>
      <point x="256" y="680" type="line"/>
      <point x="210" y="530"/>
      <point x="169" y="430"/>
      <point x="110" y="297" type="curve"/>
    </contour>
  </outline>
</glyph>
<glyph name="six" format="2">
  <advance width="646"/>
  <unicode hex="0036"/>
  <outline>
    <contour>
      <point x="582" y="310" type="curve" smooth="yes"/>
      <point x="582" y="401"/>
      <point x="528" y="463"/>
      <point x="429" y="463" type="curve" smooth="yes"/>
      <point x="347" y="463"/>
      <point x="286" y="432"/>
      <point x="236" y="388" type="curve"/>
      <point x="290" y="512"/>
      <point x="371" y="580"/>
      <point x="443" y="580" type="curve" smooth="yes"/>
      <point x="509" y="580"/>
      <point x="522" y="542"/>
      <point x="522" y="511" type="curve" smooth="yes"/>
      <point x="522" y="507"/>
      <point x="521" y="503"/>
      <point x="521" y="499" type="curve"/>
      <point x="641" y="499" type="line"/>
      <point x="646" y="517"/>
      <point x="649" y="535"/>
      <point x="649" y="552" type="curve" smooth="yes"/>
      <point x="649" y="627"/>
      <point x="600" y="690"/>
      <point x="488" y="690" type="curve" smooth="yes"/>
      <point x="230" y="690"/>
      <point x="81" y="403"/>
      <point x="81" y="190" type="curve"/>
      <point x="81" y="76"/>
      <point x="141" y="-10"/>
      <point x="263" y="-10" type="curve"/>
      <point x="450" y="-10"/>
      <point x="582" y="158"/>
    </contour>
    <contour>
      <point x="369" y="346" type="curve"/>
      <point x="425" y="346"/>
      <point x="450" y="313"/>
      <point x="450" y="268" type="curve" smooth="yes"/>
      <point x="450" y="185"/>
      <point x="385" y="88"/>
      <point x="291" y="88" type="curve"/>
      <point x="235" y="88"/>
      <point x="210" y="121"/>
      <point x="210" y="166" type="curve" smooth="yes"/>
      <point x="210" y="249"/>
      <point x="275" y="346"/>
    </contour>
  </outline>
</glyph>
<glyph name="seven" format="2">
  <advance width="646"/>
  <unicode hex="0037"/>
  <outline>
    <contour>
      <point x="201" y="680" type="line"/>
      <point x="167" y="560" type="line"/>
      <point x="497" y="560" type="line"/>
      <point x="370" y="460"/>
      <point x="179" y="250"/>
      <point x="112" y="0" type="curve"/>
      <point x="272" y="0" type="line"/>
      <point x="347" y="280"/>
      <point x="483" y="470"/>
      <point x="688" y="600" type="curve"/>
      <point x="711" y="680" type="line"/>
    </contour>
  </outline>
</glyph>
<glyph name="eight" format="2">
  <advance width="646"/>
  <unicode hex="0038"/>
  <outline>
    <contour>
      <point x="247" y="-10" type="curve" smooth="yes"/>
      <point x="422" y="-10"/>
      <point x="558" y="112"/>
      <point x="558" y="239" type="curve"/>
      <point x="558" y="293"/>
      <point x="537" y="333"/>
      <point x="499" y="359" type="curve"/>
      <point x="578" y="400"/>
      <point x="635" y="471"/>
      <point x="635" y="555" type="curve"/>
      <point x="635" y="638"/>
      <point x="569" y="690"/>
      <point x="467" y="690" type="curve"/>
      <point x="293" y="690"/>
      <point x="173" y="570"/>
      <point x="173" y="454" type="curve" smooth="yes"/>
      <point x="173" y="413"/>
      <point x="188" y="382"/>
      <point x="212" y="360" type="curve"/>
      <point x="119" y="317"/>
      <point x="55" y="237"/>
      <point x="55" y="148" type="curve" smooth="yes"/>
      <point x="55" y="45"/>
      <point x="134" y="-10"/>
    </contour>
    <contour>
      <point x="381" y="413" type="curve" smooth="yes"/>
      <point x="327" y="413"/>
      <point x="299" y="438"/>
      <point x="299" y="479" type="curve" smooth="yes"/>
      <point x="299" y="532"/>
      <point x="354" y="579"/>
      <point x="422" y="579" type="curve" smooth="yes"/>
      <point x="475" y="579"/>
      <point x="504" y="554"/>
      <point x="504" y="513" type="curve" smooth="yes"/>
      <point x="504" y="459"/>
      <point x="449" y="413"/>
    </contour>
    <contour>
      <point x="278" y="89" type="curve" smooth="yes"/>
      <point x="218" y="89"/>
      <point x="183" y="114"/>
      <point x="183" y="167" type="curve" smooth="yes"/>
      <point x="183" y="236"/>
      <point x="248" y="300"/>
      <point x="334" y="300" type="curve" smooth="yes"/>
      <point x="391" y="300"/>
      <point x="429" y="270"/>
      <point x="429" y="221" type="curve" smooth="yes"/>
      <point x="429" y="152"/>
      <point x="363" y="89"/>
    </contour>
  </outline>
</glyph>
<glyph name="nine" format="2">
  <advance width="646"/>
  <unicode hex="0039"/>
  <outline>
    <contour>
      <point x="123" y="370" type="curve"/>
      <point x="123" y="280"/>
      <point x="177" y="217"/>
      <point x="276" y="217" type="curve" smooth="yes"/>
      <point x="358" y="217"/>
      <point x="419" y="248"/>
      <point x="469" y="292" type="curve"/>
      <point x="415" y="168"/>
      <point x="334" y="100"/>
      <point x="262" y="100" type="curve" smooth="yes"/>
      <point x="196" y="100"/>
      <point x="179" y="138"/>
      <point x="184" y="181" type="curve"/>
      <point x="64" y="181" type="line"/>
      <point x="59" y="163"/>
      <point x="56" y="145"/>
      <point x="56" y="128" type="curve" smooth="yes"/>
      <point x="56" y="53"/>
      <point x="105" y="-10"/>
      <point x="217" y="-10" type="curve" smooth="yes"/>
      <point x="475" y="-10"/>
      <point x="624" y="277"/>
      <point x="624" y="490" type="curve" smooth="yes"/>
      <point x="624" y="605"/>
      <point x="563" y="690"/>
      <point x="443" y="690" type="curve"/>
      <point x="254" y="690"/>
      <point x="123" y="522"/>
    </contour>
    <contour>
      <point x="336" y="320" type="curve"/>
      <point x="280" y="320"/>
      <point x="255" y="353"/>
      <point x="255" y="398" type="curve" smooth="yes"/>
      <point x="255" y="481"/>
      <point x="320" y="578"/>
      <point x="414" y="578" type="curve"/>
      <point x="470" y="578"/>
      <point x="495" y="545"/>
      <point x="495" y="500" type="curve" smooth="yes"/>
      <point x="495" y="417"/>
      <point x="430" y="320"/>
    </contour>
  </outline>
</glyph>
<glyph name="colon" format="2">
  <advance width="230"/>
  <unicode hex="003A"/>
  <outline>
    <contour>
      <point x="116" y="500" type="line"/>
      <point x="76" y="360" type="line"/>
      <point x="216" y="360" type="line"/>
      <point x="256" y="500" type="line"/>
    </contour>
    <contour>
      <point x="13" y="140" type="line"/>
      <point x="-27" y="0" type="line"/>
      <point x="113" y="0" type="line"/>
      <point x="153" y="140" type="line"/>
    </contour>
  </outline>
</glyph>
<glyph name="less" format="2">
  <advance width="688"/>
  <unicode hex="003C"/>
  <outline>
    <contour>
      <point x="701" y="604" type="line"/>
      <point x="99" y="393" type="line"/>
      <point x="64" y="271" type="line"/>
      <point x="545" y="60" type="line"/>
      <point x="575" y="164" type="line"/>
      <point x="187" y="326" type="line"/>
      <point x="668" y="488" type="line"/>
    </contour>
  </outline>
</glyph>
<glyph name="equal" format="2">
  <advance width="688"/>
  <unicode hex="003D"/>
  <outline>
    <contour>
      <point x="114" y="412" type="line"/>
      <point x="662" y="412" type="line"/>
      <point x="694" y="522" type="line"/>
      <point x="146" y="522" type="line"/>
    </contour>
    <contour>
      <point x="37" y="143" type="line"/>
      <point x="585" y="143" type="line"/>
      <point x="617" y="253" type="line"/>
      <point x="69" y="253" type="line"/>
    </contour>
  </outline>
</glyph>
<glyph name="greater" format="2">
  <advance width="688"/>
  <unicode hex="003E"/>
  <outline>
    <contour>
      <point x="185" y="604" type="line"/>
      <point x="155" y="500" type="line"/>
      <point x="543" y="338" type="line"/>
      <point x="62" y="176" type="line"/>
      <point x="29" y="60" type="line"/>
      <point x="632" y="271" type="line"/>
      <point x="667" y="393" type="line"/>
    </contour>
  </outline>
</glyph>
<glyph name="question" format="2">
  <advance width="499"/>
  <unicode hex="003F"/>
  <outline>
    <contour>
      <point x="176" y="216" type="line"/>
      <point x="319" y="216" type="line"/>
      <point x="320" y="232" type="line" smooth="yes"/>
      <point x="327" y="349"/>
      <point x="554" y="372"/>
      <point x="554" y="549" type="curve" smooth="yes"/>
      <point x="554" y="634"/>
      <point x="486" y="690"/>
      <point x="364" y="690" type="curve" smooth="yes"/>
      <point x="227" y="690"/>
      <point x="119" y="622"/>
      <point x="78" y="481" type="curve"/>
      <point x="206" y="452" type="line"/>
      <point x="217" y="535"/>
      <point x="268" y="578"/>
      <point x="332" y="578" type="curve" smooth="yes"/>
      <point x="379" y="578"/>
      <point x="403" y="553"/>
      <point x="403" y="516" type="curve"/>
      <point x="403" y="394"/>
      <point x="229" y="402"/>
      <point x="180" y="230" type="curve" smooth="yes"/>
    </contour>
    <contour>
      <point x="160" y="140" type="line"/>
      <point x="120" y="0" type="line"/>
      <point x="260" y="0" type="line"/>
      <point x="300" y="140" type="line"/>
    </contour>
  </outline>
</glyph>
<glyph name="at" format="2">
  <advance width="856"/>
  <unicode hex="0040"/>
  <anchor x="461.0" y="430.0" name="top"/>
  <anchor x="471.0" y="465.0" name="center"/>
  <anchor x="384.0" y="430.0" name="top"/>
  <outline>
    <contour>
      <point x="565" y="-10" type="curve"/>
      <point x="722" y="-10"/>
      <point x="839" y="167"/>
      <point x="839" y="352" type="curve"/>
      <point x="839" y="532"/>
      <point x="724" y="654"/>
      <point x="510" y="654" type="curve"/>
      <point x="244" y="654"/>
      <point x="12" y="450"/>
      <point x="12" y="118" type="curve" smooth="yes"/>
      <point x="12" y="59"/>
      <point x="20" y="18"/>
      <point x="26" y="0" type="curve"/>
      <point x="155" y="0" type="line"/>
      <point x="136" y="24"/>
      <point x="115" y="78"/>
      <point x="115" y="164" type="curve"/>
      <point x="115" y="396"/>
      <point x="273" y="556"/>
      <point x="499" y="556" type="curve" smooth="yes"/>
      <point x="650" y="556"/>
      <point x="743" y="476"/>
      <point x="743" y="329" type="curve" smooth="yes"/>
      <point x="743" y="202"/>
      <point x="682" y="94"/>
      <point x="611" y="94" type="curve"/>
      <point x="591" y="94"/>
      <point x="582" y="98"/>
      <point x="582" y="111" type="curve" smooth="yes"/>
      <point x="582" y="117"/>
      <point x="584" y="126"/>
      <point x="587" y="137" type="curve" smooth="yes"/>
      <point x="634" y="301" type="line"/>
      <point x="639" y="318"/>
      <point x="642" y="334"/>
      <point x="642" y="348" type="curve" smooth="yes"/>
      <point x="642" y="418"/>
      <point x="587" y="460"/>
      <point x="486" y="460" type="curve" smooth="yes"/>
      <point x="353" y="460"/>
      <point x="261" y="388"/>
      <point x="239" y="310" type="curve"/>
      <point x="361" y="310" type="line"/>
      <point x="371" y="352"/>
      <point x="408" y="380"/>
      <point x="460" y="380" type="curve"/>
      <point x="503" y="380"/>
      <point x="526" y="357"/>
      <point x="526" y="321" type="curve" smooth="yes"/>
      <point x="526" y="312"/>
      <point x="524" y="301"/>
      <point x="521" y="290" type="curve" smooth="yes"/>
      <point x="517" y="276" type="line"/>
      <point x="461" y="276" type="line" smooth="yes"/>
      <point x="299" y="276"/>
      <point x="186" y="204"/>
      <point x="186" y="100" type="curve" smooth="yes"/>
      <point x="186" y="40"/>
      <point x="229" y="-10"/>
      <point x="321" y="-10" type="curve" smooth="yes"/>
      <point x="399" y="-10"/>
      <point x="459" y="26"/>
      <point x="483" y="46" type="curve"/>
      <point x="489" y="13"/>
      <point x="515" y="-10"/>
    </contour>
    <contour>
      <point x="459" y="191" type="curve" smooth="yes"/>
      <point x="469" y="191"/>
      <point x="481" y="190"/>
      <point x="492" y="190" type="curve"/>
      <point x="481" y="150" type="line"/>
      <point x="470" y="110"/>
      <point x="426" y="70"/>
      <point x="364" y="70" type="curve"/>
      <point x="330" y="70"/>
      <point x="303" y="85"/>
      <point x="303" y="114" type="curve" smooth="yes"/>
      <point x="303" y="147"/>
      <point x="334" y="191"/>
    </contour>
  </outline>
</glyph>
<glyph name="A" format="2">
  <advance width="648"/>
  <unicode hex="0041"/>
  <anchor x="386" y="430" name="top"/>
  <anchor x="505" y="0" name="bottom"/>
  <outline>
    <contour>
      <point x="460" y="0" type="line"/>
      <point x="574" y="0" type="line"/>
      <point x="509" y="680" type="line"/>
      <point x="407" y="680" type="line"/>
      <point x="-48" y="0" type="line"/>
      <point x="84" y="0" type="line"/>
      <point x="208" y="187" type="line"/>
      <point x="441" y="187" type="line"/>
    </contour>
    <contour>
      <point x="281" y="297" type="line"/>
      <point x="410" y="491" type="line"/>
      <point x="430" y="297" type="line"/>
    </contour>
  </outline>
</glyph>
<glyph name="B" format="2">
  <advance width="659"/>
  <unicode hex="0042"/>
  <outline>
    <contour>
      <point x="14" y="0" type="line"/>
      <point x="304" y="0" type="line" smooth="yes"/>
      <point x="489" y="0"/>
      <point x="593" y="114"/>
      <point x="593" y="240" type="curve"/>
      <point x="593" y="285"/>
      <point x="576" y="325"/>
      <point x="545" y="348" type="curve"/>
      <point x="621" y="395"/>
      <point x="665" y="466"/>
      <point x="665" y="547" type="curve"/>
      <point x="665" y="628"/>
      <point x="616" y="680"/>
      <point x="496" y="680" type="curve" smooth="yes"/>
      <point x="209" y="680" type="line"/>
    </contour>
    <contour>
      <point x="465" y="567" type="line" smooth="yes"/>
      <point x="514" y="567"/>
      <point x="537" y="547"/>
      <point x="537" y="510" type="curve" smooth="yes"/>
      <point x="537" y="451"/>
      <point x="490" y="402"/>
      <point x="404" y="402" type="curve" smooth="yes"/>
      <point x="248" y="402" type="line"/>
      <point x="296" y="567" type="line"/>
    </contour>
    <contour>
      <point x="392" y="289" type="line"/>
      <point x="445" y="289"/>
      <point x="470" y="263"/>
      <point x="470" y="221" type="curve" smooth="yes"/>
      <point x="470" y="160"/>
      <point x="422" y="113"/>
      <point x="344" y="113" type="curve" smooth="yes"/>
      <point x="165" y="113" type="line"/>
      <point x="216" y="289" type="line"/>
    </contour>
  </outline>
</glyph>
<glyph name="C" format="2">
  <advance width="683"/>
  <unicode hex="0043"/>
  <anchor x="402" y="430" name="top"/>
  <anchor x="268.9934311579947" y="0" name="bottom"/>
  <outline>
    <contour>
      <point x="528" y="282" type="line"/>
      <point x="467" y="172"/>
      <point x="405" y="109"/>
      <point x="307" y="109" type="curve"/>
      <point x="231" y="109"/>
      <point x="185" y="160"/>
      <point x="185" y="246" type="curve" smooth="yes"/>
      <point x="185" y="390"/>
      <point x="294" y="571"/>
      <point x="444" y="571" type="curve"/>
      <point x="520" y="571"/>
      <point x="561" y="526"/>
      <point x="561" y="452" type="curve" smooth="yes"/>
      <point x="561" y="430"/>
      <point x="556" y="408"/>
      <point x="550" y="391" type="curve"/>
      <point x="684" y="391" type="line"/>
      <point x="693" y="408"/>
      <point x="702" y="440"/>
      <point x="702" y="474" type="curve" smooth="yes"/>
      <point x="702" y="609"/>
      <point x="620" y="690"/>
      <point x="477" y="690" type="curve" smooth="yes"/>
      <point x="244" y="690"/>
      <point x="57" y="434"/>
      <point x="57" y="218" type="curve"/>
      <point x="57" y="74"/>
      <point x="143" y="-10"/>
      <point x="281" y="-10" type="curve"/>
      <point x="449" y="-10"/>
      <point x="605" y="95"/>
      <point x="653" y="282" type="curve"/>
    </contour>
  </outline>
</glyph>
<glyph name="D" format="2">
  <advance width="681"/>
  <unicode hex="0044"/>
  <anchor x="343" y="430" name="top"/>
  <outline>
    <contour>
      <point x="14" y="0" type="line"/>
      <point x="202" y="0" type="line" smooth="yes"/>
      <point x="475" y="0"/>
      <point x="671" y="194"/>
      <point x="671" y="444" type="curve"/>
      <point x="671" y="587"/>
      <point x="585" y="680"/>
      <point x="432" y="680" type="curve" smooth="yes"/>
      <point x="209" y="680" type="line"/>
    </contour>
    <contour>
      <point x="232" y="113" type="curve" smooth="yes"/>
      <point x="165" y="113" type="line"/>
      <point x="296" y="567" type="line"/>
      <point x="393" y="567" type="line" smooth="yes"/>
      <point x="494" y="567"/>
      <point x="544" y="520"/>
      <point x="544" y="428" type="curve" smooth="yes"/>
      <point x="544" y="254"/>
      <point x="415" y="113"/>
    </contour>
  </outline>
</glyph>
<glyph name="E" format="2">
  <advance width="558"/>
  <unicode hex="0045"/>
  <anchor x="351" y="430" name="top"/>
  <anchor x="228" y="0" name="bottom"/>
  <outline>
    <contour>
      <point x="14" y="0" type="line"/>
      <point x="430" y="0" type="line"/>
      <point x="462" y="113" type="line"/>
      <point x="165" y="113" type="line"/>
      <point x="223" y="315" type="line"/>
      <point x="504" y="315" type="line"/>
      <point x="536" y="428" type="line"/>
      <point x="256" y="428" type="line"/>
      <point x="296" y="567" type="line"/>
      <point x="593" y="567" type="line"/>
      <point x="625" y="680" type="line"/>
      <point x="209" y="680" type="line"/>
    </contour>
  </outline>
</glyph>
<glyph name="F" format="2">
  <advance width="521"/>
  <unicode hex="0046"/>
  <outline>
    <contour>
      <point x="14" y="0" type="line"/>
      <point x="143" y="0" type="line"/>
      <point x="140" y="16"/>
      <point x="144" y="37"/>
      <point x="150" y="58" type="curve" smooth="yes"/>
      <point x="224" y="315" type="line"/>
      <point x="482" y="315" type="line"/>
      <point x="514" y="428" type="line"/>
      <point x="256" y="428" type="line"/>
      <point x="296" y="567" type="line"/>
      <point x="582" y="567" type="line"/>
      <point x="614" y="680" type="line"/>
      <point x="209" y="680" type="line"/>
    </contour>
  </outline>
</glyph>
<glyph name="G" format="2">
  <advance width="697"/>
  <unicode hex="0047"/>
  <anchor x="405" y="430" name="top"/>
  <anchor x="276.9934311579947" y="0" name="bottom"/>
  <outline>
    <contour>
      <point x="354" y="247" type="line"/>
      <point x="514" y="247" type="line"/>
      <point x="473" y="161"/>
      <point x="399" y="109"/>
      <point x="307" y="109" type="curve" smooth="yes"/>
      <point x="231" y="109"/>
      <point x="185" y="161"/>
      <point x="185" y="246" type="curve"/>
      <point x="185" y="390"/>
      <point x="293" y="571"/>
      <point x="444" y="571" type="curve" smooth="yes"/>
      <point x="528" y="571"/>
      <point x="558" y="522"/>
      <point x="552" y="471" type="curve"/>
      <point x="692" y="471" type="line"/>
      <point x="707" y="578"/>
      <point x="639" y="690"/>
      <point x="478" y="690" type="curve" smooth="yes"/>
      <point x="244" y="690"/>
      <point x="57" y="436"/>
      <point x="57" y="217" type="curve" smooth="yes"/>
      <point x="57" y="75"/>
      <point x="143" y="-10"/>
      <point x="271" y="-10" type="curve"/>
      <point x="357" y="-10"/>
      <point x="424" y="16"/>
      <point x="468" y="59" type="curve"/>
      <point x="449" y="0" type="line"/>
      <point x="560" y="0" type="line"/>
      <point x="667" y="361" type="line"/>
      <point x="387" y="361" type="line"/>
    </contour>
  </outline>
</glyph>
<glyph name="H" format="2">
  <advance width="676"/>
  <unicode hex="0048"/>
  <anchor x="388.9934311579947" y="430" name="top"/>
  <anchor x="398.9934311579947" y="465" name="center"/>
  <outline>
    <contour>
      <point x="14" y="0" type="line"/>
      <point x="133" y="0" type="line"/>
      <point x="217" y="292" type="line"/>
      <point x="483" y="292" type="line"/>
      <point x="399" y="0" type="line"/>
      <point x="518" y="0" type="line"/>
      <point x="713" y="680" type="line"/>
      <point x="594" y="680" type="line"/>
      <point x="517" y="410" type="line"/>
      <point x="251" y="410" type="line"/>
      <point x="328" y="680" type="line"/>
      <point x="209" y="680" type="line"/>
    </contour>
  </outline>
</glyph>
<glyph name="I" format="2">
  <advance width="291"/>
  <unicode hex="0049"/>
  <anchor x="201" y="430" name="top"/>
  <anchor x="191" y="0" name="bottom"/>
  <outline>
    <contour>
      <point x="14" y="0" type="line"/>
      <point x="133" y="0" type="line"/>
      <point x="328" y="680" type="line"/>
      <point x="209" y="680" type="line"/>
    </contour>
  </outline>
</glyph>
<glyph name="J" format="2">
  <advance width="458"/>
  <unicode hex="004A"/>
  <anchor x="373" y="430" name="top"/>
  <outline>
    <contour>
      <point x="387" y="680" type="line"/>
      <point x="238" y="160" type="line" smooth="yes"/>
      <point x="227" y="122"/>
      <point x="197" y="102"/>
      <point x="154" y="102" type="curve" smooth="yes"/>
      <point x="111" y="102"/>
      <point x="94" y="130"/>
      <point x="105" y="170" type="curve" smooth="yes"/>
      <point x="139" y="290" type="line"/>
      <point x="35" y="290" type="line"/>
      <point x="16" y="254"/>
      <point x="-13" y="185"/>
      <point x="-13" y="122" type="curve" smooth="yes"/>
      <point x="-13" y="37"/>
      <point x="47" y="-10"/>
      <point x="133" y="-10" type="curve" smooth="yes"/>
      <point x="242" y="-10"/>
      <point x="323" y="45"/>
      <point x="358" y="166" type="curve" smooth="yes"/>
      <point x="505" y="680" type="line"/>
    </contour>
  </outline>
</glyph>
<glyph name="K" format="2">
  <advance width="604"/>
  <unicode hex="004B"/>
  <anchor x="236" y="0" name="bottom"/>
  <outline>
    <contour>
      <point x="14" y="0" type="line"/>
      <point x="133" y="0" type="line"/>
      <point x="204" y="246" type="line"/>
      <point x="298" y="331" type="line"/>
      <point x="362" y="0" type="line"/>
      <point x="492" y="0" type="line"/>
      <point x="407" y="428" type="line"/>
      <point x="689" y="680" type="line"/>
      <point x="529" y="680" type="line"/>
      <point x="260" y="444" type="line"/>
      <point x="328" y="680" type="line"/>
      <point x="209" y="680" type="line"/>
    </contour>
  </outline>
</glyph>
<glyph name="L" format="2">
  <advance width="505"/>
  <unicode hex="004C"/>
  <anchor x="210.99343115799468" y="430" name="top"/>
  <anchor x="443" y="465" name="center"/>
  <anchor x="189.99343115799468" y="0" name="bottom"/>
  <outline>
    <contour>
      <point x="14" y="0" type="line"/>
      <point x="403" y="0" type="line"/>
      <point x="435" y="113" type="line"/>
      <point x="165" y="113" type="line"/>
      <point x="328" y="680" type="line"/>
      <point x="209" y="680" type="line"/>
    </contour>
  </outline>
</glyph>
<glyph name="M" format="2">
  <advance width="851"/>
  <unicode hex="004D"/>
  <outline>
    <contour>
      <point x="14" y="0" type="line"/>
      <point x="133" y="0" type="line"/>
      <point x="296" y="568" type="line"/>
      <point x="308" y="0" type="line"/>
      <point x="392" y="0" type="line"/>
      <point x="735" y="568" type="line"/>
      <point x="573" y="0" type="line"/>
      <point x="693" y="0" type="line"/>
      <point x="888" y="680" type="line"/>
      <point x="681" y="680" type="line"/>
      <point x="418" y="242" type="line"/>
      <point x="407" y="680" type="line"/>
      <point x="209" y="680" type="line"/>
    </contour>
  </outline>
</glyph>
<glyph name="N" format="2">
  <advance width="661"/>
  <unicode hex="004E"/>
  <anchor x="381.9934311579947" y="430" name="top"/>
  <anchor x="258.9934311579947" y="0" name="bottom"/>
  <outline>
    <contour>
      <point x="14" y="0" type="line"/>
      <point x="134" y="0" type="line"/>
      <point x="264" y="456" type="line"/>
      <point x="383" y="0" type="line"/>
      <point x="503" y="0" type="line"/>
      <point x="698" y="680" type="line"/>
      <point x="578" y="680" type="line"/>
      <point x="447" y="224" type="line"/>
      <point x="329" y="680" type="line"/>
      <point x="209" y="680" type="line"/>
    </contour>
  </outline>
</glyph>
<glyph name="O" format="2">
  <advance width="705"/>
  <unicode hex="004F"/>
  <anchor x="417.0" y="430.0" name="top"/>
  <outline>
    <contour>
      <point x="289" y="-10" type="curve"/>
      <point x="527" y="-10"/>
      <point x="699" y="246"/>
      <point x="699" y="462" type="curve" smooth="yes"/>
      <point x="699" y="604"/>
      <point x="610" y="690"/>
      <point x="468" y="690" type="curve"/>
      <point x="230" y="690"/>
      <point x="58" y="434"/>
      <point x="58" y="218" type="curve" smooth="yes"/>
      <point x="58" y="76"/>
      <point x="147" y="-10"/>
    </contour>
    <contour>
      <point x="312" y="109" type="curve" smooth="yes"/>
      <point x="232" y="109"/>
      <point x="186" y="159"/>
      <point x="186" y="245" type="curve" smooth="yes"/>
      <point x="186" y="389"/>
      <point x="294" y="571"/>
      <point x="445" y="571" type="curve" smooth="yes"/>
      <point x="525" y="571"/>
      <point x="571" y="521"/>
      <point x="571" y="435" type="curve" smooth="yes"/>
      <point x="571" y="291"/>
      <point x="463" y="109"/>
    </contour>
  </outline>
</glyph>
<glyph name="P" format="2">
  <advance width="566"/>
  <unicode hex="0050"/>
  <outline>
    <contour>
      <point x="14" y="0" type="line"/>
      <point x="141" y="0" type="line"/>
      <point x="139" y="17"/>
      <point x="143" y="34"/>
      <point x="150" y="58" type="curve" smooth="yes"/>
      <point x="214" y="281" type="line"/>
      <point x="307" y="281" type="line"/>
      <point x="483" y="281"/>
      <point x="609" y="386"/>
      <point x="609" y="536" type="curve" smooth="yes"/>
      <point x="609" y="617"/>
      <point x="560" y="680"/>
      <point x="453" y="680" type="curve" smooth="yes"/>
      <point x="209" y="680" type="line"/>
    </contour>
    <contour>
      <point x="405" y="567" type="line" smooth="yes"/>
      <point x="452" y="567"/>
      <point x="478" y="544"/>
      <point x="478" y="504" type="curve" smooth="yes"/>
      <point x="478" y="444"/>
      <point x="433" y="394"/>
      <point x="352" y="394" type="curve" smooth="yes"/>
      <point x="246" y="394" type="line"/>
      <point x="296" y="567" type="line"/>
    </contour>
  </outline>
</glyph>
<glyph name="Q" format="2">
  <advance width="704"/>
  <unicode hex="0051"/>
  <anchor x="404" y="430" name="top"/>
  <outline>
    <contour>
      <point x="289" y="-10" type="curve"/>
      <point x="328" y="-10"/>
      <point x="364" y="-3"/>
      <point x="399" y="9" type="curve"/>
      <point x="416" y="-30" type="line"/>
      <point x="543" y="-30" type="line"/>
      <point x="501" y="65" type="line"/>
      <point x="623" y="156"/>
      <point x="699" y="318"/>
      <point x="699" y="462" type="curve" smooth="yes"/>
      <point x="699" y="604"/>
      <point x="610" y="690"/>
      <point x="468" y="690" type="curve"/>
      <point x="230" y="690"/>
      <point x="58" y="434"/>
      <point x="58" y="218" type="curve" smooth="yes"/>
      <point x="58" y="76"/>
      <point x="147" y="-10"/>
    </contour>
    <contour>
      <point x="312" y="109" type="curve" smooth="yes"/>
      <point x="232" y="109"/>
      <point x="186" y="159"/>
      <point x="186" y="245" type="curve" smooth="yes"/>
      <point x="186" y="389"/>
      <point x="294" y="571"/>
      <point x="445" y="571" type="curve" smooth="yes"/>
      <point x="525" y="571"/>
      <point x="571" y="521"/>
      <point x="571" y="435" type="curve" smooth="yes"/>
      <point x="571" y="343"/>
      <point x="527" y="235"/>
      <point x="455" y="169" type="curve"/>
      <point x="421" y="247" type="line"/>
      <point x="296" y="247" type="line"/>
      <point x="354" y="114" type="line"/>
      <point x="340" y="111"/>
      <point x="326" y="109"/>
    </contour>
  </outline>
</glyph>
<glyph name="R" format="2">
  <advance width="639"/>
  <unicode hex="0052"/>
  <anchor x="362.9934311579947" y="430.0" name="top"/>
  <anchor x="260" y="0" name="bottom"/>
  <outline>
    <contour>
      <point x="14" y="0" type="line"/>
      <point x="133" y="0" type="line"/>
      <point x="217" y="292" type="line"/>
      <point x="339" y="292" type="line"/>
      <point x="388" y="292"/>
      <point x="404" y="266"/>
      <point x="404" y="226" type="curve" smooth="yes"/>
      <point x="404" y="218"/>
      <point x="403" y="209"/>
      <point x="402" y="199" type="curve" smooth="yes"/>
      <point x="391" y="122" type="line" smooth="yes"/>
      <point x="388" y="101"/>
      <point x="386" y="81"/>
      <point x="386" y="65" type="curve" smooth="yes"/>
      <point x="386" y="33"/>
      <point x="393" y="11"/>
      <point x="414" y="0" type="curve"/>
      <point x="567" y="0" type="line"/>
      <point x="534" y="27"/>
      <point x="518" y="72"/>
      <point x="518" y="120" type="curve" smooth="yes"/>
      <point x="518" y="128"/>
      <point x="519" y="137"/>
      <point x="520" y="145" type="curve" smooth="yes"/>
      <point x="529" y="230" type="line" smooth="yes"/>
      <point x="530" y="237"/>
      <point x="530" y="244"/>
      <point x="530" y="250" type="curve" smooth="yes"/>
      <point x="530" y="282"/>
      <point x="520" y="311"/>
      <point x="491" y="327" type="curve"/>
      <point x="586" y="365"/>
      <point x="664" y="430"/>
      <point x="664" y="536" type="curve" smooth="yes"/>
      <point x="664" y="620"/>
      <point x="613" y="680"/>
      <point x="498" y="680" type="curve" smooth="yes"/>
      <point x="209" y="680" type="line"/>
    </contour>
    <contour>
      <point x="453" y="567" type="line" smooth="yes"/>
      <point x="509" y="567"/>
      <point x="533" y="538"/>
      <point x="533" y="502" type="curve" smooth="yes"/>
      <point x="533" y="444"/>
      <point x="486" y="405"/>
      <point x="405" y="405" type="curve" smooth="yes"/>
      <point x="249" y="405" type="line"/>
      <point x="296" y="567" type="line"/>
    </contour>
  </outline>
</glyph>
<glyph name="S" format="2">
  <advance width="603"/>
  <unicode hex="0053"/>
  <anchor x="347.0" y="430.0" name="top"/>
  <anchor x="224.0" y="0.0" name="bottom"/>
  <outline>
    <contour>
      <point x="607" y="465" type="line"/>
      <point x="622" y="495"/>
      <point x="628" y="523"/>
      <point x="628" y="549" type="curve" smooth="yes"/>
      <point x="628" y="633"/>
      <point x="560" y="690"/>
      <point x="424" y="690" type="curve" smooth="yes"/>
      <point x="243" y="690"/>
      <point x="122" y="584"/>
      <point x="122" y="466" type="curve"/>
      <point x="122" y="262"/>
      <point x="420" y="324"/>
      <point x="420" y="191" type="curve"/>
      <point x="420" y="136"/>
      <point x="366" y="80"/>
      <point x="269" y="80" type="curve"/>
      <point x="178" y="80"/>
      <point x="146" y="123"/>
      <point x="146" y="167" type="curve" smooth="yes"/>
      <point x="146" y="188"/>
      <point x="149" y="205"/>
      <point x="156" y="223" type="curve"/>
      <point x="30" y="223" type="line"/>
      <point x="18" y="203"/>
      <point x="12" y="178"/>
      <point x="12" y="152" type="curve" smooth="yes"/>
      <point x="12" y="69"/>
      <point x="79" y="-10"/>
      <point x="247" y="-10" type="curve" smooth="yes"/>
      <point x="413" y="-10"/>
      <point x="556" y="78"/>
      <point x="556" y="230" type="curve"/>
      <point x="556" y="428"/>
      <point x="255" y="380"/>
      <point x="255" y="498" type="curve"/>
      <point x="255" y="554"/>
      <point x="303" y="600"/>
      <point x="391" y="600" type="curve"/>
      <point x="469" y="600"/>
      <point x="497" y="561"/>
      <point x="497" y="517" type="curve" smooth="yes"/>
      <point x="497" y="500"/>
      <point x="494" y="482"/>
      <point x="487" y="465" type="curve"/>
    </contour>
  </outline>
</glyph>
<glyph name="T" format="2">
  <advance width="542"/>
  <unicode hex="0054"/>
  <anchor x="321.9934311579947" y="430" name="top"/>
  <anchor x="331.9934311579947" y="465" name="center"/>
  <anchor x="198.99343115799468" y="0" name="bottom"/>
  <outline>
    <contour>
      <point x="139" y="0" type="line"/>
      <point x="259" y="0" type="line"/>
      <point x="420" y="560" type="line"/>
      <point x="598" y="560" type="line"/>
      <point x="632" y="680" type="line"/>
      <point x="156" y="680" type="line"/>
      <point x="122" y="560" type="line"/>
      <point x="300" y="560" type="line"/>
    </contour>
  </outline>
</glyph>
<glyph name="U" format="2">
  <advance width="636"/>
  <unicode hex="0055"/>
  <anchor x="369" y="430" name="top"/>
  <anchor x="261" y="0" name="bottom"/>
  <outline>
    <contour>
      <point x="679" y="680" type="line"/>
      <point x="560" y="680" type="line"/>
      <point x="423" y="203" type="line" smooth="yes"/>
      <point x="403" y="135"/>
      <point x="347" y="110"/>
      <point x="287" y="110" type="curve"/>
      <point x="203" y="110"/>
      <point x="172" y="159"/>
      <point x="188" y="215" type="curve" smooth="yes"/>
      <point x="321" y="680" type="line"/>
      <point x="203" y="680" type="line"/>
      <point x="69" y="214" type="line" smooth="yes"/>
      <point x="32" y="84"/>
      <point x="111" y="-10"/>
      <point x="261" y="-10" type="curve" smooth="yes"/>
      <point x="402" y="-10"/>
      <point x="502" y="62"/>
      <point x="541" y="198" type="curve" smooth="yes"/>
    </contour>
  </outline>
</glyph>
<glyph name="V" format="2">
  <advance width="614"/>
  <unicode hex="0056"/>
  <outline>
    <contour>
      <point x="253" y="680" type="line"/>
      <point x="131" y="680" type="line"/>
      <point x="170" y="0" type="line"/>
      <point x="282" y="0" type="line"/>
      <point x="710" y="680" type="line"/>
      <point x="570" y="680" type="line"/>
      <point x="277" y="204" type="line"/>
    </contour>
  </outline>
</glyph>
<glyph name="W" format="2">
  <advance width="841"/>
  <unicode hex="0057"/>
  <anchor x="471.9934311579947" y="430" name="top"/>
  <outline>
    <contour>
      <point x="239" y="680" type="line"/>
      <point x="119" y="680" type="line"/>
      <point x="91" y="0" type="line"/>
      <point x="234" y="0" type="line"/>
      <point x="502" y="536" type="line"/>
      <point x="464" y="0" type="line"/>
      <point x="608" y="0" type="line"/>
      <point x="968" y="680" type="line"/>
      <point x="842" y="680" type="line"/>
      <point x="588" y="191" type="line"/>
      <point x="626" y="680" type="line"/>
      <point x="512" y="680" type="line"/>
      <point x="512" y="679" type="line"/>
      <point x="451" y="679" type="line"/>
      <point x="210" y="183" type="line"/>
    </contour>
  </outline>
</glyph>
<glyph name="X" format="2">
  <advance width="597"/>
  <unicode hex="0058"/>
  <outline>
    <contour>
      <point x="156" y="680" type="line"/>
      <point x="260" y="357" type="line"/>
      <point x="-49" y="0" type="line"/>
      <point x="100" y="0" type="line"/>
      <point x="300" y="234" type="line"/>
      <point x="375" y="0" type="line"/>
      <point x="502" y="0" type="line"/>
      <point x="392" y="343" type="line"/>
      <point x="694" y="680" type="line"/>
      <point x="545" y="680" type="line"/>
      <point x="353" y="463" type="line"/>
      <point x="283" y="680" type="line"/>
    </contour>
  </outline>
</glyph>
<glyph name="Y" format="2">
  <advance width="602"/>
  <unicode hex="0059"/>
  <anchor x="351.9934311579947" y="430" name="top"/>
  <outline>
    <contour>
      <point x="169" y="0" type="line"/>
      <point x="288" y="0" type="line"/>
      <point x="383" y="332" type="line"/>
      <point x="725" y="680" type="line"/>
      <point x="567" y="680" type="line"/>
      <point x="346" y="452" type="line"/>
      <point x="253" y="680" type="line"/>
      <point x="123" y="680" type="line"/>
      <point x="264" y="333" type="line"/>
    </contour>
  </outline>
</glyph>
<glyph name="Z" format="2">
  <advance width="547"/>
  <unicode hex="005A"/>
  <anchor x="323.9934311579947" y="430" name="top"/>
  <outline>
    <contour>
      <point x="-30" y="0" type="line"/>
      <point x="433" y="0" type="line"/>
      <point x="465" y="113" type="line"/>
      <point x="156" y="113" type="line"/>
      <point x="587" y="572" type="line"/>
      <point x="618" y="680" type="line"/>
      <point x="177" y="680" type="line"/>
      <point x="145" y="567" type="line"/>
      <point x="431" y="567" type="line"/>
      <point x="1" y="108" type="line"/>
    </contour>
  </outline>
</glyph>
<glyph name="bracketleft" format="2">
  <advance width="294"/>
  <unicode hex="005B"/>
  <outline>
    <contour>
      <point x="183" y="665" type="line"/>
      <point x="157" y="575" type="line"/>
      <point x="-55" y="-165" type="line"/>
      <point x="155" y="-165" type="line"/>
      <point x="181" y="-75" type="line"/>
      <point x="61" y="-75" type="line"/>
      <point x="247" y="575" type="line"/>
      <point x="367" y="575" type="line"/>
      <point x="393" y="665" type="line"/>
    </contour>
  </outline>
</glyph>
<glyph name="backslash" format="2">
  <advance width="342"/>
  <unicode hex="005C"/>
  <outline>
    <contour>
      <point x="263" y="-112" type="line"/>
      <point x="204" y="731" type="line"/>
      <point x="114" y="731" type="line"/>
      <point x="173" y="-112" type="line"/>
    </contour>
  </outline>
</glyph>
<glyph name="bracketright" format="2">
  <advance width="294"/>
  <unicode hex="005D"/>
  <outline>
    <contour>
      <point x="110" y="-165" type="line"/>
      <point x="136" y="-75" type="line"/>
      <point x="348" y="665" type="line"/>
      <point x="138" y="665" type="line"/>
      <point x="112" y="575" type="line"/>
      <point x="232" y="575" type="line"/>
      <point x="46" y="-75" type="line"/>
      <point x="-74" y="-75" type="line"/>
      <point x="-100" y="-165" type="line"/>
    </contour>
  </outline>
</glyph>
<glyph name="asciicircum" format="2">
  <advance width="500"/>
  <unicode hex="005E"/>
  <outline>
    <contour>
      <point x="258" y="552" type="line"/>
      <point x="1" y="112" type="line"/>
      <point x="117" y="112" type="line"/>
      <point x="315" y="450" type="line"/>
      <point x="326" y="122" type="line"/>
      <point x="428" y="122" type="line"/>
      <point x="411" y="552" type="line"/>
    </contour>
  </outline>
</glyph>
<glyph name="grave" format="2">
  <advance width="500"/>
  <unicode hex="0060"/>
  <anchor x="353" y="610" name="_top"/>
  <outline>
    <contour>
      <point x="447" y="870" type="line"/>
      <point x="271" y="870" type="line"/>
      <point x="345" y="730" type="line"/>
      <point x="437" y="730" type="line"/>
    </contour>
  </outline>
</glyph>
<glyph name="a" format="2">
  <advance width="565"/>
  <unicode hex="0061"/>
  <anchor x="416" y="0" name="bottom"/>
  <anchor x="321" y="430" name="top"/>
  <anchor x="416" y="0" name="bottom"/>
  <outline>
    <contour>
      <point x="440" y="148" type="curve" smooth="yes"/>
      <point x="503" y="350" type="line" smooth="yes"/>
      <point x="531" y="440"/>
      <point x="485" y="510"/>
      <point x="347" y="510" type="curve" smooth="yes"/>
      <point x="224" y="510"/>
      <point x="103" y="456"/>
      <point x="67" y="340" type="curve"/>
      <point x="191" y="340" type="line"/>
      <point x="205" y="394"/>
      <point x="249" y="430"/>
      <point x="311" y="430" type="curve" smooth="yes"/>
      <point x="371" y="430"/>
      <point x="403" y="395"/>
      <point x="387" y="342" type="curve" smooth="yes"/>
      <point x="379" y="316" type="line"/>
      <point x="292" y="316" type="line" smooth="yes"/>
      <point x="99" y="316"/>
      <point x="-1" y="220"/>
      <point x="-1" y="116" type="curve" smooth="yes"/>
      <point x="-1" y="38"/>
      <point x="58" y="-10"/>
      <point x="153" y="-10" type="curve"/>
      <point x="226" y="-10"/>
      <point x="280" y="15"/>
      <point x="323" y="47" type="curve"/>
      <point x="338" y="-1"/>
      <point x="377" y="-6"/>
      <point x="423" y="-6" type="curve" smooth="yes"/>
      <point x="450" y="-6"/>
      <point x="479" y="0"/>
      <point x="506" y="12" type="curve"/>
      <point x="538" y="122" type="line"/>
      <point x="519" y="110"/>
      <point x="499" y="104"/>
      <point x="481" y="104" type="curve" smooth="yes"/>
      <point x="448" y="104"/>
      <point x="432" y="121"/>
    </contour>
    <contour>
      <point x="310" y="230" type="curve" smooth="yes"/>
      <point x="357" y="230" type="line"/>
      <point x="341" y="180" type="line" smooth="yes"/>
      <point x="326" y="132"/>
      <point x="274" y="70"/>
      <point x="192" y="70" type="curve" smooth="yes"/>
      <point x="147" y="70"/>
      <point x="123" y="94"/>
      <point x="123" y="130" type="curve" smooth="yes"/>
      <point x="123" y="172"/>
      <point x="159" y="230"/>
    </contour>
  </outline>
</glyph>
<glyph name="b" format="2">
  <advance width="580"/>
  <unicode hex="0062"/>
  <outline>
    <contour>
      <point x="-8" y="0" type="line"/>
      <point x="98" y="0" type="line"/>
      <point x="111" y="44" type="line"/>
      <point x="127" y="18"/>
      <point x="161" y="-10"/>
      <point x="225" y="-10" type="curve"/>
      <point x="409" y="-10"/>
      <point x="549" y="160"/>
      <point x="549" y="324" type="curve" smooth="yes"/>
      <point x="549" y="440"/>
      <point x="483" y="510"/>
      <point x="379" y="510" type="curve"/>
      <point x="315" y="510"/>
      <point x="269" y="486"/>
      <point x="233" y="464" type="curve"/>
      <point x="293" y="680" type="line"/>
      <point x="183" y="680" type="line" smooth="yes"/>
    </contour>
    <contour>
      <point x="257" y="100" type="curve"/>
      <point x="197" y="100"/>
      <point x="159" y="136"/>
      <point x="159" y="198" type="curve" smooth="yes"/>
      <point x="159" y="308"/>
      <point x="239" y="400"/>
      <point x="337" y="400" type="curve"/>
      <point x="397" y="400"/>
      <point x="435" y="364"/>
      <point x="435" y="302" type="curve" smooth="yes"/>
      <point x="435" y="192"/>
      <point x="353" y="100"/>
    </contour>
  </outline>
</glyph>
<glyph name="c" format="2">
  <advance width="541"/>
  <unicode hex="0063"/>
  <anchor x="323.9934311579947" y="430" name="top"/>
  <anchor x="200.99343115799468" y="0" name="bottom"/>
  <outline>
    <contour>
      <point x="29" y="168" type="curve" smooth="yes"/>
      <point x="29" y="67"/>
      <point x="87" y="-10"/>
      <point x="206" y="-10" type="curve"/>
      <point x="354" y="-10"/>
      <point x="462" y="108"/>
      <point x="488" y="200" type="curve"/>
      <point x="384" y="200" type="line"/>
      <point x="351" y="154"/>
      <point x="310" y="100"/>
      <point x="234" y="100" type="curve" smooth="yes"/>
      <point x="181" y="100"/>
      <point x="143" y="127"/>
      <point x="143" y="191" type="curve" smooth="yes"/>
      <point x="143" y="294"/>
      <point x="228" y="400"/>
      <point x="324" y="400" type="curve"/>
      <point x="380" y="400"/>
      <point x="402" y="365"/>
      <point x="402" y="316" type="curve" smooth="yes"/>
      <point x="402" y="307"/>
      <point x="401" y="299"/>
      <point x="400" y="290" type="curve"/>
      <point x="516" y="290" type="line"/>
      <point x="518" y="301"/>
      <point x="520" y="315"/>
      <point x="520" y="330" type="curve" smooth="yes"/>
      <point x="520" y="404"/>
      <point x="504" y="510"/>
      <point x="359" y="510" type="curve"/>
      <point x="170" y="510"/>
      <point x="29" y="335"/>
    </contour>
  </outline>
</glyph>
<glyph name="d" format="2">
  <advance width="577"/>
  <unicode hex="0064"/>
  <anchor x="427.9934311579947" y="430" name="top"/>
  <anchor x="437.9934311579947" y="465" name="center"/>
  <outline>
    <contour>
      <point x="445" y="0" type="line"/>
      <point x="632" y="680" type="line" smooth="yes"/>
      <point x="522" y="680" type="line"/>
      <point x="465" y="476" type="line"/>
      <point x="447" y="492"/>
      <point x="411" y="510"/>
      <point x="353" y="510" type="curve" smooth="yes"/>
      <point x="173" y="510"/>
      <point x="31" y="340"/>
      <point x="31" y="176" type="curve"/>
      <point x="31" y="66"/>
      <point x="97" y="-10"/>
      <point x="208" y="-10" type="curve"/>
      <point x="270" y="-10"/>
      <point x="327" y="17"/>
      <point x="352" y="44" type="curve"/>
      <point x="339" y="0" type="line"/>
    </contour>
    <contour>
      <point x="243" y="100" type="curve"/>
      <point x="183" y="100"/>
      <point x="145" y="136"/>
      <point x="145" y="198" type="curve" smooth="yes"/>
      <point x="145" y="308"/>
      <point x="225" y="400"/>
      <point x="323" y="400" type="curve"/>
      <point x="383" y="400"/>
      <point x="421" y="364"/>
      <point x="421" y="302" type="curve" smooth="yes"/>
      <point x="421" y="192"/>
      <point x="339" y="100"/>
    </contour>
  </outline>
</glyph>
<glyph name="e" format="2">
  <advance width="534"/>
  <unicode hex="0065"/>
  <anchor x="322" y="430" name="top"/>
  <anchor x="224.99343115799468" y="0" name="bottom"/>
  <outline>
    <contour>
      <point x="23" y="170" type="curve" smooth="yes"/>
      <point x="23" y="67"/>
      <point x="84" y="-10"/>
      <point x="201" y="-10" type="curve" smooth="yes"/>
      <point x="351" y="-10"/>
      <point x="447" y="102"/>
      <point x="473" y="170" type="curve"/>
      <point x="363" y="170" type="line"/>
      <point x="346" y="148"/>
      <point x="309" y="100"/>
      <point x="232" y="100" type="curve" smooth="yes"/>
      <point x="175" y="100"/>
      <point x="135" y="127"/>
      <point x="135" y="200" type="curve" smooth="yes"/>
      <point x="135" y="208"/>
      <point x="135" y="216"/>
      <point x="136" y="224" type="curve"/>
      <point x="494" y="224" type="line"/>
      <point x="505" y="266"/>
      <point x="511" y="304"/>
      <point x="511" y="338" type="curve"/>
      <point x="511" y="450"/>
      <point x="457" y="510"/>
      <point x="352" y="510" type="curve"/>
      <point x="163" y="510"/>
      <point x="23" y="327"/>
    </contour>
    <contour>
      <point x="320" y="420" type="curve" smooth="yes"/>
      <point x="386" y="420"/>
      <point x="413" y="376"/>
      <point x="405" y="324" type="curve"/>
      <point x="166" y="324" type="line"/>
      <point x="199" y="383"/>
      <point x="255" y="420"/>
    </contour>
  </outline>
</glyph>
<glyph name="f" format="2">
  <advance width="295"/>
  <unicode hex="0066"/>
  <outline>
    <contour>
      <point x="8" y="0" type="line"/>
      <point x="118" y="0" type="line"/>
      <point x="230" y="390" type="line"/>
      <point x="300" y="390" type="line"/>
      <point x="331" y="500" type="line"/>
      <point x="261" y="500" type="line"/>
      <point x="272" y="538" type="line" smooth="yes"/>
      <point x="281" y="568"/>
      <point x="303" y="576"/>
      <point x="323" y="576" type="curve" smooth="yes"/>
      <point x="341" y="576"/>
      <point x="355" y="570"/>
      <point x="363" y="560" type="curve"/>
      <point x="395" y="670" type="line"/>
      <point x="379" y="680"/>
      <point x="357" y="690"/>
      <point x="319" y="690" type="curve"/>
      <point x="248" y="690"/>
      <point x="193" y="646"/>
      <point x="175" y="582" type="curve" smooth="yes"/>
      <point x="151" y="500" type="line"/>
      <point x="91" y="500" type="line"/>
      <point x="60" y="390" type="line"/>
      <point x="120" y="390" type="line"/>
    </contour>
  </outline>
</glyph>
<glyph name="g" format="2">
  <advance width="566"/>
  <unicode hex="0067"/>
  <anchor x="345" y="430" name="top"/>
  <outline>
    <contour>
      <point x="326" y="8" type="line" smooth="yes"/>
      <point x="308" y="-56"/>
      <point x="260" y="-100"/>
      <point x="180" y="-100" type="curve" smooth="yes"/>
      <point x="100" y="-100"/>
      <point x="87" y="-52"/>
      <point x="85" y="-20" type="curve"/>
      <point x="-29" y="-20" type="line"/>
      <point x="-49" y="-126"/>
      <point x="14" y="-190"/>
      <point x="157" y="-190" type="curve" smooth="yes"/>
      <point x="303" y="-190"/>
      <point x="401" y="-118"/>
      <point x="437" y="10" type="curve" smooth="yes"/>
      <point x="576" y="500" type="line"/>
      <point x="470" y="500" type="line"/>
      <point x="460" y="466" type="line"/>
      <point x="443" y="484"/>
      <point x="408" y="510"/>
      <point x="344" y="510" type="curve"/>
      <point x="174" y="510"/>
      <point x="33" y="346"/>
      <point x="33" y="187" type="curve" smooth="yes"/>
      <point x="33" y="87"/>
      <point x="87" y="20"/>
      <point x="201" y="20" type="curve" smooth="yes"/>
      <point x="262" y="20"/>
      <point x="311" y="40"/>
      <point x="341" y="62" type="curve"/>
    </contour>
    <contour>
      <point x="322" y="400" type="curve" smooth="yes"/>
      <point x="379" y="400"/>
      <point x="410" y="369"/>
      <point x="410" y="314" type="curve" smooth="yes"/>
      <point x="410" y="210"/>
      <point x="328" y="110"/>
      <point x="235" y="110" type="curve" smooth="yes"/>
      <point x="178" y="110"/>
      <point x="147" y="141"/>
      <point x="147" y="196" type="curve" smooth="yes"/>
      <point x="147" y="300"/>
      <point x="229" y="400"/>
    </contour>
  </outline>
</glyph>
<glyph name="h" format="2">
  <advance width="528"/>
  <unicode hex="0068"/>
  <anchor x="167" y="430" name="top"/>
  <anchor x="484.0" y="465.0" name="center"/>
  <outline>
    <contour>
      <point x="399" y="0" type="line"/>
      <point x="497" y="340" type="line" smooth="yes"/>
      <point x="503" y="360"/>
      <point x="506" y="378"/>
      <point x="506" y="394" type="curve" smooth="yes"/>
      <point x="506" y="455"/>
      <point x="469" y="510"/>
      <point x="387" y="510" type="curve" smooth="yes"/>
      <point x="331" y="510"/>
      <point x="276" y="490"/>
      <point x="229" y="458" type="curve"/>
      <point x="293" y="680" type="line"/>
      <point x="183" y="680" type="line"/>
      <point x="-12" y="0" type="line"/>
      <point x="98" y="0" type="line"/>
      <point x="178" y="280" type="line" smooth="yes"/>
      <point x="196" y="343"/>
      <point x="233" y="405"/>
      <point x="314" y="405" type="curve" smooth="yes"/>
      <point x="357" y="405"/>
      <point x="383" y="386"/>
      <point x="383" y="352" type="curve" smooth="yes"/>
      <point x="383" y="345"/>
      <point x="382" y="338"/>
      <point x="380" y="330" type="curve" smooth="yes"/>
      <point x="285" y="0" type="line"/>
    </contour>
  </outline>
</glyph>
<glyph name="i" format="2">
  <advance width="238"/>
  <unicode hex="0069"/>
  <anchor x="119.0" y="0.0" name="bottom"/>
  <outline>
    <contour>
      <point x="186" y="690" type="line"/>
      <point x="152" y="570" type="line"/>
      <point x="268" y="570" type="line"/>
      <point x="302" y="690" type="line"/>
    </contour>
    <contour>
      <point x="132" y="500" type="line"/>
      <point x="-10" y="0" type="line" smooth="yes"/>
      <point x="106" y="0" type="line"/>
      <point x="248" y="500" type="line"/>
    </contour>
  </outline>
</glyph>
<glyph name="j" format="2">
  <advance width="230"/>
  <unicode hex="006A"/>
  <outline>
    <contour>
      <point x="186" y="690" type="line"/>
      <point x="151" y="570" type="line"/>
      <point x="261" y="570" type="line"/>
      <point x="296" y="690" type="line"/>
    </contour>
    <contour>
      <point x="241" y="500" type="line"/>
      <point x="131" y="500" type="line"/>
      <point x="-26" y="-48" type="line" smooth="yes"/>
      <point x="-34" y="-78"/>
      <point x="-57" y="-86"/>
      <point x="-77" y="-86" type="curve" smooth="yes"/>
      <point x="-95" y="-86"/>
      <point x="-106" y="-78"/>
      <point x="-113" y="-66" type="curve"/>
      <point x="-142" y="-166" type="line"/>
      <point x="-132" y="-178"/>
      <point x="-110" y="-190"/>
      <point x="-74" y="-190" type="curve" smooth="yes"/>
      <point x="4" y="-190"/>
      <point x="53" y="-155"/>
      <point x="74" y="-82" type="curve" smooth="yes"/>
    </contour>
  </outline>
</glyph>
<glyph name="k" format="2">
  <advance width="490"/>
  <unicode hex="006B"/>
  <anchor x="201" y="0" name="bottom"/>
  <outline>
    <contour>
      <point x="183" y="680" type="line"/>
      <point x="-12" y="0" type="line"/>
      <point x="102" y="0" type="line"/>
      <point x="153" y="179" type="line"/>
      <point x="246" y="252" type="line"/>
      <point x="300" y="0" type="line"/>
      <point x="418" y="0" type="line"/>
      <point x="338" y="324" type="line"/>
      <point x="561" y="500" type="line"/>
      <point x="409" y="500" type="line"/>
      <point x="197" y="331" type="line"/>
      <point x="297" y="680" type="line"/>
    </contour>
  </outline>
</glyph>
<glyph name="l" format="2">
  <advance width="242"/>
  <unicode hex="006C"/>
  <anchor x="167" y="430" name="top"/>
  <anchor x="177" y="465" name="center"/>
  <anchor x="44" y="0" name="bottom"/>
  <outline>
    <contour>
      <point x="183" y="680" type="line"/>
      <point x="-4" y="0" type="line"/>
      <point x="110" y="0" type="line"/>
      <point x="297" y="680" type="line"/>
    </contour>
  </outline>
</glyph>
<glyph name="m" format="2">
  <advance width="819"/>
  <unicode hex="006D"/>
  <outline>
    <contour>
      <point x="397" y="0" type="line"/>
      <point x="478" y="280" type="line" smooth="yes"/>
      <point x="496" y="343"/>
      <point x="524" y="405"/>
      <point x="605" y="405" type="curve" smooth="yes"/>
      <point x="648" y="405"/>
      <point x="674" y="386"/>
      <point x="674" y="352" type="curve" smooth="yes"/>
      <point x="674" y="345"/>
      <point x="673" y="338"/>
      <point x="671" y="330" type="curve" smooth="yes"/>
      <point x="576" y="0" type="line"/>
      <point x="690" y="0" type="line"/>
      <point x="788" y="340" type="line" smooth="yes"/>
      <point x="794" y="360"/>
      <point x="797" y="378"/>
      <point x="797" y="394" type="curve" smooth="yes"/>
      <point x="797" y="455"/>
      <point x="760" y="510"/>
      <point x="668" y="510" type="curve"/>
      <point x="608" y="510"/>
      <point x="555" y="488"/>
      <point x="495" y="446" type="curve"/>
      <point x="471" y="489"/>
      <point x="436" y="510"/>
      <point x="385" y="510" type="curve" smooth="yes"/>
      <point x="329" y="510"/>
      <point x="279" y="490"/>
      <point x="229" y="458" type="curve"/>
      <point x="241" y="500" type="line"/>
      <point x="131" y="500" type="line"/>
      <point x="-12" y="0" type="line"/>
      <point x="102" y="0" type="line"/>
      <point x="182" y="280" type="line" smooth="yes"/>
      <point x="200" y="343"/>
      <point x="231" y="405"/>
      <point x="312" y="405" type="curve" smooth="yes"/>
      <point x="355" y="405"/>
      <point x="381" y="386"/>
      <point x="381" y="352" type="curve" smooth="yes"/>
      <point x="381" y="345"/>
      <point x="380" y="338"/>
      <point x="378" y="330" type="curve" smooth="yes"/>
      <point x="283" y="0" type="line"/>
    </contour>
  </outline>
</glyph>
<glyph name="n" format="2">
  <advance width="532"/>
  <unicode hex="006E"/>
  <anchor x="321" y="430" name="top"/>
  <anchor x="198" y="0" name="bottom"/>
  <outline>
    <contour>
      <point x="403" y="0" type="line"/>
      <point x="501" y="340" type="line" smooth="yes"/>
      <point x="507" y="360"/>
      <point x="510" y="378"/>
      <point x="510" y="394" type="curve" smooth="yes"/>
      <point x="510" y="455"/>
      <point x="473" y="510"/>
      <point x="391" y="510" type="curve" smooth="yes"/>
      <point x="335" y="510"/>
      <point x="279" y="490"/>
      <point x="229" y="458" type="curve"/>
      <point x="241" y="500" type="line"/>
      <point x="131" y="500" type="line"/>
      <point x="-12" y="0" type="line"/>
      <point x="102" y="0" type="line"/>
      <point x="182" y="280" type="line" smooth="yes"/>
      <point x="200" y="343"/>
      <point x="237" y="405"/>
      <point x="318" y="405" type="curve" smooth="yes"/>
      <point x="361" y="405"/>
      <point x="387" y="386"/>
      <point x="387" y="352" type="curve" smooth="yes"/>
      <point x="387" y="345"/>
      <point x="386" y="338"/>
      <point x="384" y="330" type="curve" smooth="yes"/>
      <point x="289" y="0" type="line"/>
    </contour>
  </outline>
</glyph>
<glyph name="o" format="2">
  <advance width="565"/>
  <unicode hex="006F"/>
  <anchor x="331" y="430" name="top"/>
  <outline>
    <contour>
      <point x="30" y="168" type="curve" smooth="yes"/>
      <point x="30" y="66"/>
      <point x="98" y="-10"/>
      <point x="210" y="-10" type="curve"/>
      <point x="402" y="-10"/>
      <point x="534" y="156"/>
      <point x="534" y="332" type="curve" smooth="yes"/>
      <point x="534" y="432"/>
      <point x="476" y="510"/>
      <point x="354" y="510" type="curve" smooth="yes"/>
      <point x="172" y="510"/>
      <point x="30" y="344"/>
    </contour>
    <contour>
      <point x="240" y="100" type="curve" smooth="yes"/>
      <point x="180" y="100"/>
      <point x="144" y="134"/>
      <point x="144" y="198" type="curve" smooth="yes"/>
      <point x="144" y="308"/>
      <point x="226" y="400"/>
      <point x="324" y="400" type="curve" smooth="yes"/>
      <point x="384" y="400"/>
      <point x="420" y="366"/>
      <point x="420" y="302" type="curve" smooth="yes"/>
      <point x="420" y="192"/>
      <point x="336" y="100"/>
    </contour>
  </outline>
</glyph>
<glyph name="q" format="2">
  <advance width="581"/>
  <unicode hex="0071"/>
  <outline>
    <contour>
      <point x="588" y="500" type="line"/>
      <point x="482" y="500" type="line"/>
      <point x="472" y="466" type="line"/>
      <point x="456" y="480"/>
      <point x="419" y="510"/>
      <point x="355" y="510" type="curve"/>
      <point x="171" y="510"/>
      <point x="31" y="340"/>
      <point x="31" y="176" type="curve" smooth="yes"/>
      <point x="31" y="60"/>
      <point x="97" y="-10"/>
      <point x="201" y="-10" type="curve"/>
      <point x="265" y="-10"/>
      <point x="313" y="12"/>
      <point x="347" y="36" type="curve"/>
      <point x="287" y="-180" type="line"/>
      <point x="397" y="-180" type="line" smooth="yes"/>
    </contour>
    <contour>
      <point x="323" y="400" type="curve"/>
      <point x="383" y="400"/>
      <point x="421" y="364"/>
      <point x="421" y="302" type="curve" smooth="yes"/>
      <point x="421" y="192"/>
      <point x="341" y="100"/>
      <point x="243" y="100" type="curve"/>
      <point x="183" y="100"/>
      <point x="145" y="136"/>
      <point x="145" y="198" type="curve" smooth="yes"/>
      <point x="145" y="308"/>
      <point x="227" y="400"/>
    </contour>
  </outline>
</glyph>
<glyph name="r" format="2">
  <advance width="379"/>
  <unicode hex="0072"/>
  <anchor x="261" y="430" name="top"/>
  <anchor x="46" y="0" name="bottom"/>
  <outline>
    <contour>
      <point x="406" y="374" type="curve"/>
      <point x="444" y="488" type="line"/>
      <point x="429" y="502"/>
      <point x="403" y="510"/>
      <point x="377" y="510" type="curve"/>
      <point x="306" y="510"/>
      <point x="263" y="474"/>
      <point x="225" y="444" type="curve"/>
      <point x="241" y="500" type="line"/>
      <point x="131" y="500" type="line"/>
      <point x="-12" y="0" type="line"/>
      <point x="102" y="0" type="line"/>
      <point x="174" y="251" type="line" smooth="yes"/>
      <point x="203" y="352"/>
      <point x="250" y="402"/>
      <point x="331" y="402" type="curve"/>
      <point x="365" y="402"/>
      <point x="391" y="388"/>
    </contour>
  </outline>
</glyph>
<glyph name="s" format="2">
  <advance width="483"/>
  <unicode hex="0073"/>
  <anchor x="311" y="430" name="top"/>
  <anchor x="178" y="0" name="bottom"/>
  <outline>
    <contour>
      <point x="357" y="356" type="curve"/>
      <point x="471" y="356" type="line"/>
      <point x="474" y="365"/>
      <point x="477" y="376"/>
      <point x="477" y="388" type="curve" smooth="yes"/>
      <point x="477" y="441"/>
      <point x="443" y="510"/>
      <point x="306" y="510" type="curve"/>
      <point x="166" y="510"/>
      <point x="66" y="422"/>
      <point x="66" y="328" type="curve"/>
      <point x="66" y="185"/>
      <point x="310" y="229"/>
      <point x="310" y="148" type="curve"/>
      <point x="310" y="111"/>
      <point x="276" y="80"/>
      <point x="208" y="80" type="curve" smooth="yes"/>
      <point x="142" y="80"/>
      <point x="116" y="114"/>
      <point x="116" y="142" type="curve"/>
      <point x="116" y="153"/>
      <point x="117" y="157"/>
      <point x="118" y="160" type="curve"/>
      <point x="4" y="160" type="line"/>
      <point x="-1" y="147"/>
      <point x="-4" y="130"/>
      <point x="-4" y="114" type="curve" smooth="yes"/>
      <point x="-4" y="56"/>
      <point x="40" y="-10"/>
      <point x="166" y="-10" type="curve"/>
      <point x="326" y="-10"/>
      <point x="430" y="79"/>
      <point x="430" y="190" type="curve"/>
      <point x="430" y="336"/>
      <point x="186" y="288"/>
      <point x="186" y="370" type="curve" smooth="yes"/>
      <point x="186" y="400"/>
      <point x="220" y="426"/>
      <point x="278" y="426" type="curve" smooth="yes"/>
      <point x="328" y="426"/>
      <point x="361" y="407"/>
      <point x="361" y="376" type="curve" smooth="yes"/>
      <point x="361" y="369"/>
      <point x="360" y="363"/>
    </contour>
  </outline>
</glyph>
<glyph name="t" format="2">
  <advance width="299"/>
  <unicode hex="0074"/>
  <anchor x="371" y="465" name="center"/>
  <anchor x="98" y="0" name="bottom"/>
  <anchor x="509" y="603" name="top"/>
  <outline>
    <contour>
      <point x="204" y="680" type="line"/>
      <point x="150" y="500" type="line"/>
      <point x="91" y="500" type="line"/>
      <point x="60" y="390" type="line"/>
      <point x="120" y="390" type="line"/>
      <point x="39" y="112" type="line" smooth="yes"/>
      <point x="20" y="47"/>
      <point x="49" y="-10"/>
      <point x="125" y="-10" type="curve"/>
      <point x="155" y="-10"/>
      <point x="183" y="-2"/>
      <point x="199" y="8" type="curve"/>
      <point x="227" y="108" type="line"/>
      <point x="217" y="100"/>
      <point x="203" y="94"/>
      <point x="185" y="94" type="curve" smooth="yes"/>
      <point x="162" y="94"/>
      <point x="151" y="111"/>
      <point x="159" y="140" type="curve" smooth="yes"/>
      <point x="232" y="390" type="line"/>
      <point x="302" y="390" type="line"/>
      <point x="333" y="500" type="line"/>
      <point x="263" y="500" type="line"/>
      <point x="314" y="680" type="line"/>
    </contour>
  </outline>
</glyph>
<glyph name="u" format="2">
  <advance width="532"/>
  <unicode hex="0075"/>
  <anchor x="321" y="430" name="top"/>
  <anchor x="198" y="0" name="bottom"/>
  <outline>
    <contour>
      <point x="128" y="500" type="line"/>
      <point x="30" y="160" type="line" smooth="yes"/>
      <point x="24" y="140"/>
      <point x="21" y="122"/>
      <point x="21" y="106" type="curve" smooth="yes"/>
      <point x="21" y="45"/>
      <point x="58" y="-10"/>
      <point x="140" y="-10" type="curve"/>
      <point x="196" y="-10"/>
      <point x="252" y="10"/>
      <point x="302" y="42" type="curve"/>
      <point x="290" y="0" type="line"/>
      <point x="400" y="0" type="line"/>
      <point x="543" y="500" type="line"/>
      <point x="429" y="500" type="line"/>
      <point x="349" y="220" type="line" smooth="yes"/>
      <point x="331" y="158"/>
      <point x="290" y="80"/>
      <point x="209" y="80" type="curve" smooth="yes"/>
      <point x="169" y="80"/>
      <point x="142" y="100"/>
      <point x="142" y="139" type="curve" smooth="yes"/>
      <point x="142" y="148"/>
      <point x="144" y="158"/>
      <point x="147" y="170" type="curve" smooth="yes"/>
      <point x="242" y="500" type="line"/>
    </contour>
  </outline>
</glyph>
<glyph name="v" format="2">
  <advance width="474"/>
  <unicode hex="0076"/>
  <outline>
    <contour>
      <point x="71" y="500" type="line"/>
      <point x="114" y="0" type="line"/>
      <point x="216" y="0" type="line"/>
      <point x="545" y="500" type="line"/>
      <point x="421" y="500" type="line"/>
      <point x="209" y="175" type="line"/>
      <point x="183" y="500" type="line"/>
    </contour>
  </outline>
</glyph>
<glyph name="w" format="2">
  <advance width="774"/>
  <unicode hex="0077"/>
  <anchor x="443" y="430" name="top"/>
  <outline>
    <contour>
      <point x="71" y="500" type="line"/>
      <point x="96" y="0" type="line"/>
      <point x="210" y="0" type="line"/>
      <point x="405" y="327" type="line"/>
      <point x="420" y="0" type="line"/>
      <point x="534" y="0" type="line"/>
      <point x="845" y="500" type="line"/>
      <point x="731" y="500" type="line"/>
      <point x="519" y="160" type="line"/>
      <point x="509" y="500" type="line"/>
      <point x="397" y="500" type="line"/>
      <point x="193" y="162" type="line"/>
      <point x="183" y="500" type="line"/>
    </contour>
  </outline>
</glyph>
<glyph name="x" format="2">
  <advance width="504"/>
  <unicode hex="0078"/>
  <outline>
    <contour>
      <point x="-62" y="0" type="line"/>
      <point x="70" y="0" type="line"/>
      <point x="230" y="162" type="line"/>
      <point x="302" y="0" type="line" smooth="yes"/>
      <point x="422" y="0" type="line"/>
      <point x="313" y="246" type="line"/>
      <point x="565" y="500" type="line"/>
      <point x="433" y="500" type="line" smooth="yes"/>
      <point x="273" y="338" type="line"/>
      <point x="201" y="500" type="line"/>
      <point x="81" y="500" type="line"/>
      <point x="190" y="254" type="line"/>
    </contour>
  </outline>
</glyph>
<glyph name="y" format="2">
  <advance width="500"/>
  <unicode hex="0079"/>
  <anchor x="305" y="430" name="top"/>
  <outline>
    <contour>
      <point x="0" y="-84" type="curve"/>
      <point x="-38" y="-84"/>
      <point x="-59" y="-74"/>
      <point x="-78" y="-58" type="curve"/>
      <point x="-109" y="-164" type="line"/>
      <point x="-81" y="-182"/>
      <point x="-54" y="-190"/>
      <point x="-20" y="-190" type="curve" smooth="yes"/>
      <point x="64" y="-190"/>
      <point x="142" y="-146"/>
      <point x="186" y="-78" type="curve" smooth="yes"/>
      <point x="561" y="500" type="line"/>
      <point x="435" y="500" type="line"/>
      <point x="211" y="132" type="line"/>
      <point x="201" y="500" type="line"/>
      <point x="87" y="500" type="line"/>
      <point x="115" y="16" type="line" smooth="yes"/>
      <point x="115" y="4" type="line" smooth="yes"/>
      <point x="115" y="-51"/>
      <point x="56" y="-84"/>
    </contour>
  </outline>
</glyph>
<glyph name="z" format="2">
  <advance width="464"/>
  <unicode hex="007A"/>
  <anchor x="291" y="430" name="top"/>
  <outline>
    <contour>
      <point x="-42" y="0" type="line"/>
      <point x="362" y="0" type="line" smooth="yes"/>
      <point x="388" y="90" type="line"/>
      <point x="134" y="90" type="line"/>
      <point x="480" y="410" type="line"/>
      <point x="505" y="500" type="line"/>
      <point x="111" y="500" type="line"/>
      <point x="85" y="410" type="line"/>
      <point x="330" y="410" type="line" smooth="yes"/>
      <point x="-16" y="90" type="line"/>
    </contour>
  </outline>
</glyph>
<glyph name="braceleft" format="2">
  <advance width="291"/>
  <unicode hex="007B"/>
  <outline>
    <contour>
      <point x="-7" y="-102" type="curve" smooth="yes"/>
      <point x="-7" y="-128"/>
      <point x="0" y="-149"/>
      <point x="9" y="-166" type="curve"/>
      <point x="111" y="-166" type="line"/>
      <point x="100" y="-146"/>
      <point x="92" y="-123"/>
      <point x="92" y="-95" type="curve" smooth="yes"/>
      <point x="92" y="-16"/>
      <point x="175" y="71"/>
      <point x="175" y="164" type="curve" smooth="yes"/>
      <point x="175" y="201"/>
      <point x="162" y="231"/>
      <point x="131" y="247" type="curve"/>
      <point x="325" y="287"/>
      <point x="186" y="577"/>
      <point x="350" y="666" type="curve"/>
      <point x="248" y="666" type="line"/>
      <point x="95" y="582"/>
      <point x="231" y="305"/>
      <point x="65" y="305" type="curve"/>
      <point x="34" y="195" type="line"/>
      <point x="60" y="195"/>
      <point x="81" y="182"/>
      <point x="81" y="150" type="curve" smooth="yes"/>
      <point x="81" y="78"/>
      <point x="-7" y="-20"/>
    </contour>
  </outline>
</glyph>
<glyph name="bar" format="2">
  <advance width="218"/>
  <unicode hex="007C"/>
  <outline>
    <contour>
      <point x="-8" y="0" type="line"/>
      <point x="82" y="0" type="line"/>
      <point x="277" y="680" type="line"/>
      <point x="187" y="680" type="line"/>
    </contour>
  </outline>
</glyph>
<glyph name="braceright" format="2">
  <advance width="291"/>
  <unicode hex="007D"/>
  <outline>
    <contour>
      <point x="297" y="602" type="curve" smooth="yes"/>
      <point x="297" y="628"/>
      <point x="290" y="649"/>
      <point x="281" y="666" type="curve"/>
      <point x="179" y="666" type="line"/>
      <point x="190" y="646"/>
      <point x="198" y="623"/>
      <point x="198" y="595" type="curve" smooth="yes"/>
      <point x="198" y="516"/>
      <point x="115" y="429"/>
      <point x="115" y="336" type="curve" smooth="yes"/>
      <point x="115" y="299"/>
      <point x="128" y="269"/>
      <point x="159" y="253" type="curve"/>
      <point x="-35" y="213"/>
      <point x="104" y="-77"/>
      <point x="-60" y="-166" type="curve"/>
      <point x="42" y="-166" type="line"/>
      <point x="195" y="-82"/>
      <point x="59" y="195"/>
      <point x="225" y="195" type="curve"/>
      <point x="256" y="305" type="line"/>
      <point x="230" y="305"/>
      <point x="209" y="318"/>
      <point x="209" y="350" type="curve" smooth="yes"/>
      <point x="209" y="422"/>
      <point x="297" y="520"/>
    </contour>
  </outline>
</glyph>
<glyph name="asciitilde" format="2">
  <advance width="688"/>
  <unicode hex="007E"/>
  <outline>
    <contour>
      <point x="61" y="250" type="curve"/>
      <point x="181" y="250" type="line"/>
      <point x="181" y="282"/>
      <point x="203" y="308"/>
      <point x="245" y="308" type="curve"/>
      <point x="323" y="308"/>
      <point x="383" y="256"/>
      <point x="491" y="256" type="curve" smooth="yes"/>
      <point x="591" y="256"/>
      <point x="659" y="305"/>
      <point x="667" y="414" type="curve"/>
      <point x="547" y="414" type="line"/>
      <point x="549" y="384"/>
      <point x="530" y="356"/>
      <point x="483" y="356" type="curve"/>
      <point x="405" y="356"/>
      <point x="343" y="408"/>
      <point x="235" y="408" type="curve" smooth="yes"/>
      <point x="135" y="408"/>
      <point x="70" y="343"/>
    </contour>
  </outline>
</glyph>
<glyph name="exclamdown" format="2">
  <advance width="250"/>
  <unicode hex="00A1"/>
  <outline>
    <contour>
      <point x="232" y="360" type="line"/>
      <point x="272" y="500" type="line"/>
      <point x="132" y="500" type="line"/>
      <point x="92" y="360" type="line"/>
    </contour>
    <contour>
      <point x="195" y="284" type="line"/>
      <point x="85" y="284" type="line"/>
      <point x="-66" y="-180" type="line"/>
      <point x="74" y="-180" type="line"/>
    </contour>
  </outline>
</glyph>
<glyph name="cent" format="2">
  <advance width="646"/>
  <unicode hex="00A2"/>
  <outline>
    <contour>
      <point x="146" y="278" type="curve" smooth="yes"/>
      <point x="146" y="203"/>
      <point x="182" y="155"/>
      <point x="243" y="138" type="curve"/>
      <point x="204" y="0" type="line"/>
      <point x="294" y="0" type="line"/>
      <point x="332" y="134" type="line"/>
      <point x="438" y="149"/>
      <point x="510" y="232"/>
      <point x="528" y="302" type="curve"/>
      <point x="433" y="302" type="line"/>
      <point x="419" y="277"/>
      <point x="397" y="249"/>
      <point x="362" y="237" type="curve"/>
      <point x="421" y="444" type="line"/>
      <point x="444" y="430"/>
      <point x="447" y="402"/>
      <point x="446" y="376" type="curve"/>
      <point x="550" y="376" type="line"/>
      <point x="555" y="455"/>
      <point x="536" y="531"/>
      <point x="452" y="550" type="curve"/>
      <point x="489" y="680" type="line"/>
      <point x="399" y="680" type="line"/>
      <point x="362" y="550" type="line"/>
      <point x="243" y="525"/>
      <point x="146" y="404"/>
    </contour>
    <contour>
      <point x="249" y="298" type="curve" smooth="yes"/>
      <point x="249" y="357"/>
      <point x="283" y="412"/>
      <point x="330" y="438" type="curve"/>
      <point x="274" y="244" type="line"/>
      <point x="258" y="254"/>
      <point x="249" y="272"/>
    </contour>
  </outline>
</glyph>
<glyph name="sterling" format="2">
  <advance width="646"/>
  <unicode hex="00A3"/>
  <anchor x="517" y="750" name="top"/>
  <anchor x="279" y="-30" name="bottom"/>
  <outline>
    <contour>
      <point x="120" y="340" type="line"/>
      <point x="94" y="250" type="line"/>
      <point x="195" y="250" type="line"/>
      <point x="195" y="190"/>
      <point x="139" y="134"/>
      <point x="54" y="98" type="curve"/>
      <point x="26" y="0" type="line"/>
      <point x="496" y="0" type="line"/>
      <point x="528" y="113" type="line"/>
      <point x="233" y="106" type="line"/>
      <point x="281" y="152"/>
      <point x="310" y="199"/>
      <point x="319" y="250" type="curve"/>
      <point x="474" y="250" type="line"/>
      <point x="500" y="340" type="line"/>
      <point x="314" y="340" type="line"/>
      <point x="308" y="371"/>
      <point x="299" y="399"/>
      <point x="299" y="440" type="curve"/>
      <point x="299" y="516"/>
      <point x="354" y="571"/>
      <point x="430" y="571" type="curve" smooth="yes"/>
      <point x="485" y="571"/>
      <point x="510" y="541"/>
      <point x="510" y="494" type="curve" smooth="yes"/>
      <point x="510" y="478"/>
      <point x="507" y="460"/>
      <point x="501" y="441" type="curve"/>
      <point x="635" y="441" type="line"/>
      <point x="643" y="471"/>
      <point x="647" y="499"/>
      <point x="647" y="525" type="curve" smooth="yes"/>
      <point x="647" y="624"/>
      <point x="575" y="690"/>
      <point x="454" y="690" type="curve" smooth="yes"/>
      <point x="290" y="690"/>
      <point x="171" y="564"/>
      <point x="171" y="420" type="curve" smooth="yes"/>
      <point x="171" y="385"/>
      <point x="175" y="361"/>
      <point x="180" y="340" type="curve"/>
    </contour>
  </outline>
</glyph>
<glyph name="currency" format="2">
  <advance width="519"/>
  <unicode hex="00A4"/>
  <outline>
    <contour>
      <point x="102" y="115" type="line"/>
      <point x="162" y="159" type="line"/>
      <point x="181" y="148"/>
      <point x="205" y="142"/>
      <point x="232" y="142" type="curve" smooth="yes"/>
      <point x="260" y="142"/>
      <point x="287" y="148"/>
      <point x="311" y="158" type="curve"/>
      <point x="348" y="107" type="line"/>
      <point x="425" y="167" type="line"/>
      <point x="391" y="216" type="line"/>
      <point x="421" y="252"/>
      <point x="439" y="297"/>
      <point x="439" y="344" type="curve" smooth="yes"/>
      <point x="439" y="353"/>
      <point x="438" y="362"/>
      <point x="436" y="371" type="curve"/>
      <point x="490" y="410" type="line"/>
      <point x="440" y="480" type="line"/>
      <point x="387" y="441" type="line"/>
      <point x="367" y="453"/>
      <point x="341" y="460"/>
      <point x="312" y="460" type="curve" smooth="yes"/>
      <point x="282" y="460"/>
      <point x="254" y="454"/>
      <point x="229" y="443" type="curve"/>
      <point x="195" y="490" type="line"/>
      <point x="118" y="430" type="line"/>
      <point x="151" y="383" type="line"/>
      <point x="122" y="348"/>
      <point x="105" y="304"/>
      <point x="105" y="259" type="curve" smooth="yes"/>
      <point x="105" y="248"/>
      <point x="106" y="237"/>
      <point x="109" y="226" type="curve"/>
      <point x="52" y="185" type="line"/>
    </contour>
    <contour>
      <point x="256" y="226" type="curve" smooth="yes"/>
      <point x="221" y="226"/>
      <point x="201" y="252"/>
      <point x="201" y="283" type="curve" smooth="yes"/>
      <point x="201" y="331"/>
      <point x="239" y="376"/>
      <point x="288" y="376" type="curve" smooth="yes"/>
      <point x="324" y="376"/>
      <point x="343" y="349"/>
      <point x="343" y="319" type="curve" smooth="yes"/>
      <point x="343" y="268"/>
      <point x="304" y="226"/>
    </contour>
  </outline>
</glyph>
<glyph name="brokenbar" format="2">
  <advance width="218"/>
  <unicode hex="00A6"/>
  <outline>
    <contour>
      <point x="115" y="430" type="line"/>
      <point x="205" y="430" type="line"/>
      <point x="277" y="680" type="line"/>
      <point x="187" y="680" type="line"/>
    </contour>
    <contour>
      <point x="-8" y="0" type="line"/>
      <point x="82" y="0" type="line"/>
      <point x="154" y="250" type="line"/>
      <point x="64" y="250" type="line"/>
    </contour>
  </outline>
</glyph>
<glyph name="section" format="2">
  <advance width="480"/>
  <unicode hex="00A7"/>
  <outline>
    <contour>
      <point x="402" y="128" type="curve"/>
      <point x="402" y="164"/>
      <point x="389" y="189"/>
      <point x="358" y="213" type="curve"/>
      <point x="430" y="249"/>
      <point x="471" y="298"/>
      <point x="471" y="358" type="curve"/>
      <point x="471" y="510"/>
      <point x="240" y="448"/>
      <point x="240" y="542" type="curve"/>
      <point x="240" y="579"/>
      <point x="276" y="605"/>
      <point x="334" y="605" type="curve" smooth="yes"/>
      <point x="384" y="605"/>
      <point x="414" y="588"/>
      <point x="414" y="557" type="curve" smooth="yes"/>
      <point x="414" y="550"/>
      <point x="413" y="543"/>
      <point x="411" y="536" type="curve"/>
      <point x="525" y="536" type="line"/>
      <point x="527" y="545"/>
      <point x="529" y="557"/>
      <point x="529" y="569" type="curve" smooth="yes"/>
      <point x="529" y="622"/>
      <point x="497" y="690"/>
      <point x="363" y="690" type="curve"/>
      <point x="217" y="690"/>
      <point x="123" y="603"/>
      <point x="123" y="516" type="curve"/>
      <point x="123" y="480"/>
      <point x="137" y="455"/>
      <point x="167" y="433" type="curve"/>
      <point x="84" y="398"/>
      <point x="46" y="345"/>
      <point x="46" y="282" type="curve"/>
      <point x="46" y="125"/>
      <point x="283" y="187"/>
      <point x="283" y="94" type="curve"/>
      <point x="283" y="62"/>
      <point x="247" y="40"/>
      <point x="194" y="40" type="curve"/>
      <point x="138" y="40"/>
      <point x="109" y="57"/>
      <point x="109" y="88" type="curve" smooth="yes"/>
      <point x="109" y="95"/>
      <point x="110" y="102"/>
      <point x="112" y="109" type="curve"/>
      <point x="-2" y="109" type="line"/>
      <point x="-4" y="100"/>
      <point x="-6" y="88"/>
      <point x="-6" y="76" type="curve" smooth="yes"/>
      <point x="-6" y="23"/>
      <point x="26" y="-45"/>
      <point x="162" y="-45" type="curve"/>
      <point x="318" y="-45"/>
      <point x="402" y="37"/>
    </contour>
    <contour>
      <point x="279" y="386" type="curve"/>
      <point x="329" y="386"/>
      <point x="358" y="368"/>
      <point x="358" y="334" type="curve"/>
      <point x="358" y="295"/>
      <point x="313" y="260"/>
      <point x="234" y="260" type="curve"/>
      <point x="187" y="260"/>
      <point x="158" y="277"/>
      <point x="158" y="311" type="curve"/>
      <point x="158" y="350"/>
      <point x="202" y="386"/>
    </contour>
  </outline>
</glyph>
<glyph name="dieresis" format="2">
  <advance width="500"/>
  <unicode hex="00A8"/>
  <anchor x="353" y="610" name="_top"/>
  <outline>
    <contour>
      <point x="268" y="860" type="line"/>
      <point x="234" y="740" type="line"/>
      <point x="348" y="740" type="line"/>
      <point x="382" y="860" type="line"/>
    </contour>
    <contour>
      <point x="468" y="860" type="line"/>
      <point x="434" y="740" type="line"/>
      <point x="548" y="740" type="line"/>
      <point x="582" y="860" type="line"/>
    </contour>
  </outline>
</glyph>
<glyph name="copyright" format="2">
  <advance width="820"/>
  <unicode hex="00A9"/>
  <outline>
    <contour>
      <point x="366" y="-10" type="curve" smooth="yes"/>
      <point x="606" y="-10"/>
      <point x="798" y="180"/>
      <point x="798" y="420" type="curve" smooth="yes"/>
      <point x="798" y="578"/>
      <point x="688" y="690"/>
      <point x="500" y="690" type="curve" smooth="yes"/>
      <point x="260" y="690"/>
      <point x="68" y="500"/>
      <point x="68" y="260" type="curve" smooth="yes"/>
      <point x="68" y="102"/>
      <point x="178" y="-10"/>
    </contour>
    <contour>
      <point x="385" y="74" type="curve" smooth="yes"/>
      <point x="245" y="74"/>
      <point x="162" y="148"/>
      <point x="162" y="282" type="curve" smooth="yes"/>
      <point x="162" y="458"/>
      <point x="310" y="606"/>
      <point x="482" y="606" type="curve" smooth="yes"/>
      <point x="622" y="606"/>
      <point x="705" y="532"/>
      <point x="705" y="398" type="curve" smooth="yes"/>
      <point x="705" y="222"/>
      <point x="557" y="74"/>
    </contour>
    <contour>
      <point x="498" y="307" type="line"/>
      <point x="475" y="250"/>
      <point x="438" y="228"/>
      <point x="400" y="228" type="curve" smooth="yes"/>
      <point x="362" y="228"/>
      <point x="342" y="249"/>
      <point x="342" y="290" type="curve" smooth="yes"/>
      <point x="342" y="368"/>
      <point x="399" y="452"/>
      <point x="467" y="452" type="curve" smooth="yes"/>
      <point x="494" y="452"/>
      <point x="515" y="438"/>
      <point x="515" y="399" type="curve" smooth="yes"/>
      <point x="515" y="390"/>
      <point x="514" y="378"/>
      <point x="512" y="369" type="curve"/>
      <point x="608" y="369" type="line"/>
      <point x="612" y="386"/>
      <point x="614" y="403"/>
      <point x="614" y="419" type="curve" smooth="yes"/>
      <point x="614" y="492"/>
      <point x="572" y="540"/>
      <point x="496" y="540" type="curve" smooth="yes"/>
      <point x="354" y="540"/>
      <point x="249" y="402"/>
      <point x="249" y="274" type="curve" smooth="yes"/>
      <point x="249" y="183"/>
      <point x="303" y="140"/>
      <point x="375" y="140" type="curve" smooth="yes"/>
      <point x="472" y="140"/>
      <point x="557" y="206"/>
      <point x="590" y="307" type="curve"/>
    </contour>
  </outline>
</glyph>
<glyph name="guillemotleft" format="2">
  <advance width="715"/>
  <unicode hex="00AB"/>
  <outline>
    <contour>
      <point x="718" y="487" type="line"/>
      <point x="372" y="301" type="line"/>
      <point x="343" y="199" type="line"/>
      <point x="582" y="13" type="line"/>
      <point x="613" y="121" type="line"/>
      <point x="464" y="242" type="line"/>
      <point x="682" y="363" type="line"/>
    </contour>
    <contour>
      <point x="418" y="487" type="line"/>
      <point x="72" y="301" type="line"/>
      <point x="43" y="199" type="line"/>
      <point x="282" y="13" type="line"/>
      <point x="313" y="121" type="line"/>
      <point x="164" y="242" type="line"/>
      <point x="382" y="363" type="line"/>
    </contour>
  </outline>
</glyph>
<glyph name="logicalnot" format="2">
  <advance width="688"/>
  <unicode hex="00AC"/>
  <outline>
    <contour>
      <point x="102" y="372" type="line"/>
      <point x="561" y="372" type="line"/>
      <point x="512" y="202" type="line"/>
      <point x="602" y="202" type="line"/>
      <point x="663" y="413" type="line"/>
      <point x="677" y="462" type="line"/>
      <point x="128" y="462" type="line"/>
    </contour>
  </outline>
</glyph>
<glyph name="registered" format="2">
  <advance width="820"/>
  <unicode hex="00AE"/>
  <anchor x="375" y="166" name="bottom"/>
  <anchor x="376" y="146" name="bottom"/>
  <anchor x="365" y="140" name="bottom"/>
  <outline>
    <contour>
      <point x="366" y="-10" type="curve" smooth="yes"/>
      <point x="606" y="-10"/>
      <point x="798" y="180"/>
      <point x="798" y="420" type="curve" smooth="yes"/>
      <point x="798" y="578"/>
      <point x="688" y="690"/>
      <point x="500" y="690" type="curve" smooth="yes"/>
      <point x="260" y="690"/>
      <point x="68" y="500"/>
      <point x="68" y="260" type="curve" smooth="yes"/>
      <point x="68" y="102"/>
      <point x="178" y="-10"/>
    </contour>
    <contour>
      <point x="385" y="74" type="curve" smooth="yes"/>
      <point x="245" y="74"/>
      <point x="162" y="148"/>
      <point x="162" y="282" type="curve" smooth="yes"/>
      <point x="162" y="458"/>
      <point x="310" y="606"/>
      <point x="482" y="606" type="curve" smooth="yes"/>
      <point x="622" y="606"/>
      <point x="705" y="532"/>
      <point x="705" y="398" type="curve" smooth="yes"/>
      <point x="705" y="222"/>
      <point x="557" y="74"/>
    </contour>
    <contour>
      <point x="236" y="140" type="line"/>
      <point x="326" y="140" type="line"/>
      <point x="373" y="303" type="line"/>
      <point x="403" y="303" type="line"/>
      <point x="437" y="303"/>
      <point x="444" y="286"/>
      <point x="440" y="248" type="curve" smooth="yes"/>
      <point x="436" y="213" type="line" smooth="yes"/>
      <point x="432" y="174"/>
      <point x="437" y="149"/>
      <point x="449" y="140" type="curve"/>
      <point x="562" y="140" type="line"/>
      <point x="542" y="158"/>
      <point x="534" y="186"/>
      <point x="534" y="217" type="curve" smooth="yes"/>
      <point x="534" y="268" type="line" smooth="yes"/>
      <point x="534" y="290"/>
      <point x="528" y="307"/>
      <point x="514" y="317" type="curve"/>
      <point x="572" y="340"/>
      <point x="618" y="387"/>
      <point x="618" y="452" type="curve"/>
      <point x="618" y="510"/>
      <point x="578" y="540"/>
      <point x="509" y="540" type="curve" smooth="yes"/>
      <point x="351" y="540" type="line"/>
    </contour>
    <contour>
      <point x="489" y="460" type="line" smooth="yes"/>
      <point x="509" y="460"/>
      <point x="520" y="449"/>
      <point x="520" y="433" type="curve" smooth="yes"/>
      <point x="520" y="402"/>
      <point x="499" y="384"/>
      <point x="467" y="384" type="curve" smooth="yes"/>
      <point x="396" y="384" type="line"/>
      <point x="418" y="460" type="line"/>
    </contour>
  </outline>
</glyph>
<glyph name="macron" format="2">
  <advance width="500"/>
  <unicode hex="00AF"/>
  <anchor x="177.99343115799468" y="778" name="_center"/>
  <anchor x="353" y="610" name="_top"/>
  <outline>
    <contour>
      <point x="225" y="748" type="line"/>
      <point x="561" y="748" type="line"/>
      <point x="585" y="833" type="line"/>
      <point x="249" y="833" type="line"/>
    </contour>
  </outline>
</glyph>
<glyph name="degree" format="2">
  <advance width="379"/>
  <unicode hex="00B0"/>
  <outline>
    <contour>
      <point x="101" y="489" type="curve" smooth="yes"/>
      <point x="101" y="421"/>
      <point x="150" y="372"/>
      <point x="228" y="372" type="curve" smooth="yes"/>
      <point x="346" y="372"/>
      <point x="435" y="470"/>
      <point x="435" y="574" type="curve" smooth="yes"/>
      <point x="435" y="642"/>
      <point x="386" y="690"/>
      <point x="308" y="690" type="curve" smooth="yes"/>
      <point x="190" y="690"/>
      <point x="101" y="593"/>
    </contour>
    <contour>
      <point x="252" y="456" type="curve" smooth="yes"/>
      <point x="217" y="456"/>
      <point x="197" y="482"/>
      <point x="197" y="513" type="curve" smooth="yes"/>
      <point x="197" y="561"/>
      <point x="235" y="606"/>
      <point x="284" y="606" type="curve" smooth="yes"/>
      <point x="320" y="606"/>
      <point x="339" y="579"/>
      <point x="339" y="549" type="curve" smooth="yes"/>
      <point x="339" y="498"/>
      <point x="300" y="456"/>
    </contour>
  </outline>
</glyph>
<glyph name="plusminus" format="2">
  <advance width="688"/>
  <unicode hex="00B1"/>
  <outline>
    <contour>
      <point x="-2" y="0" type="line"/>
      <point x="546" y="0" type="line"/>
      <point x="575" y="100" type="line"/>
      <point x="351" y="100" type="line"/>
      <point x="402" y="280" type="line"/>
      <point x="626" y="280" type="line"/>
      <point x="655" y="380" type="line"/>
      <point x="431" y="380" type="line"/>
      <point x="495" y="604" type="line"/>
      <point x="395" y="604" type="line"/>
      <point x="331" y="380" type="line"/>
      <point x="107" y="380" type="line"/>
      <point x="78" y="280" type="line"/>
      <point x="302" y="280" type="line"/>
      <point x="251" y="100" type="line"/>
      <point x="27" y="100" type="line"/>
    </contour>
  </outline>
</glyph>
<glyph name="twosuperior" format="2">
  <advance width="420"/>
  <unicode hex="00B2"/>
  <outline>
    <contour>
      <point x="69" y="290" type="line"/>
      <point x="371" y="290" type="line"/>
      <point x="396" y="378" type="line"/>
      <point x="238" y="378" type="line"/>
      <point x="313" y="420" type="line" smooth="yes"/>
      <point x="395" y="466"/>
      <point x="449" y="512"/>
      <point x="449" y="588" type="curve" smooth="yes"/>
      <point x="449" y="650"/>
      <point x="406" y="690"/>
      <point x="330" y="690" type="curve" smooth="yes"/>
      <point x="236" y="690"/>
      <point x="155" y="632"/>
      <point x="140" y="532" type="curve"/>
      <point x="228" y="532" type="line"/>
      <point x="239" y="584"/>
      <point x="269" y="610"/>
      <point x="309" y="610" type="curve" smooth="yes"/>
      <point x="339" y="610"/>
      <point x="356" y="597"/>
      <point x="356" y="572" type="curve" smooth="yes"/>
      <point x="356" y="536"/>
      <point x="328" y="507"/>
      <point x="252" y="462" type="curve" smooth="yes"/>
      <point x="91" y="365" type="line"/>
    </contour>
  </outline>
</glyph>
<glyph name="threesuperior" format="2">
  <advance width="420"/>
  <unicode hex="00B3"/>
  <outline>
    <contour>
      <point x="247" y="525" type="line"/>
      <point x="230" y="467" type="line"/>
      <point x="266" y="467" type="line" smooth="yes"/>
      <point x="300" y="467"/>
      <point x="315" y="454"/>
      <point x="315" y="431" type="curve" smooth="yes"/>
      <point x="315" y="394"/>
      <point x="281" y="362"/>
      <point x="232" y="362" type="curve" smooth="yes"/>
      <point x="194" y="362"/>
      <point x="177" y="380"/>
      <point x="177" y="404" type="curve" smooth="yes"/>
      <point x="177" y="412"/>
      <point x="179" y="419"/>
      <point x="181" y="426" type="curve"/>
      <point x="94" y="426" type="line"/>
      <point x="89" y="411"/>
      <point x="86" y="396"/>
      <point x="86" y="382" type="curve" smooth="yes"/>
      <point x="86" y="326"/>
      <point x="133" y="282"/>
      <point x="222" y="282" type="curve" smooth="yes"/>
      <point x="326" y="282"/>
      <point x="410" y="342"/>
      <point x="410" y="426" type="curve"/>
      <point x="410" y="459"/>
      <point x="396" y="484"/>
      <point x="369" y="499" type="curve"/>
      <point x="425" y="522"/>
      <point x="450" y="564"/>
      <point x="450" y="607" type="curve" smooth="yes"/>
      <point x="450" y="653"/>
      <point x="414" y="690"/>
      <point x="332" y="690" type="curve"/>
      <point x="227" y="690"/>
      <point x="150" y="620"/>
      <point x="138" y="555" type="curve"/>
      <point x="224" y="555" type="line"/>
      <point x="234" y="586"/>
      <point x="263" y="609"/>
      <point x="305" y="609" type="curve" smooth="yes"/>
      <point x="337" y="609"/>
      <point x="352" y="596"/>
      <point x="352" y="577" type="curve" smooth="yes"/>
      <point x="352" y="553"/>
      <point x="328" y="525"/>
      <point x="283" y="525" type="curve" smooth="yes"/>
    </contour>
  </outline>
</glyph>
<glyph name="acute" format="2">
  <advance width="500"/>
  <unicode hex="00B4"/>
  <anchor x="353" y="610" name="_top"/>
  <outline>
    <contour>
      <point x="393" y="870" type="line"/>
      <point x="323" y="730" type="line"/>
      <point x="431" y="730" type="line"/>
      <point x="585" y="870" type="line"/>
    </contour>
  </outline>
</glyph>
<glyph name="mu.math" format="2">
  <advance width="520"/>
  <unicode hex="00B5"/>
  <anchor x="417" y="560" name="top"/>
  <anchor x="490" y="0" name="right"/>
  <anchor x="247" y="-30" name="bottom"/>
  <outline>
    <contour>
      <point x="150" y="500" type="line"/>
      <point x="-51" y="-200" type="line"/>
      <point x="39" y="-200" type="line"/>
      <point x="98" y="6" type="line"/>
      <point x="114" y="-4"/>
      <point x="135" y="-10"/>
      <point x="163" y="-10" type="curve" smooth="yes"/>
      <point x="212" y="-10"/>
      <point x="250" y="2"/>
      <point x="284" y="29" type="curve"/>
      <point x="276" y="0" type="line"/>
      <point x="366" y="0" type="line"/>
      <point x="509" y="500" type="line"/>
      <point x="419" y="500" type="line"/>
      <point x="319" y="151" type="line" smooth="yes"/>
      <point x="303" y="96"/>
      <point x="263" y="70"/>
      <point x="206" y="70" type="curve" smooth="yes"/>
      <point x="150" y="70"/>
      <point x="127" y="98"/>
      <point x="139" y="147" type="curve" smooth="yes"/>
      <point x="240" y="500" type="line"/>
    </contour>
  </outline>
</glyph>
<glyph name="paragraph" format="2">
  <advance width="500"/>
  <unicode hex="00B6"/>
  <outline>
    <contour>
      <point x="206" y="0" type="line"/>
      <point x="401" y="680" type="line"/>
      <point x="301" y="680" type="line"/>
      <point x="170" y="680"/>
      <point x="74" y="584"/>
      <point x="74" y="466" type="curve" smooth="yes"/>
      <point x="74" y="397"/>
      <point x="118" y="340"/>
      <point x="193" y="340" type="curve"/>
      <point x="214" y="340" type="line"/>
      <point x="116" y="0" type="line"/>
    </contour>
    <contour>
      <point x="376" y="0" type="line"/>
      <point x="571" y="680" type="line"/>
      <point x="481" y="680" type="line"/>
      <point x="286" y="0" type="line"/>
    </contour>
  </outline>
</glyph>
<glyph name="periodcentered" format="2">
  <advance width="500"/>
  <unicode hex="00B7"/>
  <anchor x="177.99343115799468" y="444" name="_center"/>
  <outline>
    <contour>
      <point x="209" y="310" type="line"/>
      <point x="175" y="190" type="line"/>
      <point x="289" y="190" type="line"/>
      <point x="323" y="310" type="line"/>
    </contour>
  </outline>
</glyph>
<glyph name="cedilla" format="2">
  <advance width="500"/>
  <unicode hex="00B8"/>
  <anchor x="178" y="0" name="_bottom"/>
  <outline>
    <contour>
      <point x="78" y="-157" type="line"/>
      <point x="95" y="-139"/>
      <point x="119" y="-122"/>
      <point x="153" y="-122" type="curve" smooth="yes"/>
      <point x="181" y="-122"/>
      <point x="197" y="-136"/>
      <point x="197" y="-158" type="curve" smooth="yes"/>
      <point x="197" y="-192"/>
      <point x="166" y="-224"/>
      <point x="116" y="-224" type="curve"/>
      <point x="92" y="-224"/>
      <point x="79" y="-214"/>
      <point x="79" y="-197" type="curve"/>
      <point x="79" y="-192"/>
      <point x="80" y="-187"/>
      <point x="82" y="-182" type="curve"/>
      <point x="-2" y="-182" type="line"/>
      <point x="-7" y="-195"/>
      <point x="-9" y="-206"/>
      <point x="-9" y="-217" type="curve" smooth="yes"/>
      <point x="-9" y="-269"/>
      <point x="39" y="-298"/>
      <point x="103" y="-298" type="curve"/>
      <point x="208" y="-298"/>
      <point x="287" y="-231"/>
      <point x="287" y="-139" type="curve" smooth="yes"/>
      <point x="287" y="-84"/>
      <point x="247" y="-55"/>
      <point x="191" y="-55" type="curve" smooth="yes"/>
      <point x="182" y="-55"/>
      <point x="174" y="-56"/>
      <point x="166" y="-58" type="curve"/>
      <point x="229" y="4" type="line"/>
      <point x="154" y="8" type="line"/>
      <point x="27" y="-136" type="line"/>
    </contour>
  </outline>
</glyph>
<glyph name="onesuperior" format="2">
  <advance width="420"/>
  <unicode hex="00B9"/>
  <outline>
    <contour>
      <point x="101" y="290" type="line"/>
      <point x="364" y="290" type="line"/>
      <point x="385" y="362" type="line"/>
      <point x="299" y="362" type="line"/>
      <point x="390" y="680" type="line"/>
      <point x="324" y="680" type="line"/>
      <point x="307" y="638"/>
      <point x="289" y="610"/>
      <point x="191" y="610" type="curve"/>
      <point x="174" y="550" type="line"/>
      <point x="268" y="550" type="line"/>
      <point x="214" y="362" type="line"/>
      <point x="122" y="362" type="line"/>
    </contour>
  </outline>
</glyph>
<glyph name="ordmasculine" format="2">
  <advance width="497"/>
  <unicode hex="00BA"/>
  <outline>
    <contour>
      <point x="105" y="423" type="curve" smooth="yes"/>
      <point x="105" y="340"/>
      <point x="154" y="280"/>
      <point x="254" y="280" type="curve" smooth="yes"/>
      <point x="414" y="280"/>
      <point x="523" y="423"/>
      <point x="523" y="548" type="curve" smooth="yes"/>
      <point x="523" y="631"/>
      <point x="472" y="691"/>
      <point x="372" y="691" type="curve" smooth="yes"/>
      <point x="212" y="691"/>
      <point x="105" y="548"/>
    </contour>
    <contour>
      <point x="277" y="368" type="curve" smooth="yes"/>
      <point x="227" y="368"/>
      <point x="199" y="396"/>
      <point x="199" y="443" type="curve" smooth="yes"/>
      <point x="199" y="530"/>
      <point x="271" y="603"/>
      <point x="351" y="603" type="curve" smooth="yes"/>
      <point x="401" y="603"/>
      <point x="428" y="575"/>
      <point x="428" y="528" type="curve" smooth="yes"/>
      <point x="428" y="441"/>
      <point x="357" y="368"/>
    </contour>
  </outline>
</glyph>
<glyph name="guillemotright" format="2">
  <advance width="715"/>
  <unicode hex="00BB"/>
  <outline>
    <contour>
      <point x="-4" y="13" type="line"/>
      <point x="342" y="199" type="line"/>
      <point x="371" y="301" type="line"/>
      <point x="132" y="487" type="line"/>
      <point x="101" y="379" type="line"/>
      <point x="250" y="258" type="line"/>
      <point x="32" y="137" type="line"/>
    </contour>
    <contour>
      <point x="296" y="13" type="line"/>
      <point x="642" y="199" type="line"/>
      <point x="671" y="301" type="line"/>
      <point x="432" y="487" type="line"/>
      <point x="401" y="379" type="line"/>
      <point x="550" y="258" type="line"/>
      <point x="332" y="137" type="line"/>
    </contour>
  </outline>
</glyph>
<glyph name="questiondown" format="2">
  <advance width="499"/>
  <unicode hex="00BF"/>
  <outline>
    <contour>
      <point x="345" y="360" type="line"/>
      <point x="385" y="500" type="line"/>
      <point x="245" y="500" type="line"/>
      <point x="205" y="360" type="line"/>
    </contour>
    <contour>
      <point x="329" y="284" type="line"/>
      <point x="186" y="284" type="line"/>
      <point x="185" y="268" type="line" smooth="yes"/>
      <point x="178" y="151"/>
      <point x="-49" y="128"/>
      <point x="-49" y="-49" type="curve" smooth="yes"/>
      <point x="-49" y="-134"/>
      <point x="19" y="-190"/>
      <point x="141" y="-190" type="curve" smooth="yes"/>
      <point x="278" y="-190"/>
      <point x="386" y="-122"/>
      <point x="427" y="19" type="curve"/>
      <point x="299" y="48" type="line"/>
      <point x="288" y="-35"/>
      <point x="237" y="-78"/>
      <point x="173" y="-78" type="curve" smooth="yes"/>
      <point x="126" y="-78"/>
      <point x="102" y="-53"/>
      <point x="102" y="-16" type="curve"/>
      <point x="102" y="106"/>
      <point x="276" y="98"/>
      <point x="325" y="270" type="curve" smooth="yes"/>
    </contour>
  </outline>
</glyph>
<glyph name="AE" format="2">
  <advance width="686"/>
  <unicode hex="00C6"/>
  <outline>
    <contour>
      <point x="242" y="0" type="line"/>
      <point x="558" y="0" type="line"/>
      <point x="590" y="113" type="line"/>
      <point x="393" y="113" type="line"/>
      <point x="451" y="315" type="line"/>
      <point x="632" y="315" type="line"/>
      <point x="665" y="428" type="line"/>
      <point x="484" y="428" type="line"/>
      <point x="524" y="567" type="line"/>
      <point x="721" y="567" type="line"/>
      <point x="753" y="680" type="line"/>
      <point x="358" y="680" type="line"/>
      <point x="-88" y="0" type="line"/>
      <point x="48" y="0" type="line"/>
      <point x="137" y="137" type="line"/>
      <point x="281" y="137" type="line"/>
    </contour>
    <contour>
      <point x="208" y="247" type="line"/>
      <point x="396" y="538" type="line"/>
      <point x="313" y="247" type="line"/>
    </contour>
  </outline>
</glyph>
<glyph name="Ccedilla" format="2">
  <advance width="683"/>
  <unicode hex="00C7"/>
  <outline>
    <contour>
      <point x="169" y="-157" type="line"/>
      <point x="186" y="-139"/>
      <point x="210" y="-122"/>
      <point x="244" y="-122" type="curve" smooth="yes"/>
      <point x="272" y="-122"/>
      <point x="288" y="-136"/>
      <point x="288" y="-158" type="curve" smooth="yes"/>
      <point x="288" y="-192"/>
      <point x="257" y="-224"/>
      <point x="207" y="-224" type="curve"/>
      <point x="183" y="-224"/>
      <point x="170" y="-214"/>
      <point x="170" y="-197" type="curve"/>
      <point x="170" y="-192"/>
      <point x="171" y="-187"/>
      <point x="173" y="-182" type="curve"/>
      <point x="89" y="-182" type="line"/>
      <point x="84" y="-195"/>
      <point x="82" y="-206"/>
      <point x="82" y="-217" type="curve" smooth="yes"/>
      <point x="82" y="-269"/>
      <point x="130" y="-298"/>
      <point x="194" y="-298" type="curve"/>
      <point x="299" y="-298"/>
      <point x="378" y="-231"/>
      <point x="378" y="-139" type="curve" smooth="yes"/>
      <point x="378" y="-84"/>
      <point x="338" y="-55"/>
      <point x="282" y="-55" type="curve" smooth="yes"/>
      <point x="273" y="-55"/>
      <point x="265" y="-56"/>
      <point x="257" y="-58" type="curve"/>
      <point x="307" y="-9" type="line"/>
      <point x="465" y="1"/>
      <point x="607" y="105"/>
      <point x="653" y="282" type="curve"/>
      <point x="528" y="282" type="line"/>
      <point x="467" y="172"/>
      <point x="405" y="109"/>
      <point x="307" y="109" type="curve"/>
      <point x="231" y="109"/>
      <point x="185" y="160"/>
      <point x="185" y="246" type="curve" smooth="yes"/>
      <point x="185" y="390"/>
      <point x="294" y="571"/>
      <point x="444" y="571" type="curve"/>
      <point x="520" y="571"/>
      <point x="561" y="526"/>
      <point x="561" y="452" type="curve" smooth="yes"/>
      <point x="561" y="430"/>
      <point x="556" y="408"/>
      <point x="550" y="391" type="curve"/>
      <point x="684" y="391" type="line"/>
      <point x="693" y="408"/>
      <point x="702" y="440"/>
      <point x="702" y="474" type="curve" smooth="yes"/>
      <point x="702" y="609"/>
      <point x="620" y="690"/>
      <point x="477" y="690" type="curve" smooth="yes"/>
      <point x="244" y="690"/>
      <point x="57" y="434"/>
      <point x="57" y="218" type="curve"/>
      <point x="57" y="92"/>
      <point x="123" y="12"/>
      <point x="232" y="-6" type="curve"/>
      <point x="118" y="-136" type="line"/>
    </contour>
  </outline>
</glyph>
<glyph name="Eth" format="2">
  <advance width="681"/>
  <unicode hex="00D0"/>
  <outline>
    <contour>
      <point x="14" y="0" type="line"/>
      <point x="202" y="0" type="line" smooth="yes"/>
      <point x="475" y="0"/>
      <point x="671" y="194"/>
      <point x="671" y="444" type="curve"/>
      <point x="671" y="587"/>
      <point x="585" y="680"/>
      <point x="432" y="680" type="curve" smooth="yes"/>
      <point x="209" y="680" type="line"/>
      <point x="128" y="396" type="line"/>
      <point x="40" y="396" type="line"/>
      <point x="9" y="287" type="line"/>
      <point x="96" y="287" type="line"/>
    </contour>
    <contour>
      <point x="232" y="113" type="curve" smooth="yes"/>
      <point x="165" y="113" type="line"/>
      <point x="215" y="287" type="line"/>
      <point x="334" y="287" type="line"/>
      <point x="365" y="396" type="line"/>
      <point x="247" y="396" type="line"/>
      <point x="296" y="567" type="line"/>
      <point x="393" y="567" type="line" smooth="yes"/>
      <point x="494" y="567"/>
      <point x="544" y="520"/>
      <point x="544" y="428" type="curve" smooth="yes"/>
      <point x="544" y="254"/>
      <point x="415" y="113"/>
    </contour>
  </outline>
</glyph>
<glyph name="multiply" format="2">
  <advance width="688"/>
  <unicode hex="00D7"/>
  <outline>
    <contour>
      <point x="185" y="487" type="line"/>
      <point x="291" y="338" type="line"/>
      <point x="89" y="181" type="line"/>
      <point x="149" y="97" type="line"/>
      <point x="351" y="254" type="line"/>
      <point x="461" y="100" type="line"/>
      <point x="554" y="172" type="line"/>
      <point x="444" y="326" type="line"/>
      <point x="647" y="484" type="line"/>
      <point x="587" y="568" type="line"/>
      <point x="384" y="410" type="line"/>
      <point x="278" y="559" type="line"/>
    </contour>
  </outline>
</glyph>
<glyph name="Oslash" format="2">
  <advance width="705"/>
  <unicode hex="00D8"/>
  <outline>
    <contour>
      <point x="-26" y="-10" type="line"/>
      <point x="96" y="77" type="line"/>
      <point x="136" y="21"/>
      <point x="202" y="-10"/>
      <point x="287" y="-10" type="curve"/>
      <point x="525" y="-10"/>
      <point x="697" y="246"/>
      <point x="697" y="462" type="curve" smooth="yes"/>
      <point x="697" y="475"/>
      <point x="696" y="488"/>
      <point x="695" y="500" type="curve"/>
      <point x="729" y="524" type="line"/>
      <point x="777" y="690" type="line"/>
      <point x="656" y="604" type="line"/>
      <point x="617" y="659"/>
      <point x="551" y="690"/>
      <point x="466" y="690" type="curve"/>
      <point x="228" y="690"/>
      <point x="56" y="434"/>
      <point x="56" y="218" type="curve" smooth="yes"/>
      <point x="56" y="205"/>
      <point x="57" y="193"/>
      <point x="58" y="182" type="curve"/>
      <point x="22" y="156" type="line"/>
    </contour>
    <contour>
      <point x="443" y="571" type="curve" smooth="yes"/>
      <point x="488" y="571"/>
      <point x="523" y="555"/>
      <point x="544" y="525" type="curve"/>
      <point x="185" y="271" type="line"/>
      <point x="197" y="410"/>
      <point x="301" y="571"/>
    </contour>
    <contour>
      <point x="310" y="109" type="curve" smooth="yes"/>
      <point x="264" y="109"/>
      <point x="229" y="125"/>
      <point x="208" y="156" type="curve"/>
      <point x="568" y="410" type="line"/>
      <point x="557" y="271"/>
      <point x="452" y="109"/>
    </contour>
  </outline>
</glyph>
<glyph name="Thorn" format="2">
  <advance width="557"/>
  <unicode hex="00DE"/>
  <outline>
    <contour>
      <point x="14" y="0" type="line"/>
      <point x="141" y="0" type="line"/>
      <point x="139" y="17"/>
      <point x="143" y="34"/>
      <point x="150" y="58" type="curve" smooth="yes"/>
      <point x="181" y="166" type="line"/>
      <point x="267" y="166" type="line"/>
      <point x="443" y="166"/>
      <point x="569" y="271"/>
      <point x="569" y="421" type="curve" smooth="yes"/>
      <point x="569" y="502"/>
      <point x="520" y="565"/>
      <point x="413" y="565" type="curve" smooth="yes"/>
      <point x="295" y="565" type="line"/>
      <point x="328" y="680" type="line"/>
      <point x="209" y="680" type="line"/>
    </contour>
    <contour>
      <point x="365" y="452" type="line" smooth="yes"/>
      <point x="412" y="452"/>
      <point x="438" y="429"/>
      <point x="438" y="389" type="curve" smooth="yes"/>
      <point x="438" y="329"/>
      <point x="393" y="279"/>
      <point x="312" y="279" type="curve" smooth="yes"/>
      <point x="213" y="279" type="line"/>
      <point x="263" y="452" type="line"/>
    </contour>
  </outline>
</glyph>
<glyph name="germandbls" format="2">
  <advance width="518"/>
  <unicode hex="00DF"/>
  <outline>
    <contour>
      <point x="262" y="314" type="line"/>
      <point x="267" y="315"/>
      <point x="278" y="316"/>
      <point x="285" y="316" type="curve" smooth="yes"/>
      <point x="336" y="316"/>
      <point x="369" y="291"/>
      <point x="369" y="244" type="curve" smooth="yes"/>
      <point x="369" y="170"/>
      <point x="315" y="100"/>
      <point x="239" y="100" type="curve" smooth="yes"/>
      <point x="209" y="100"/>
      <point x="180" y="110"/>
      <point x="168" y="122" type="curve"/>
      <point x="136" y="12" type="line"/>
      <point x="150" y="0"/>
      <point x="181" y="-10"/>
      <point x="221" y="-10" type="curve" smooth="yes"/>
      <point x="370" y="-10"/>
      <point x="481" y="108"/>
      <point x="481" y="256" type="curve"/>
      <point x="481" y="316"/>
      <point x="460" y="364"/>
      <point x="417" y="393" type="curve"/>
      <point x="473" y="430"/>
      <point x="513" y="484"/>
      <point x="513" y="560" type="curve" smooth="yes"/>
      <point x="513" y="634"/>
      <point x="456" y="690"/>
      <point x="360" y="690" type="curve" smooth="yes"/>
      <point x="242" y="690"/>
      <point x="161" y="616"/>
      <point x="125" y="490" type="curve" smooth="yes"/>
      <point x="-14" y="0" type="line"/>
      <point x="96" y="0" type="line"/>
      <point x="232" y="480" type="line" smooth="yes"/>
      <point x="248" y="537"/>
      <point x="290" y="578"/>
      <point x="338" y="578" type="curve" smooth="yes"/>
      <point x="376" y="578"/>
      <point x="396" y="560"/>
      <point x="396" y="529" type="curve" smooth="yes"/>
      <point x="396" y="482"/>
      <point x="358" y="424"/>
      <point x="294" y="424" type="curve"/>
      <point x="267" y="332" type="line"/>
    </contour>
  </outline>
</glyph>
<glyph name="ae" format="2">
  <advance width="781"/>
  <unicode hex="00E6"/>
  <outline>
    <contour>
      <point x="728" y="180" type="curve"/>
      <point x="618" y="180" type="line"/>
      <point x="589" y="132"/>
      <point x="553" y="82"/>
      <point x="492" y="82" type="curve" smooth="yes"/>
      <point x="448" y="82"/>
      <point x="420" y="108"/>
      <point x="420" y="166" type="curve" smooth="yes"/>
      <point x="420" y="190"/>
      <point x="423" y="214"/>
      <point x="428" y="238" type="curve"/>
      <point x="743" y="238" type="line"/>
      <point x="754" y="278"/>
      <point x="761" y="322"/>
      <point x="761" y="360" type="curve" smooth="yes"/>
      <point x="761" y="447"/>
      <point x="723" y="510"/>
      <point x="619" y="510" type="curve" smooth="yes"/>
      <point x="556" y="510"/>
      <point x="499" y="484"/>
      <point x="453" y="443" type="curve"/>
      <point x="429" y="486"/>
      <point x="375" y="510"/>
      <point x="307" y="510" type="curve" smooth="yes"/>
      <point x="185" y="510"/>
      <point x="91" y="446"/>
      <point x="62" y="340" type="curve"/>
      <point x="184" y="340" type="line"/>
      <point x="197" y="392"/>
      <point x="239" y="421"/>
      <point x="288" y="421" type="curve" smooth="yes"/>
      <point x="342" y="421"/>
      <point x="371" y="390"/>
      <point x="358" y="340" type="curve" smooth="yes"/>
      <point x="353" y="321" type="line"/>
      <point x="264" y="321" type="line" smooth="yes"/>
      <point x="113" y="321"/>
      <point x="0" y="231"/>
      <point x="0" y="122" type="curve" smooth="yes"/>
      <point x="0" y="46"/>
      <point x="54" y="-10"/>
      <point x="145" y="-10" type="curve" smooth="yes"/>
      <point x="214" y="-10"/>
      <point x="276" y="15"/>
      <point x="336" y="73" type="curve"/>
      <point x="359" y="23"/>
      <point x="406" y="-10"/>
      <point x="476" y="-10" type="curve" smooth="yes"/>
      <point x="603" y="-10"/>
      <point x="692" y="72"/>
    </contour>
    <contour>
      <point x="585" y="420" type="curve" smooth="yes"/>
      <point x="644" y="420"/>
      <point x="661" y="376"/>
      <point x="649" y="322" type="curve"/>
      <point x="458" y="322" type="line"/>
      <point x="489" y="379"/>
      <point x="534" y="420"/>
    </contour>
    <contour>
      <point x="330" y="240" type="curve"/>
      <point x="313" y="178" type="line" smooth="yes"/>
      <point x="300" y="132"/>
      <point x="255" y="81"/>
      <point x="186" y="81" type="curve" smooth="yes"/>
      <point x="145" y="81"/>
      <point x="123" y="102"/>
      <point x="123" y="134" type="curve" smooth="yes"/>
      <point x="123" y="175"/>
      <point x="151" y="240"/>
    </contour>
  </outline>
</glyph>
<glyph name="ccedilla" format="2">
  <advance width="541"/>
  <unicode hex="00E7"/>
  <outline>
    <contour>
      <point x="29" y="168" type="curve" smooth="yes"/>
      <point x="29" y="80"/>
      <point x="73" y="10"/>
      <point x="164" y="-6" type="curve"/>
      <point x="50" y="-136" type="line"/>
      <point x="101" y="-157" type="line"/>
      <point x="118" y="-139"/>
      <point x="142" y="-122"/>
      <point x="176" y="-122" type="curve" smooth="yes"/>
      <point x="204" y="-122"/>
      <point x="220" y="-136"/>
      <point x="220" y="-158" type="curve" smooth="yes"/>
      <point x="220" y="-192"/>
      <point x="189" y="-224"/>
      <point x="139" y="-224" type="curve"/>
      <point x="115" y="-224"/>
      <point x="102" y="-214"/>
      <point x="102" y="-197" type="curve"/>
      <point x="102" y="-192"/>
      <point x="103" y="-187"/>
      <point x="105" y="-182" type="curve"/>
      <point x="21" y="-182" type="line"/>
      <point x="16" y="-195"/>
      <point x="14" y="-206"/>
      <point x="14" y="-217" type="curve" smooth="yes"/>
      <point x="14" y="-269"/>
      <point x="62" y="-298"/>
      <point x="126" y="-298" type="curve"/>
      <point x="231" y="-298"/>
      <point x="310" y="-231"/>
      <point x="310" y="-139" type="curve" smooth="yes"/>
      <point x="310" y="-84"/>
      <point x="270" y="-55"/>
      <point x="214" y="-55" type="curve" smooth="yes"/>
      <point x="205" y="-55"/>
      <point x="197" y="-56"/>
      <point x="189" y="-58" type="curve"/>
      <point x="240" y="-8" type="line"/>
      <point x="370" y="8"/>
      <point x="464" y="115"/>
      <point x="488" y="200" type="curve"/>
      <point x="384" y="200" type="line"/>
      <point x="351" y="154"/>
      <point x="310" y="100"/>
      <point x="234" y="100" type="curve" smooth="yes"/>
      <point x="181" y="100"/>
      <point x="143" y="127"/>
      <point x="143" y="191" type="curve" smooth="yes"/>
      <point x="143" y="294"/>
      <point x="228" y="400"/>
      <point x="324" y="400" type="curve"/>
      <point x="380" y="400"/>
      <point x="402" y="365"/>
      <point x="402" y="316" type="curve" smooth="yes"/>
      <point x="402" y="307"/>
      <point x="401" y="299"/>
      <point x="400" y="290" type="curve"/>
      <point x="516" y="290" type="line"/>
      <point x="518" y="301"/>
      <point x="520" y="315"/>
      <point x="520" y="330" type="curve" smooth="yes"/>
      <point x="520" y="404"/>
      <point x="504" y="510"/>
      <point x="359" y="510" type="curve"/>
      <point x="170" y="510"/>
      <point x="29" y="335"/>
    </contour>
  </outline>
</glyph>
<glyph name="eth" format="2">
  <advance width="545"/>
  <unicode hex="00F0"/>
  <outline>
    <contour>
      <point x="17" y="164" type="curve"/>
      <point x="17" y="65"/>
      <point x="72" y="-10"/>
      <point x="190" y="-10" type="curve"/>
      <point x="399" y="-10"/>
      <point x="536" y="153"/>
      <point x="536" y="365" type="curve"/>
      <point x="536" y="427"/>
      <point x="527" y="491"/>
      <point x="510" y="552" type="curve"/>
      <point x="613" y="573" type="line"/>
      <point x="630" y="631" type="line"/>
      <point x="494" y="603" type="line"/>
      <point x="485" y="630"/>
      <point x="474" y="656"/>
      <point x="462" y="680" type="curve"/>
      <point x="336" y="680" type="line"/>
      <point x="353" y="648"/>
      <point x="369" y="615"/>
      <point x="383" y="581" type="curve"/>
      <point x="272" y="558" type="line"/>
      <point x="255" y="500" type="line"/>
      <point x="401" y="530" type="line"/>
      <point x="410" y="503"/>
      <point x="417" y="475"/>
      <point x="422" y="445" type="curve"/>
      <point x="400" y="455"/>
      <point x="372" y="460"/>
      <point x="343" y="460" type="curve"/>
      <point x="163" y="460"/>
      <point x="17" y="324"/>
    </contour>
    <contour>
      <point x="224" y="100" type="curve"/>
      <point x="163" y="100"/>
      <point x="131" y="132"/>
      <point x="131" y="185" type="curve" smooth="yes"/>
      <point x="131" y="270"/>
      <point x="208" y="350"/>
      <point x="311" y="350" type="curve"/>
      <point x="373" y="350"/>
      <point x="404" y="314"/>
      <point x="404" y="265" type="curve"/>
      <point x="404" y="172"/>
      <point x="322" y="100"/>
    </contour>
  </outline>
</glyph>
<glyph name="divide" format="2">
  <advance width="688"/>
  <unicode hex="00F7"/>
  <outline>
    <contour>
      <point x="382" y="601" type="line"/>
      <point x="342" y="461" type="line"/>
      <point x="482" y="461" type="line"/>
      <point x="522" y="601" type="line"/>
    </contour>
    <contour>
      <point x="75" y="277" type="line"/>
      <point x="626" y="287" type="line"/>
      <point x="655" y="387" type="line"/>
      <point x="104" y="377" type="line"/>
    </contour>
    <contour>
      <point x="248" y="202" type="line"/>
      <point x="208" y="62" type="line"/>
      <point x="348" y="62" type="line"/>
      <point x="388" y="202" type="line"/>
    </contour>
  </outline>
</glyph>
<glyph name="oslash" format="2">
  <advance width="560"/>
  <unicode hex="00F8"/>
  <outline>
    <contour>
      <point x="-77" y="-10" type="line"/>
      <point x="57" y="67" type="line"/>
      <point x="87" y="20"/>
      <point x="140" y="-10"/>
      <point x="210" y="-10" type="curve"/>
      <point x="402" y="-10"/>
      <point x="534" y="156"/>
      <point x="534" y="332" type="curve" smooth="yes"/>
      <point x="534" y="340" type="line"/>
      <point x="593" y="374" type="line"/>
      <point x="632" y="510" type="line"/>
      <point x="506" y="438" type="line"/>
      <point x="477" y="482"/>
      <point x="427" y="510"/>
      <point x="354" y="510" type="curve" smooth="yes"/>
      <point x="172" y="510"/>
      <point x="30" y="344"/>
      <point x="30" y="168" type="curve" smooth="yes"/>
      <point x="30" y="165" type="line"/>
      <point x="-38" y="126" type="line"/>
    </contour>
    <contour>
      <point x="324" y="400" type="curve" smooth="yes"/>
      <point x="354" y="400"/>
      <point x="379" y="391"/>
      <point x="395" y="374" type="curve"/>
      <point x="147" y="232" type="line"/>
      <point x="161" y="326"/>
      <point x="236" y="400"/>
    </contour>
    <contour>
      <point x="240" y="100" type="curve" smooth="yes"/>
      <point x="208" y="100"/>
      <point x="182" y="110"/>
      <point x="166" y="129" type="curve"/>
      <point x="418" y="274" type="line"/>
      <point x="405" y="177"/>
      <point x="328" y="100"/>
    </contour>
  </outline>
</glyph>
<glyph name="thorn" format="2">
  <advance width="572"/>
  <unicode hex="00FE"/>
  <outline>
    <contour>
      <point x="181" y="680" type="line"/>
      <point x="-56" y="-180" type="line" smooth="yes"/>
      <point x="54" y="-180" type="line"/>
      <point x="110" y="24" type="line"/>
      <point x="128" y="8"/>
      <point x="165" y="-10"/>
      <point x="223" y="-10" type="curve"/>
      <point x="403" y="-10"/>
      <point x="545" y="160"/>
      <point x="545" y="324" type="curve"/>
      <point x="545" y="434"/>
      <point x="479" y="510"/>
      <point x="368" y="510" type="curve"/>
      <point x="306" y="510"/>
      <point x="249" y="480"/>
      <point x="224" y="456" type="curve"/>
      <point x="287" y="680" type="line"/>
    </contour>
    <contour>
      <point x="333" y="400" type="curve"/>
      <point x="393" y="400"/>
      <point x="431" y="364"/>
      <point x="431" y="302" type="curve" smooth="yes"/>
      <point x="431" y="192"/>
      <point x="351" y="100"/>
      <point x="253" y="100" type="curve"/>
      <point x="193" y="100"/>
      <point x="155" y="136"/>
      <point x="155" y="198" type="curve" smooth="yes"/>
      <point x="155" y="308"/>
      <point x="237" y="400"/>
    </contour>
  </outline>
</glyph>
<glyph name="Aogonek" format="2">
  <advance width="643"/>
  <unicode hex="0104"/>
  <outline>
    <contour>
      <point x="536" y="-166" type="curve"/>
      <point x="554" y="-81" type="line"/>
      <point x="536" y="-96"/>
      <point x="520" y="-104"/>
      <point x="502" y="-104" type="curve" smooth="yes"/>
      <point x="488" y="-104"/>
      <point x="483" y="-96"/>
      <point x="483" y="-85" type="curve" smooth="yes"/>
      <point x="483" y="-59"/>
      <point x="513" y="-6"/>
      <point x="558" y="0" type="curve"/>
      <point x="574" y="0" type="line"/>
      <point x="509" y="680" type="line"/>
      <point x="407" y="680" type="line"/>
      <point x="-48" y="0" type="line"/>
      <point x="84" y="0" type="line"/>
      <point x="208" y="187" type="line"/>
      <point x="441" y="187" type="line"/>
      <point x="459" y="13" type="line"/>
      <point x="405" y="-30"/>
      <point x="384" y="-70"/>
      <point x="384" y="-118" type="curve" smooth="yes"/>
      <point x="384" y="-160"/>
      <point x="413" y="-190"/>
      <point x="458" y="-190" type="curve" smooth="yes"/>
      <point x="487" y="-190"/>
      <point x="514" y="-181"/>
    </contour>
    <contour>
      <point x="281" y="297" type="line"/>
      <point x="410" y="491" type="line"/>
      <point x="430" y="297" type="line"/>
    </contour>
  </outline>
</glyph>
<glyph name="aogonek" format="2">
  <advance width="565"/>
  <unicode hex="0105"/>
  <outline>
    <contour>
      <point x="440" y="148" type="curve" smooth="yes"/>
      <point x="503" y="350" type="line" smooth="yes"/>
      <point x="531" y="440"/>
      <point x="485" y="510"/>
      <point x="347" y="510" type="curve" smooth="yes"/>
      <point x="224" y="510"/>
      <point x="103" y="456"/>
      <point x="67" y="340" type="curve"/>
      <point x="191" y="340" type="line"/>
      <point x="205" y="394"/>
      <point x="249" y="430"/>
      <point x="311" y="430" type="curve" smooth="yes"/>
      <point x="371" y="430"/>
      <point x="403" y="395"/>
      <point x="387" y="342" type="curve" smooth="yes"/>
      <point x="379" y="316" type="line"/>
      <point x="292" y="316" type="line" smooth="yes"/>
      <point x="99" y="316"/>
      <point x="-1" y="220"/>
      <point x="-1" y="116" type="curve" smooth="yes"/>
      <point x="-1" y="38"/>
      <point x="58" y="-10"/>
      <point x="153" y="-10" type="curve"/>
      <point x="226" y="-10"/>
      <point x="280" y="15"/>
      <point x="323" y="47" type="curve"/>
      <point x="330" y="23"/>
      <point x="344" y="10"/>
      <point x="361" y="3" type="curve"/>
      <point x="316" y="-37"/>
      <point x="298" y="-74"/>
      <point x="298" y="-118" type="curve" smooth="yes"/>
      <point x="298" y="-160"/>
      <point x="327" y="-190"/>
      <point x="372" y="-190" type="curve" smooth="yes"/>
      <point x="401" y="-190"/>
      <point x="428" y="-181"/>
      <point x="450" y="-166" type="curve"/>
      <point x="468" y="-81" type="line"/>
      <point x="450" y="-96"/>
      <point x="434" y="-104"/>
      <point x="416" y="-104" type="curve" smooth="yes"/>
      <point x="402" y="-104"/>
      <point x="397" y="-96"/>
      <point x="397" y="-85" type="curve" smooth="yes"/>
      <point x="397" y="-60"/>
      <point x="424" y="-11"/>
      <point x="465" y="-1" type="curve"/>
      <point x="468" y="-1" type="line"/>
      <point x="472" y="0" type="line"/>
      <point x="472" y="0" type="line"/>
      <point x="484" y="3"/>
      <point x="495" y="7"/>
      <point x="506" y="12" type="curve"/>
      <point x="538" y="122" type="line"/>
      <point x="519" y="110"/>
      <point x="499" y="104"/>
      <point x="481" y="104" type="curve" smooth="yes"/>
      <point x="448" y="104"/>
      <point x="432" y="121"/>
    </contour>
    <contour>
      <point x="310" y="230" type="curve" smooth="yes"/>
      <point x="357" y="230" type="line"/>
      <point x="341" y="180" type="line" smooth="yes"/>
      <point x="326" y="132"/>
      <point x="274" y="70"/>
      <point x="192" y="70" type="curve" smooth="yes"/>
      <point x="147" y="70"/>
      <point x="123" y="94"/>
      <point x="123" y="130" type="curve" smooth="yes"/>
      <point x="123" y="172"/>
      <point x="159" y="230"/>
    </contour>
  </outline>
</glyph>
<glyph name="dcroat" format="2">
  <advance width="577"/>
  <unicode hex="0111"/>
  <outline>
    <contour>
      <point x="445" y="0" type="line"/>
      <point x="595" y="544" type="line"/>
      <point x="670" y="544" type="line"/>
      <point x="694" y="629" type="line"/>
      <point x="618" y="629" type="line"/>
      <point x="632" y="680" type="line" smooth="yes"/>
      <point x="522" y="680" type="line"/>
      <point x="508" y="629" type="line"/>
      <point x="358" y="629" type="line"/>
      <point x="334" y="544" type="line"/>
      <point x="484" y="544" type="line"/>
      <point x="465" y="476" type="line"/>
      <point x="447" y="492"/>
      <point x="411" y="510"/>
      <point x="353" y="510" type="curve" smooth="yes"/>
      <point x="173" y="510"/>
      <point x="31" y="340"/>
      <point x="31" y="176" type="curve"/>
      <point x="31" y="66"/>
      <point x="97" y="-10"/>
      <point x="208" y="-10" type="curve"/>
      <point x="270" y="-10"/>
      <point x="327" y="17"/>
      <point x="352" y="44" type="curve"/>
      <point x="339" y="0" type="line"/>
    </contour>
    <contour>
      <point x="243" y="100" type="curve"/>
      <point x="183" y="100"/>
      <point x="145" y="136"/>
      <point x="145" y="198" type="curve" smooth="yes"/>
      <point x="145" y="308"/>
      <point x="225" y="400"/>
      <point x="323" y="400" type="curve"/>
      <point x="383" y="400"/>
      <point x="421" y="364"/>
      <point x="421" y="302" type="curve" smooth="yes"/>
      <point x="421" y="192"/>
      <point x="339" y="100"/>
    </contour>
  </outline>
</glyph>
<glyph name="Eogonek" format="2">
  <advance width="558"/>
  <unicode hex="0118"/>
  <outline>
    <contour>
      <point x="14" y="0" type="line"/>
      <point x="315" y="0" type="line"/>
      <point x="273" y="-38"/>
      <point x="256" y="-75"/>
      <point x="256" y="-118" type="curve" smooth="yes"/>
      <point x="256" y="-160"/>
      <point x="285" y="-190"/>
      <point x="330" y="-190" type="curve" smooth="yes"/>
      <point x="359" y="-190"/>
      <point x="386" y="-181"/>
      <point x="408" y="-166" type="curve"/>
      <point x="426" y="-81" type="line"/>
      <point x="408" y="-96"/>
      <point x="392" y="-104"/>
      <point x="374" y="-104" type="curve" smooth="yes"/>
      <point x="360" y="-104"/>
      <point x="355" y="-96"/>
      <point x="355" y="-85" type="curve" smooth="yes"/>
      <point x="355" y="-59"/>
      <point x="385" y="-6"/>
      <point x="430" y="0" type="curve"/>
      <point x="462" y="113" type="line"/>
      <point x="165" y="113" type="line"/>
      <point x="223" y="315" type="line"/>
      <point x="504" y="315" type="line"/>
      <point x="536" y="428" type="line"/>
      <point x="256" y="428" type="line"/>
      <point x="296" y="567" type="line"/>
      <point x="593" y="567" type="line"/>
      <point x="625" y="680" type="line"/>
      <point x="209" y="680" type="line"/>
    </contour>
  </outline>
</glyph>
<glyph name="eogonek" format="2">
  <advance width="534"/>
  <unicode hex="0119"/>
  <outline>
    <contour>
      <point x="23" y="170" type="curve" smooth="yes"/>
      <point x="23" y="81"/>
      <point x="68" y="12"/>
      <point x="155" y="-6" type="curve"/>
      <point x="117" y="-42"/>
      <point x="102" y="-77"/>
      <point x="102" y="-118" type="curve" smooth="yes"/>
      <point x="102" y="-160"/>
      <point x="131" y="-190"/>
      <point x="176" y="-190" type="curve" smooth="yes"/>
      <point x="205" y="-190"/>
      <point x="232" y="-181"/>
      <point x="254" y="-166" type="curve"/>
      <point x="272" y="-81" type="line"/>
      <point x="254" y="-96"/>
      <point x="238" y="-104"/>
      <point x="220" y="-104" type="curve" smooth="yes"/>
      <point x="206" y="-104"/>
      <point x="201" y="-96"/>
      <point x="201" y="-85" type="curve" smooth="yes"/>
      <point x="201" y="-62"/>
      <point x="225" y="-17"/>
      <point x="262" y="-4" type="curve"/>
      <point x="377" y="21"/>
      <point x="451" y="112"/>
      <point x="473" y="170" type="curve"/>
      <point x="363" y="170" type="line"/>
      <point x="346" y="148"/>
      <point x="309" y="100"/>
      <point x="232" y="100" type="curve" smooth="yes"/>
      <point x="175" y="100"/>
      <point x="135" y="127"/>
      <point x="135" y="200" type="curve" smooth="yes"/>
      <point x="135" y="208"/>
      <point x="135" y="216"/>
      <point x="136" y="224" type="curve"/>
      <point x="494" y="224" type="line"/>
      <point x="505" y="266"/>
      <point x="511" y="304"/>
      <point x="511" y="338" type="curve"/>
      <point x="511" y="450"/>
      <point x="457" y="510"/>
      <point x="352" y="510" type="curve"/>
      <point x="163" y="510"/>
      <point x="23" y="327"/>
    </contour>
    <contour>
      <point x="320" y="420" type="curve" smooth="yes"/>
      <point x="386" y="420"/>
      <point x="413" y="376"/>
      <point x="405" y="324" type="curve"/>
      <point x="166" y="324" type="line"/>
      <point x="199" y="383"/>
      <point x="255" y="420"/>
    </contour>
  </outline>
</glyph>
<glyph name="Hbar" format="2">
  <advance width="676"/>
  <unicode hex="0126"/>
  <outline>
    <contour>
      <point x="14" y="0" type="line"/>
      <point x="133" y="0" type="line"/>
      <point x="217" y="292" type="line"/>
      <point x="483" y="292" type="line"/>
      <point x="399" y="0" type="line"/>
      <point x="518" y="0" type="line"/>
      <point x="666" y="515" type="line"/>
      <point x="719" y="515" type="line"/>
      <point x="745" y="600" type="line"/>
      <point x="690" y="600" type="line"/>
      <point x="713" y="680" type="line"/>
      <point x="594" y="680" type="line"/>
      <point x="571" y="600" type="line"/>
      <point x="305" y="600" type="line"/>
      <point x="328" y="680" type="line"/>
      <point x="209" y="680" type="line"/>
      <point x="186" y="600" type="line"/>
      <point x="133" y="600" type="line"/>
      <point x="107" y="515" type="line"/>
      <point x="162" y="515" type="line"/>
    </contour>
    <contour>
      <point x="251" y="410" type="line"/>
      <point x="281" y="515" type="line"/>
      <point x="547" y="515" type="line"/>
      <point x="517" y="410" type="line"/>
    </contour>
  </outline>
</glyph>
<glyph name="Iogonek" format="2">
  <advance width="291"/>
  <unicode hex="012E"/>
  <outline>
    <contour>
      <point x="14" y="0" type="line"/>
      <point x="18" y="0" type="line"/>
      <point x="-24" y="-38"/>
      <point x="-41" y="-75"/>
      <point x="-41" y="-118" type="curve" smooth="yes"/>
      <point x="-41" y="-160"/>
      <point x="-12" y="-190"/>
      <point x="33" y="-190" type="curve" smooth="yes"/>
      <point x="62" y="-190"/>
      <point x="89" y="-181"/>
      <point x="111" y="-166" type="curve"/>
      <point x="129" y="-81" type="line"/>
      <point x="111" y="-96"/>
      <point x="95" y="-104"/>
      <point x="77" y="-104" type="curve" smooth="yes"/>
      <point x="63" y="-104"/>
      <point x="58" y="-96"/>
      <point x="58" y="-85" type="curve" smooth="yes"/>
      <point x="58" y="-59"/>
      <point x="88" y="-6"/>
      <point x="133" y="0" type="curve"/>
      <point x="328" y="680" type="line"/>
      <point x="209" y="680" type="line"/>
    </contour>
  </outline>
</glyph>
<glyph name="iogonek" format="2">
  <advance width="238"/>
  <unicode hex="012F"/>
  <outline>
    <contour>
      <point x="185" y="690" type="line"/>
      <point x="151" y="570" type="line"/>
      <point x="267" y="570" type="line"/>
      <point x="301" y="690" type="line"/>
    </contour>
    <contour>
      <point x="131" y="500" type="line"/>
      <point x="-8" y="11" type="line"/>
      <point x="-60" y="-31"/>
      <point x="-80" y="-71"/>
      <point x="-80" y="-118" type="curve" smooth="yes"/>
      <point x="-80" y="-160"/>
      <point x="-51" y="-190"/>
      <point x="-6" y="-190" type="curve" smooth="yes"/>
      <point x="23" y="-190"/>
      <point x="50" y="-181"/>
      <point x="72" y="-166" type="curve"/>
      <point x="90" y="-81" type="line"/>
      <point x="72" y="-96"/>
      <point x="56" y="-104"/>
      <point x="38" y="-104" type="curve" smooth="yes"/>
      <point x="24" y="-104"/>
      <point x="19" y="-96"/>
      <point x="19" y="-85" type="curve" smooth="yes"/>
      <point x="19" y="-59"/>
      <point x="49" y="-6"/>
      <point x="94" y="0" type="curve"/>
      <point x="105" y="0" type="line"/>
      <point x="247" y="500" type="line"/>
    </contour>
  </outline>
</glyph>
<glyph name="dotlessi" format="2">
  <advance width="238"/>
  <unicode hex="0131"/>
  <anchor x="171" y="430" name="top"/>
  <outline>
    <contour>
      <point x="131" y="500" type="line"/>
      <point x="-11" y="0" type="line" smooth="yes"/>
      <point x="105" y="0" type="line"/>
      <point x="247" y="500" type="line"/>
    </contour>
  </outline>
</glyph>
<glyph name="Lslash" format="2">
  <advance width="505"/>
  <unicode hex="0141"/>
  <outline>
    <contour>
      <point x="14" y="0" type="line"/>
      <point x="403" y="0" type="line"/>
      <point x="435" y="113" type="line"/>
      <point x="165" y="113" type="line"/>
      <point x="230" y="339" type="line"/>
      <point x="328" y="369" type="line"/>
      <point x="359" y="478" type="line"/>
      <point x="261" y="448" type="line"/>
      <point x="328" y="680" type="line"/>
      <point x="209" y="680" type="line"/>
      <point x="131" y="409" type="line"/>
      <point x="39" y="381" type="line"/>
      <point x="8" y="272" type="line"/>
      <point x="100" y="300" type="line"/>
    </contour>
  </outline>
</glyph>
<glyph name="lslash" format="2">
  <advance width="242"/>
  <unicode hex="0142"/>
  <outline>
    <contour>
      <point x="-21" y="272" type="line"/>
      <point x="79" y="302" type="line"/>
      <point x="-4" y="0" type="line"/>
      <point x="110" y="0" type="line"/>
      <point x="204" y="340" type="line"/>
      <point x="299" y="369" type="line"/>
      <point x="330" y="478" type="line"/>
      <point x="233" y="449" type="line"/>
      <point x="297" y="680" type="line"/>
      <point x="183" y="680" type="line"/>
      <point x="109" y="411" type="line"/>
      <point x="10" y="381" type="line"/>
    </contour>
  </outline>
</glyph>
<glyph name="Eng" format="2">
  <advance width="661"/>
  <unicode hex="014A"/>
  <outline>
    <contour>
      <point x="14" y="0" type="line"/>
      <point x="134" y="0" type="line"/>
      <point x="264" y="456" type="line"/>
      <point x="383" y="0" type="line"/>
      <point x="393" y="0" type="line"/>
      <point x="379" y="-48" type="line" smooth="yes"/>
      <point x="371" y="-74"/>
      <point x="354" y="-86"/>
      <point x="330" y="-86" type="curve"/>
      <point x="310" y="-86"/>
      <point x="298" y="-78"/>
      <point x="292" y="-66" type="curve"/>
      <point x="263" y="-166" type="line"/>
      <point x="273" y="-178"/>
      <point x="299" y="-190"/>
      <point x="336" y="-190" type="curve"/>
      <point x="409" y="-190"/>
      <point x="458" y="-153"/>
      <point x="479" y="-82" type="curve" smooth="yes"/>
      <point x="503" y="0" type="line"/>
      <point x="698" y="680" type="line"/>
      <point x="578" y="680" type="line"/>
      <point x="447" y="224" type="line"/>
      <point x="329" y="680" type="line"/>
      <point x="209" y="680" type="line"/>
    </contour>
  </outline>
</glyph>
<glyph name="eng" format="2">
  <advance width="531"/>
  <unicode hex="014B"/>
  <outline>
    <contour>
      <point x="403" y="0" type="line"/>
      <point x="501" y="340" type="line" smooth="yes"/>
      <point x="507" y="360"/>
      <point x="510" y="378"/>
      <point x="510" y="394" type="curve" smooth="yes"/>
      <point x="510" y="455"/>
      <point x="473" y="510"/>
      <point x="391" y="510" type="curve" smooth="yes"/>
      <point x="335" y="510"/>
      <point x="279" y="490"/>
      <point x="229" y="458" type="curve"/>
      <point x="241" y="500" type="line"/>
      <point x="131" y="500" type="line"/>
      <point x="-12" y="0" type="line"/>
      <point x="102" y="0" type="line"/>
      <point x="182" y="280" type="line" smooth="yes"/>
      <point x="200" y="343"/>
      <point x="237" y="405"/>
      <point x="318" y="405" type="curve" smooth="yes"/>
      <point x="361" y="405"/>
      <point x="387" y="386"/>
      <point x="387" y="352" type="curve" smooth="yes"/>
      <point x="387" y="345"/>
      <point x="386" y="338"/>
      <point x="384" y="330" type="curve" smooth="yes"/>
      <point x="289" y="0" type="line"/>
      <point x="275" y="-48" type="line" smooth="yes"/>
      <point x="267" y="-76"/>
      <point x="244" y="-86"/>
      <point x="224" y="-86" type="curve" smooth="yes"/>
      <point x="206" y="-86"/>
      <point x="195" y="-78"/>
      <point x="188" y="-66" type="curve"/>
      <point x="159" y="-166" type="line"/>
      <point x="169" y="-178"/>
      <point x="191" y="-190"/>
      <point x="227" y="-190" type="curve" smooth="yes"/>
      <point x="305" y="-190"/>
      <point x="359" y="-151"/>
      <point x="379" y="-82" type="curve" smooth="yes"/>
    </contour>
  </outline>
</glyph>
<glyph name="OE" format="2">
  <advance width="850"/>
  <unicode hex="0152"/>
  <outline>
    <contour>
      <point x="63" y="236" type="curve" smooth="yes"/>
      <point x="63" y="93"/>
      <point x="157" y="0"/>
      <point x="332" y="0" type="curve"/>
      <point x="722" y="0" type="line"/>
      <point x="754" y="113" type="line"/>
      <point x="512" y="113" type="line"/>
      <point x="570" y="315" type="line"/>
      <point x="797" y="315" type="line"/>
      <point x="829" y="428" type="line"/>
      <point x="603" y="428" type="line"/>
      <point x="643" y="567" type="line"/>
      <point x="885" y="567" type="line"/>
      <point x="917" y="680" type="line"/>
      <point x="528" y="680" type="line" smooth="yes"/>
      <point x="245" y="680"/>
      <point x="63" y="466"/>
    </contour>
    <contour>
      <point x="490" y="562" type="curve" smooth="yes"/>
      <point x="517" y="562" type="line"/>
      <point x="390" y="118" type="line"/>
      <point x="363" y="118" type="line" smooth="yes"/>
      <point x="257" y="118"/>
      <point x="196" y="163"/>
      <point x="196" y="264" type="curve" smooth="yes"/>
      <point x="196" y="422"/>
      <point x="306" y="562"/>
    </contour>
  </outline>
</glyph>
<glyph name="oe" format="2">
  <advance width="827"/>
  <unicode hex="0153"/>
  <outline>
    <contour>
      <point x="27" y="158" type="curve" smooth="yes"/>
      <point x="27" y="66"/>
      <point x="75" y="-10"/>
      <point x="187" y="-10" type="curve" smooth="yes"/>
      <point x="263" y="-10"/>
      <point x="330" y="25"/>
      <point x="381" y="76" type="curve"/>
      <point x="400" y="24"/>
      <point x="443" y="-10"/>
      <point x="514" y="-10" type="curve" smooth="yes"/>
      <point x="635" y="-10"/>
      <point x="729" y="67"/>
      <point x="771" y="178" type="curve"/>
      <point x="661" y="178" type="line"/>
      <point x="622" y="110"/>
      <point x="585" y="87"/>
      <point x="541" y="87" type="curve" smooth="yes"/>
      <point x="497" y="87"/>
      <point x="468" y="112"/>
      <point x="468" y="170" type="curve" smooth="yes"/>
      <point x="468" y="191"/>
      <point x="471" y="215"/>
      <point x="478" y="238" type="curve"/>
      <point x="791" y="238" type="line"/>
      <point x="802" y="281"/>
      <point x="809" y="322"/>
      <point x="809" y="360" type="curve" smooth="yes"/>
      <point x="809" y="447"/>
      <point x="770" y="510"/>
      <point x="666" y="510" type="curve" smooth="yes"/>
      <point x="592" y="510"/>
      <point x="528" y="474"/>
      <point x="478" y="422" type="curve"/>
      <point x="455" y="475"/>
      <point x="409" y="510"/>
      <point x="336" y="510" type="curve" smooth="yes"/>
      <point x="149" y="510"/>
      <point x="27" y="315"/>
    </contour>
    <contour>
      <point x="643" y="415" type="curve"/>
      <point x="681" y="415"/>
      <point x="700" y="387"/>
      <point x="700" y="348" type="curve" smooth="yes"/>
      <point x="700" y="340"/>
      <point x="699" y="331"/>
      <point x="697" y="322" type="curve"/>
      <point x="514" y="322" type="line"/>
      <point x="546" y="375"/>
      <point x="592" y="415"/>
    </contour>
    <contour>
      <point x="217" y="95" type="curve" smooth="yes"/>
      <point x="166" y="95"/>
      <point x="136" y="128"/>
      <point x="136" y="188" type="curve"/>
      <point x="136" y="285"/>
      <point x="207" y="405"/>
      <point x="306" y="405" type="curve" smooth="yes"/>
      <point x="358" y="405"/>
      <point x="387" y="369"/>
      <point x="387" y="310" type="curve"/>
      <point x="387" y="205"/>
      <point x="311" y="95"/>
    </contour>
  </outline>
</glyph>
<glyph name="Scedilla" format="2">
  <advance width="603"/>
  <unicode hex="015E"/>
  <outline>
    <contour>
      <point x="124" y="-157" type="line"/>
      <point x="141" y="-139"/>
      <point x="165" y="-122"/>
      <point x="199" y="-122" type="curve" smooth="yes"/>
      <point x="227" y="-122"/>
      <point x="243" y="-136"/>
      <point x="243" y="-158" type="curve" smooth="yes"/>
      <point x="243" y="-192"/>
      <point x="212" y="-224"/>
      <point x="162" y="-224" type="curve"/>
      <point x="138" y="-224"/>
      <point x="125" y="-214"/>
      <point x="125" y="-197" type="curve"/>
      <point x="125" y="-192"/>
      <point x="126" y="-187"/>
      <point x="128" y="-182" type="curve"/>
      <point x="44" y="-182" type="line"/>
      <point x="39" y="-195"/>
      <point x="37" y="-206"/>
      <point x="37" y="-217" type="curve" smooth="yes"/>
      <point x="37" y="-269"/>
      <point x="85" y="-298"/>
      <point x="149" y="-298" type="curve"/>
      <point x="254" y="-298"/>
      <point x="333" y="-231"/>
      <point x="333" y="-139" type="curve" smooth="yes"/>
      <point x="333" y="-84"/>
      <point x="293" y="-55"/>
      <point x="237" y="-55" type="curve" smooth="yes"/>
      <point x="228" y="-55"/>
      <point x="220" y="-56"/>
      <point x="212" y="-58" type="curve"/>
      <point x="261" y="-10" type="line"/>
      <point x="421" y="-5"/>
      <point x="556" y="82"/>
      <point x="556" y="230" type="curve"/>
      <point x="556" y="428"/>
      <point x="255" y="380"/>
      <point x="255" y="498" type="curve"/>
      <point x="255" y="554"/>
      <point x="303" y="600"/>
      <point x="391" y="600" type="curve"/>
      <point x="469" y="600"/>
      <point x="497" y="561"/>
      <point x="497" y="517" type="curve" smooth="yes"/>
      <point x="497" y="500"/>
      <point x="494" y="482"/>
      <point x="487" y="465" type="curve"/>
      <point x="607" y="465" type="line"/>
      <point x="622" y="495"/>
      <point x="628" y="523"/>
      <point x="628" y="549" type="curve" smooth="yes"/>
      <point x="628" y="633"/>
      <point x="560" y="690"/>
      <point x="424" y="690" type="curve" smooth="yes"/>
      <point x="243" y="690"/>
      <point x="122" y="584"/>
      <point x="122" y="466" type="curve"/>
      <point x="122" y="262"/>
      <point x="420" y="324"/>
      <point x="420" y="191" type="curve"/>
      <point x="420" y="136"/>
      <point x="366" y="80"/>
      <point x="269" y="80" type="curve"/>
      <point x="178" y="80"/>
      <point x="146" y="123"/>
      <point x="146" y="167" type="curve" smooth="yes"/>
      <point x="146" y="188"/>
      <point x="149" y="205"/>
      <point x="156" y="223" type="curve"/>
      <point x="30" y="223" type="line"/>
      <point x="18" y="203"/>
      <point x="12" y="178"/>
      <point x="12" y="152" type="curve" smooth="yes"/>
      <point x="12" y="80"/>
      <point x="63" y="10"/>
      <point x="187" y="-6" type="curve"/>
      <point x="73" y="-136" type="line"/>
    </contour>
  </outline>
</glyph>
<glyph name="scedilla" format="2">
  <advance width="483"/>
  <unicode hex="015F"/>
  <outline>
    <contour>
      <point x="78" y="-157" type="line"/>
      <point x="95" y="-139"/>
      <point x="119" y="-122"/>
      <point x="153" y="-122" type="curve" smooth="yes"/>
      <point x="181" y="-122"/>
      <point x="197" y="-136"/>
      <point x="197" y="-158" type="curve" smooth="yes"/>
      <point x="197" y="-192"/>
      <point x="166" y="-224"/>
      <point x="116" y="-224" type="curve"/>
      <point x="92" y="-224"/>
      <point x="79" y="-214"/>
      <point x="79" y="-197" type="curve"/>
      <point x="79" y="-192"/>
      <point x="80" y="-187"/>
      <point x="82" y="-182" type="curve"/>
      <point x="-2" y="-182" type="line"/>
      <point x="-7" y="-195"/>
      <point x="-9" y="-206"/>
      <point x="-9" y="-217" type="curve" smooth="yes"/>
      <point x="-9" y="-269"/>
      <point x="39" y="-298"/>
      <point x="103" y="-298" type="curve"/>
      <point x="208" y="-298"/>
      <point x="287" y="-231"/>
      <point x="287" y="-139" type="curve" smooth="yes"/>
      <point x="287" y="-84"/>
      <point x="247" y="-55"/>
      <point x="191" y="-55" type="curve" smooth="yes"/>
      <point x="182" y="-55"/>
      <point x="174" y="-56"/>
      <point x="166" y="-58" type="curve"/>
      <point x="218" y="-7" type="line"/>
      <point x="348" y="10"/>
      <point x="430" y="92"/>
      <point x="430" y="190" type="curve"/>
      <point x="430" y="336"/>
      <point x="186" y="288"/>
      <point x="186" y="370" type="curve" smooth="yes"/>
      <point x="186" y="400"/>
      <point x="220" y="426"/>
      <point x="278" y="426" type="curve" smooth="yes"/>
      <point x="328" y="426"/>
      <point x="361" y="407"/>
      <point x="361" y="376" type="curve" smooth="yes"/>
      <point x="361" y="369"/>
      <point x="360" y="363"/>
      <point x="357" y="356" type="curve"/>
      <point x="471" y="356" type="line"/>
      <point x="474" y="365"/>
      <point x="477" y="376"/>
      <point x="477" y="388" type="curve" smooth="yes"/>
      <point x="477" y="441"/>
      <point x="443" y="510"/>
      <point x="306" y="510" type="curve"/>
      <point x="166" y="510"/>
      <point x="66" y="422"/>
      <point x="66" y="328" type="curve"/>
      <point x="66" y="185"/>
      <point x="310" y="229"/>
      <point x="310" y="148" type="curve"/>
      <point x="310" y="111"/>
      <point x="276" y="80"/>
      <point x="208" y="80" type="curve" smooth="yes"/>
      <point x="142" y="80"/>
      <point x="116" y="114"/>
      <point x="116" y="142" type="curve"/>
      <point x="116" y="153"/>
      <point x="117" y="157"/>
      <point x="118" y="160" type="curve"/>
      <point x="4" y="160" type="line"/>
      <point x="-1" y="147"/>
      <point x="-4" y="130"/>
      <point x="-4" y="114" type="curve" smooth="yes"/>
      <point x="-4" y="60"/>
      <point x="34" y="0"/>
      <point x="139" y="-9" type="curve"/>
      <point x="27" y="-136" type="line"/>
    </contour>
  </outline>
</glyph>
<glyph name="Tbar" format="2">
  <advance width="542"/>
  <unicode hex="0166"/>
  <outline>
    <contour>
      <point x="139" y="0" type="line"/>
      <point x="259" y="0" type="line"/>
      <point x="356" y="337" type="line"/>
      <point x="466" y="337" type="line"/>
      <point x="490" y="422" type="line"/>
      <point x="380" y="422" type="line"/>
      <point x="420" y="560" type="line"/>
      <point x="598" y="560" type="line"/>
      <point x="632" y="680" type="line"/>
      <point x="156" y="680" type="line"/>
      <point x="122" y="560" type="line"/>
      <point x="300" y="560" type="line"/>
      <point x="260" y="422" type="line"/>
      <point x="154" y="422" type="line"/>
      <point x="130" y="337" type="line"/>
      <point x="236" y="337" type="line"/>
    </contour>
  </outline>
</glyph>
<glyph name="tbar" format="2">
  <advance width="299"/>
  <unicode hex="0167"/>
  <outline>
    <contour>
      <point x="-22" y="250" type="line"/>
      <point x="79" y="250" type="line"/>
      <point x="39" y="112" type="line" smooth="yes"/>
      <point x="20" y="47"/>
      <point x="49" y="-10"/>
      <point x="125" y="-10" type="curve"/>
      <point x="155" y="-10"/>
      <point x="183" y="-2"/>
      <point x="199" y="8" type="curve"/>
      <point x="227" y="108" type="line"/>
      <point x="217" y="100"/>
      <point x="203" y="94"/>
      <point x="185" y="94" type="curve" smooth="yes"/>
      <point x="162" y="94"/>
      <point x="151" y="111"/>
      <point x="159" y="140" type="curve" smooth="yes"/>
      <point x="191" y="250" type="line"/>
      <point x="314" y="250" type="line"/>
      <point x="338" y="335" type="line"/>
      <point x="216" y="335" type="line"/>
      <point x="232" y="390" type="line"/>
      <point x="302" y="390" type="line"/>
      <point x="333" y="500" type="line"/>
      <point x="263" y="500" type="line"/>
      <point x="314" y="680" type="line"/>
      <point x="204" y="680" type="line"/>
      <point x="150" y="500" type="line"/>
      <point x="91" y="500" type="line"/>
      <point x="60" y="390" type="line"/>
      <point x="120" y="390" type="line"/>
      <point x="104" y="335" type="line"/>
      <point x="2" y="335" type="line"/>
    </contour>
  </outline>
</glyph>
<glyph name="Uogonek" format="2">
  <advance width="636"/>
  <unicode hex="0172"/>
  <outline>
    <contour>
      <point x="679" y="680" type="line"/>
      <point x="560" y="680" type="line"/>
      <point x="423" y="203" type="line" smooth="yes"/>
      <point x="403" y="135"/>
      <point x="347" y="110"/>
      <point x="287" y="110" type="curve"/>
      <point x="203" y="110"/>
      <point x="172" y="159"/>
      <point x="188" y="215" type="curve" smooth="yes"/>
      <point x="321" y="680" type="line"/>
      <point x="203" y="680" type="line"/>
      <point x="69" y="214" type="line" smooth="yes"/>
      <point x="36" y="98"/>
      <point x="96" y="10"/>
      <point x="216" y="-7" type="curve"/>
      <point x="179" y="-43"/>
      <point x="164" y="-78"/>
      <point x="164" y="-118" type="curve" smooth="yes"/>
      <point x="164" y="-160"/>
      <point x="193" y="-190"/>
      <point x="238" y="-190" type="curve" smooth="yes"/>
      <point x="267" y="-190"/>
      <point x="294" y="-181"/>
      <point x="316" y="-166" type="curve"/>
      <point x="334" y="-81" type="line"/>
      <point x="316" y="-96"/>
      <point x="300" y="-104"/>
      <point x="282" y="-104" type="curve" smooth="yes"/>
      <point x="268" y="-104"/>
      <point x="263" y="-96"/>
      <point x="263" y="-85" type="curve" smooth="yes"/>
      <point x="263" y="-63"/>
      <point x="285" y="-21"/>
      <point x="319" y="-6" type="curve"/>
      <point x="429" y="12"/>
      <point x="508" y="81"/>
      <point x="541" y="198" type="curve" smooth="yes"/>
    </contour>
  </outline>
</glyph>
<glyph name="uogonek" format="2">
  <advance width="532"/>
  <unicode hex="0173"/>
  <outline>
    <contour>
      <point x="128" y="500" type="line"/>
      <point x="30" y="160" type="line" smooth="yes"/>
      <point x="24" y="140"/>
      <point x="21" y="122"/>
      <point x="21" y="106" type="curve" smooth="yes"/>
      <point x="21" y="45"/>
      <point x="58" y="-10"/>
      <point x="140" y="-10" type="curve"/>
      <point x="196" y="-10"/>
      <point x="252" y="10"/>
      <point x="302" y="42" type="curve"/>
      <point x="291" y="4" type="line"/>
      <point x="247" y="-36"/>
      <point x="235" y="-66"/>
      <point x="235" y="-108" type="curve" smooth="yes"/>
      <point x="235" y="-145"/>
      <point x="268" y="-190"/>
      <point x="323" y="-190" type="curve" smooth="yes"/>
      <point x="358" y="-190"/>
      <point x="394" y="-175"/>
      <point x="408" y="-159" type="curve"/>
      <point x="402" y="-67" type="line"/>
      <point x="381" y="-90"/>
      <point x="368" y="-99"/>
      <point x="349" y="-99" type="curve" smooth="yes"/>
      <point x="325" y="-99"/>
      <point x="316" y="-85"/>
      <point x="316" y="-69" type="curve" smooth="yes"/>
      <point x="316" y="-44"/>
      <point x="344" y="-8"/>
      <point x="400" y="0" type="curve"/>
      <point x="543" y="500" type="line"/>
      <point x="429" y="500" type="line"/>
      <point x="349" y="220" type="line" smooth="yes"/>
      <point x="331" y="158"/>
      <point x="290" y="80"/>
      <point x="209" y="80" type="curve" smooth="yes"/>
      <point x="169" y="80"/>
      <point x="142" y="100"/>
      <point x="142" y="139" type="curve" smooth="yes"/>
      <point x="142" y="148"/>
      <point x="144" y="158"/>
      <point x="147" y="170" type="curve" smooth="yes"/>
      <point x="242" y="500" type="line"/>
    </contour>
  </outline>
</glyph>
<glyph name="Schwa" format="2">
  <advance width="682"/>
  <unicode hex="018F"/>
  <outline>
    <contour>
      <point x="210" y="398" type="line"/>
      <point x="272" y="510"/>
      <point x="333" y="571"/>
      <point x="431" y="571" type="curve" smooth="yes"/>
      <point x="507" y="571"/>
      <point x="553" y="520"/>
      <point x="553" y="434" type="curve"/>
      <point x="553" y="406"/>
      <point x="549" y="378"/>
      <point x="542" y="349" type="curve"/>
      <point x="69" y="349" type="line"/>
      <point x="48" y="297"/>
      <point x="36" y="248"/>
      <point x="36" y="206" type="curve" smooth="yes"/>
      <point x="36" y="72"/>
      <point x="118" y="-10"/>
      <point x="260" y="-10" type="curve"/>
      <point x="494" y="-10"/>
      <point x="681" y="246"/>
      <point x="681" y="462" type="curve"/>
      <point x="681" y="606"/>
      <point x="595" y="690"/>
      <point x="457" y="690" type="curve"/>
      <point x="289" y="690"/>
      <point x="133" y="585"/>
      <point x="85" y="398" type="curve"/>
    </contour>
    <contour>
      <point x="298" y="109" type="curve" smooth="yes"/>
      <point x="212" y="109"/>
      <point x="170" y="148"/>
      <point x="170" y="214" type="curve" smooth="yes"/>
      <point x="170" y="228"/>
      <point x="173" y="245"/>
      <point x="177" y="259" type="curve"/>
      <point x="506" y="259" type="line"/>
      <point x="461" y="175"/>
      <point x="386" y="109"/>
    </contour>
  </outline>
</glyph>
<glyph name="florin" format="2">
  <advance width="646"/>
  <unicode hex="0192"/>
  <outline>
    <contour>
      <point x="236" y="162" type="line" smooth="yes"/>
      <point x="225" y="123"/>
      <point x="199" y="104"/>
      <point x="159" y="104" type="curve"/>
      <point x="141" y="104"/>
      <point x="127" y="106"/>
      <point x="105" y="116" type="curve"/>
      <point x="73" y="6" type="line"/>
      <point x="105" y="-6"/>
      <point x="132" y="-10"/>
      <point x="168" y="-10" type="curve" smooth="yes"/>
      <point x="264" y="-10"/>
      <point x="314" y="50"/>
      <point x="337" y="132" type="curve" smooth="yes"/>
      <point x="383" y="294" type="line"/>
      <point x="553" y="294" type="line"/>
      <point x="579" y="384" type="line"/>
      <point x="409" y="384" type="line"/>
      <point x="445" y="512" type="line" smooth="yes"/>
      <point x="456" y="552"/>
      <point x="484" y="576"/>
      <point x="524" y="576" type="curve" smooth="yes"/>
      <point x="542" y="576"/>
      <point x="562" y="572"/>
      <point x="577" y="564" type="curve"/>
      <point x="609" y="674" type="line"/>
      <point x="578" y="686"/>
      <point x="551" y="690"/>
      <point x="515" y="690" type="curve" smooth="yes"/>
      <point x="419" y="690"/>
      <point x="368" y="622"/>
      <point x="349" y="556" type="curve" smooth="yes"/>
      <point x="300" y="384" type="line"/>
      <point x="139" y="384" type="line"/>
      <point x="113" y="294" type="line"/>
      <point x="274" y="294" type="line"/>
    </contour>
  </outline>
</glyph>
<glyph name="aringacute" format="2">
  <advance width="565"/>
  <unicode hex="01FB"/>
  <outline>
    <contour>
      <point x="466" y="980" type="line"/>
      <point x="396" y="840" type="line"/>
      <point x="504" y="840" type="line"/>
      <point x="658" y="980" type="line"/>
    </contour>
    <contour>
      <point x="355" y="550" type="curve" smooth="yes"/>
      <point x="434" y="550"/>
      <point x="519" y="627"/>
      <point x="519" y="715" type="curve"/>
      <point x="519" y="765"/>
      <point x="488" y="799"/>
      <point x="427" y="799" type="curve" smooth="yes"/>
      <point x="347" y="799"/>
      <point x="264" y="724"/>
      <point x="264" y="634" type="curve"/>
      <point x="264" y="585"/>
      <point x="293" y="550"/>
    </contour>
    <contour>
      <point x="374" y="620" type="curve"/>
      <point x="348" y="620"/>
      <point x="332" y="637"/>
      <point x="332" y="660" type="curve" smooth="yes"/>
      <point x="332" y="698"/>
      <point x="363" y="727"/>
      <point x="401" y="727" type="curve"/>
      <point x="428" y="727"/>
      <point x="444" y="711"/>
      <point x="444" y="689" type="curve" smooth="yes"/>
      <point x="444" y="653"/>
      <point x="414" y="620"/>
    </contour>
    <contour>
      <point x="440" y="148" type="curve" smooth="yes"/>
      <point x="503" y="350" type="line" smooth="yes"/>
      <point x="531" y="440"/>
      <point x="485" y="510"/>
      <point x="347" y="510" type="curve" smooth="yes"/>
      <point x="224" y="510"/>
      <point x="103" y="456"/>
      <point x="67" y="340" type="curve"/>
      <point x="191" y="340" type="line"/>
      <point x="205" y="394"/>
      <point x="249" y="430"/>
      <point x="311" y="430" type="curve" smooth="yes"/>
      <point x="371" y="430"/>
      <point x="403" y="395"/>
      <point x="387" y="342" type="curve" smooth="yes"/>
      <point x="379" y="316" type="line"/>
      <point x="292" y="316" type="line" smooth="yes"/>
      <point x="99" y="316"/>
      <point x="-1" y="220"/>
      <point x="-1" y="116" type="curve" smooth="yes"/>
      <point x="-1" y="38"/>
      <point x="58" y="-10"/>
      <point x="153" y="-10" type="curve"/>
      <point x="226" y="-10"/>
      <point x="280" y="15"/>
      <point x="323" y="47" type="curve"/>
      <point x="338" y="-1"/>
      <point x="377" y="-6"/>
      <point x="423" y="-6" type="curve" smooth="yes"/>
      <point x="450" y="-6"/>
      <point x="479" y="0"/>
      <point x="506" y="12" type="curve"/>
      <point x="538" y="122" type="line"/>
      <point x="519" y="110"/>
      <point x="499" y="104"/>
      <point x="481" y="104" type="curve" smooth="yes"/>
      <point x="448" y="104"/>
      <point x="432" y="121"/>
    </contour>
    <contour>
      <point x="310" y="230" type="curve" smooth="yes"/>
      <point x="357" y="230" type="line"/>
      <point x="341" y="180" type="line" smooth="yes"/>
      <point x="326" y="132"/>
      <point x="274" y="70"/>
      <point x="192" y="70" type="curve" smooth="yes"/>
      <point x="147" y="70"/>
      <point x="123" y="94"/>
      <point x="123" y="130" type="curve" smooth="yes"/>
      <point x="123" y="172"/>
      <point x="159" y="230"/>
    </contour>
  </outline>
</glyph>
<glyph name="circumflex" format="2">
  <advance width="500"/>
  <unicode hex="02C6"/>
  <anchor x="353" y="610" name="_top"/>
  <outline>
    <contour>
      <point x="350" y="870" type="line"/>
      <point x="230" y="730" type="line"/>
      <point x="334" y="730" type="line"/>
      <point x="411" y="800" type="line"/>
      <point x="448" y="730" type="line"/>
      <point x="544" y="730" type="line"/>
      <point x="504" y="870" type="line"/>
    </contour>
  </outline>
</glyph>
<glyph name="caron" format="2">
  <advance width="500"/>
  <unicode hex="02C7"/>
  <anchor x="353" y="610" name="_top"/>
  <outline>
    <contour>
      <point x="310" y="730" type="line"/>
      <point x="464" y="730" type="line"/>
      <point x="584" y="870" type="line"/>
      <point x="480" y="870" type="line"/>
      <point x="403" y="800" type="line"/>
      <point x="366" y="870" type="line"/>
      <point x="270" y="870" type="line"/>
    </contour>
  </outline>
</glyph>
<glyph name="dotaccent" format="2">
  <advance width="500"/>
  <unicode hex="02D9"/>
  <anchor x="353" y="610" name="_top"/>
  <outline>
    <contour>
      <point x="367" y="860" type="line"/>
      <point x="333" y="740" type="line"/>
      <point x="447" y="740" type="line"/>
      <point x="481" y="860" type="line"/>
    </contour>
  </outline>
</glyph>
<glyph name="ring" format="2">
  <advance width="500"/>
  <unicode hex="02DA"/>
  <anchor x="353" y="610" name="_top"/>
  <outline>
    <contour>
      <point x="387" y="730" type="curve" smooth="yes"/>
      <point x="466" y="730"/>
      <point x="551" y="807"/>
      <point x="551" y="895" type="curve"/>
      <point x="551" y="945"/>
      <point x="520" y="979"/>
      <point x="459" y="979" type="curve" smooth="yes"/>
      <point x="379" y="979"/>
      <point x="296" y="904"/>
      <point x="296" y="814" type="curve"/>
      <point x="296" y="765"/>
      <point x="325" y="730"/>
    </contour>
    <contour>
      <point x="406" y="800" type="curve"/>
      <point x="380" y="800"/>
      <point x="364" y="817"/>
      <point x="364" y="840" type="curve" smooth="yes"/>
      <point x="364" y="878"/>
      <point x="395" y="907"/>
      <point x="433" y="907" type="curve"/>
      <point x="460" y="907"/>
      <point x="476" y="891"/>
      <point x="476" y="869" type="curve" smooth="yes"/>
      <point x="476" y="833"/>
      <point x="446" y="800"/>
    </contour>
  </outline>
</glyph>
<glyph name="ogonek" format="2">
  <advance width="500"/>
  <unicode hex="02DB"/>
  <anchor x="178" y="0" name="_bottom"/>
  <outline>
    <contour>
      <point x="191" y="56" type="line"/>
      <point x="91" y="-5"/>
      <point x="54" y="-55"/>
      <point x="54" y="-118" type="curve" smooth="yes"/>
      <point x="54" y="-160"/>
      <point x="83" y="-190"/>
      <point x="128" y="-190" type="curve" smooth="yes"/>
      <point x="157" y="-190"/>
      <point x="184" y="-181"/>
      <point x="206" y="-166" type="curve"/>
      <point x="224" y="-81" type="line"/>
      <point x="206" y="-96"/>
      <point x="190" y="-104"/>
      <point x="172" y="-104" type="curve" smooth="yes"/>
      <point x="158" y="-104"/>
      <point x="153" y="-96"/>
      <point x="153" y="-85" type="curve" smooth="yes"/>
      <point x="153" y="-59"/>
      <point x="183" y="-6"/>
      <point x="228" y="0" type="curve"/>
      <point x="237" y="33" type="line"/>
    </contour>
  </outline>
</glyph>
<glyph name="tilde" format="2">
  <advance width="500"/>
  <unicode hex="02DC"/>
  <anchor x="353.0" y="610.0" name="_top"/>
  <outline>
    <contour>
      <point x="211" y="742" type="curve"/>
      <point x="299" y="742" type="line"/>
      <point x="302" y="762"/>
      <point x="308" y="778"/>
      <point x="329" y="778" type="curve"/>
      <point x="369" y="778"/>
      <point x="421" y="730"/>
      <point x="484" y="730" type="curve"/>
      <point x="540" y="730"/>
      <point x="584" y="764"/>
      <point x="605" y="863" type="curve"/>
      <point x="526" y="873" type="line"/>
      <point x="524" y="848"/>
      <point x="516" y="820"/>
      <point x="483" y="820" type="curve"/>
      <point x="440" y="820"/>
      <point x="404" y="870"/>
      <point x="344" y="870" type="curve"/>
      <point x="267" y="870"/>
      <point x="224" y="809"/>
    </contour>
  </outline>
</glyph>
<glyph name="hungarumlaut" format="2">
  <advance width="500"/>
  <unicode hex="02DD"/>
  <anchor x="353" y="610" name="_top"/>
  <outline>
    <contour>
      <point x="487" y="870" type="line"/>
      <point x="427" y="730" type="line"/>
      <point x="527" y="730" type="line"/>
      <point x="661" y="870" type="line"/>
    </contour>
    <contour>
      <point x="287" y="870" type="line"/>
      <point x="227" y="730" type="line"/>
      <point x="327" y="730" type="line"/>
      <point x="461" y="870" type="line"/>
    </contour>
  </outline>
</glyph>
<glyph name="pi" format="2">
  <advance width="564"/>
  <unicode hex="03C0"/>
  <outline>
    <contour>
      <point x="163" y="0" type="line"/>
      <point x="281" y="410" type="line"/>
      <point x="371" y="410" type="line"/>
      <point x="282" y="98" type="line" smooth="yes"/>
      <point x="264" y="34"/>
      <point x="289" y="0"/>
      <point x="343" y="0" type="curve" smooth="yes"/>
      <point x="440" y="0" type="line"/>
      <point x="466" y="90" type="line"/>
      <point x="412" y="90" type="line" smooth="yes"/>
      <point x="381" y="90"/>
      <point x="373" y="103"/>
      <point x="382" y="134" type="curve" smooth="yes"/>
      <point x="461" y="410" type="line"/>
      <point x="558" y="410" type="line"/>
      <point x="584" y="500" type="line"/>
      <point x="120" y="500" type="line"/>
      <point x="94" y="410" type="line"/>
      <point x="191" y="410" type="line"/>
      <point x="73" y="0" type="line"/>
    </contour>
  </outline>
</glyph>
<glyph name="endash" format="2">
  <advance width="544"/>
  <unicode hex="2013"/>
  <outline>
    <contour>
      <point x="9" y="205" type="line"/>
      <point x="509" y="205" type="line"/>
      <point x="535" y="295" type="line"/>
      <point x="35" y="295" type="line"/>
    </contour>
  </outline>
</glyph>
<glyph name="emdash" format="2">
  <advance width="1044"/>
  <unicode hex="2014"/>
  <outline>
    <contour>
      <point x="9" y="205" type="line"/>
      <point x="1009" y="205" type="line"/>
      <point x="1035" y="295" type="line"/>
      <point x="35" y="295" type="line"/>
    </contour>
  </outline>
</glyph>
<glyph name="quoteleft" format="2">
  <advance width="230"/>
  <unicode hex="2018"/>
  <outline>
    <contour>
      <point x="230" y="410" type="line"/>
      <point x="270" y="550" type="line"/>
      <point x="195" y="550" type="line"/>
      <point x="210" y="600"/>
      <point x="245" y="620"/>
      <point x="291" y="620" type="curve"/>
      <point x="313" y="690" type="line"/>
      <point x="217" y="690"/>
      <point x="155" y="646"/>
      <point x="128" y="548" type="curve" smooth="yes"/>
      <point x="90" y="410" type="line"/>
    </contour>
  </outline>
</glyph>
<glyph name="quoteright" format="2">
  <advance width="230"/>
  <unicode hex="2019"/>
  <outline>
    <contour>
      <point x="168" y="680" type="line"/>
      <point x="128" y="540" type="line"/>
      <point x="203" y="540" type="line"/>
      <point x="188" y="490"/>
      <point x="153" y="470"/>
      <point x="107" y="470" type="curve"/>
      <point x="85" y="400" type="line"/>
      <point x="181" y="400"/>
      <point x="243" y="444"/>
      <point x="270" y="542" type="curve" smooth="yes"/>
      <point x="308" y="680" type="line"/>
    </contour>
  </outline>
</glyph>
<glyph name="quotesinglbase" format="2">
  <advance width="230"/>
  <unicode hex="201A"/>
  <outline>
    <contour>
      <point x="14" y="140" type="line"/>
      <point x="-26" y="0" type="line"/>
      <point x="49" y="0" type="line"/>
      <point x="34" y="-50"/>
      <point x="-1" y="-70"/>
      <point x="-47" y="-70" type="curve"/>
      <point x="-69" y="-140" type="line"/>
      <point x="27" y="-140"/>
      <point x="89" y="-96"/>
      <point x="116" y="2" type="curve" smooth="yes"/>
      <point x="154" y="140" type="line"/>
    </contour>
  </outline>
</glyph>
<glyph name="quotedblleft" format="2">
  <advance width="430"/>
  <unicode hex="201C"/>
  <outline>
    <contour>
      <point x="430" y="410" type="line"/>
      <point x="470" y="550" type="line"/>
      <point x="395" y="550" type="line"/>
      <point x="410" y="600"/>
      <point x="445" y="620"/>
      <point x="491" y="620" type="curve"/>
      <point x="513" y="690" type="line"/>
      <point x="417" y="690"/>
      <point x="355" y="646"/>
      <point x="328" y="548" type="curve" smooth="yes"/>
      <point x="290" y="410" type="line"/>
    </contour>
    <contour>
      <point x="230" y="410" type="line"/>
      <point x="270" y="550" type="line"/>
      <point x="195" y="550" type="line"/>
      <point x="210" y="600"/>
      <point x="245" y="620"/>
      <point x="291" y="620" type="curve"/>
      <point x="313" y="690" type="line"/>
      <point x="217" y="690"/>
      <point x="155" y="646"/>
      <point x="128" y="548" type="curve" smooth="yes"/>
      <point x="90" y="410" type="line"/>
    </contour>
  </outline>
</glyph>
<glyph name="quotedblright" format="2">
  <advance width="430"/>
  <unicode hex="201D"/>
  <outline>
    <contour>
      <point x="168" y="680" type="line"/>
      <point x="128" y="540" type="line"/>
      <point x="203" y="540" type="line"/>
      <point x="188" y="490"/>
      <point x="153" y="470"/>
      <point x="107" y="470" type="curve"/>
      <point x="85" y="400" type="line"/>
      <point x="181" y="400"/>
      <point x="243" y="444"/>
      <point x="270" y="542" type="curve" smooth="yes"/>
      <point x="308" y="680" type="line"/>
    </contour>
    <contour>
      <point x="368" y="680" type="line"/>
      <point x="328" y="540" type="line"/>
      <point x="403" y="540" type="line"/>
      <point x="388" y="490"/>
      <point x="353" y="470"/>
      <point x="307" y="470" type="curve"/>
      <point x="285" y="400" type="line"/>
      <point x="381" y="400"/>
      <point x="443" y="444"/>
      <point x="470" y="542" type="curve" smooth="yes"/>
      <point x="508" y="680" type="line"/>
    </contour>
  </outline>
</glyph>
<glyph name="quotedblbase" format="2">
  <advance width="430"/>
  <unicode hex="201E"/>
  <outline>
    <contour>
      <point x="14" y="140" type="line"/>
      <point x="-26" y="0" type="line"/>
      <point x="49" y="0" type="line"/>
      <point x="34" y="-50"/>
      <point x="-1" y="-70"/>
      <point x="-47" y="-70" type="curve"/>
      <point x="-69" y="-140" type="line"/>
      <point x="27" y="-140"/>
      <point x="89" y="-96"/>
      <point x="116" y="2" type="curve" smooth="yes"/>
      <point x="154" y="140" type="line"/>
    </contour>
    <contour>
      <point x="214" y="140" type="line"/>
      <point x="174" y="0" type="line"/>
      <point x="249" y="0" type="line"/>
      <point x="234" y="-50"/>
      <point x="199" y="-70"/>
      <point x="153" y="-70" type="curve"/>
      <point x="131" y="-140" type="line"/>
      <point x="227" y="-140"/>
      <point x="289" y="-96"/>
      <point x="316" y="2" type="curve" smooth="yes"/>
      <point x="354" y="140" type="line"/>
    </contour>
  </outline>
</glyph>
<glyph name="dagger" format="2">
  <advance width="374"/>
  <unicode hex="2020"/>
  <outline>
    <contour>
      <point x="60" y="0" type="line"/>
      <point x="170" y="0" type="line"/>
      <point x="282" y="392" type="line"/>
      <point x="394" y="392" type="line"/>
      <point x="425" y="500" type="line"/>
      <point x="313" y="500" type="line"/>
      <point x="365" y="680" type="line"/>
      <point x="255" y="680" type="line"/>
      <point x="203" y="500" type="line"/>
      <point x="91" y="500" type="line"/>
      <point x="60" y="392" type="line"/>
      <point x="172" y="392" type="line"/>
    </contour>
  </outline>
</glyph>
<glyph name="daggerdbl" format="2">
  <advance width="374"/>
  <unicode hex="2021"/>
  <outline>
    <contour>
      <point x="60" y="0" type="line"/>
      <point x="170" y="0" type="line"/>
      <point x="222" y="180" type="line"/>
      <point x="334" y="180" type="line"/>
      <point x="365" y="288" type="line"/>
      <point x="253" y="288" type="line"/>
      <point x="282" y="392" type="line"/>
      <point x="394" y="392" type="line"/>
      <point x="425" y="500" type="line"/>
      <point x="313" y="500" type="line"/>
      <point x="365" y="680" type="line"/>
      <point x="255" y="680" type="line"/>
      <point x="203" y="500" type="line"/>
      <point x="91" y="500" type="line"/>
      <point x="60" y="392" type="line"/>
      <point x="172" y="392" type="line"/>
      <point x="143" y="288" type="line"/>
      <point x="31" y="288" type="line"/>
      <point x="0" y="180" type="line"/>
      <point x="112" y="180" type="line"/>
    </contour>
  </outline>
</glyph>
<glyph name="bullet" format="2">
  <advance width="358"/>
  <unicode hex="2022"/>
  <outline>
    <contour>
      <point x="34" y="176" type="line"/>
      <point x="282" y="176" type="line"/>
      <point x="353" y="424" type="line"/>
      <point x="105" y="424" type="line"/>
    </contour>
  </outline>
</glyph>
<glyph name="ellipsis" format="2">
  <advance width="880"/>
  <unicode hex="2026"/>
  <outline>
    <contour>
      <point x="13" y="140" type="line"/>
      <point x="-27" y="0" type="line"/>
      <point x="113" y="0" type="line"/>
      <point x="153" y="140" type="line"/>
    </contour>
    <contour>
      <point x="338" y="140" type="line"/>
      <point x="298" y="0" type="line"/>
      <point x="438" y="0" type="line"/>
      <point x="478" y="140" type="line"/>
    </contour>
    <contour>
      <point x="663" y="140" type="line"/>
      <point x="623" y="0" type="line"/>
      <point x="763" y="0" type="line"/>
      <point x="803" y="140" type="line"/>
    </contour>
  </outline>
</glyph>
<glyph name="perthousand" format="2">
  <advance width="1276"/>
  <unicode hex="2030"/>
  <outline>
    <contour>
      <point x="209" y="280" type="curve"/>
      <point x="341" y="280"/>
      <point x="453" y="410"/>
      <point x="453" y="549" type="curve"/>
      <point x="453" y="644"/>
      <point x="398" y="690"/>
      <point x="319" y="690" type="curve"/>
      <point x="187" y="690"/>
      <point x="78" y="559"/>
      <point x="78" y="421" type="curve" smooth="yes"/>
      <point x="78" y="326"/>
      <point x="132" y="280"/>
    </contour>
    <contour>
      <point x="116" y="0" type="line"/>
      <point x="220" y="0" type="line"/>
      <point x="817" y="680" type="line"/>
      <point x="713" y="680" type="line"/>
    </contour>
    <contour>
      <point x="231" y="369" type="curve" smooth="yes"/>
      <point x="188" y="369"/>
      <point x="171" y="395"/>
      <point x="171" y="433" type="curve" smooth="yes"/>
      <point x="171" y="502"/>
      <point x="218" y="601"/>
      <point x="297" y="601" type="curve" smooth="yes"/>
      <point x="341" y="601"/>
      <point x="358" y="574"/>
      <point x="358" y="536" type="curve" smooth="yes"/>
      <point x="358" y="467"/>
      <point x="309" y="369"/>
    </contour>
    <contour>
      <point x="612" y="-10" type="curve"/>
      <point x="744" y="-10"/>
      <point x="856" y="120"/>
      <point x="856" y="259" type="curve"/>
      <point x="856" y="354"/>
      <point x="801" y="400"/>
      <point x="722" y="400" type="curve"/>
      <point x="590" y="400"/>
      <point x="481" y="269"/>
      <point x="481" y="131" type="curve" smooth="yes"/>
      <point x="481" y="36"/>
      <point x="535" y="-10"/>
    </contour>
    <contour>
      <point x="1002" y="-10" type="curve"/>
      <point x="1134" y="-10"/>
      <point x="1246" y="120"/>
      <point x="1246" y="259" type="curve"/>
      <point x="1246" y="354"/>
      <point x="1191" y="400"/>
      <point x="1112" y="400" type="curve"/>
      <point x="980" y="400"/>
      <point x="871" y="269"/>
      <point x="871" y="131" type="curve" smooth="yes"/>
      <point x="871" y="36"/>
      <point x="925" y="-10"/>
    </contour>
    <contour>
      <point x="634" y="79" type="curve" smooth="yes"/>
      <point x="591" y="79"/>
      <point x="574" y="105"/>
      <point x="574" y="143" type="curve" smooth="yes"/>
      <point x="574" y="212"/>
      <point x="621" y="311"/>
      <point x="700" y="311" type="curve" smooth="yes"/>
      <point x="744" y="311"/>
      <point x="761" y="284"/>
      <point x="761" y="246" type="curve" smooth="yes"/>
      <point x="761" y="177"/>
      <point x="712" y="79"/>
    </contour>
    <contour>
      <point x="1024" y="79" type="curve" smooth="yes"/>
      <point x="981" y="79"/>
      <point x="964" y="105"/>
      <point x="964" y="143" type="curve" smooth="yes"/>
      <point x="964" y="212"/>
      <point x="1011" y="311"/>
      <point x="1090" y="311" type="curve" smooth="yes"/>
      <point x="1134" y="311"/>
      <point x="1151" y="284"/>
      <point x="1151" y="246" type="curve" smooth="yes"/>
      <point x="1151" y="177"/>
      <point x="1102" y="79"/>
    </contour>
  </outline>
</glyph>
<glyph name="guilsinglleft" format="2">
  <advance width="500"/>
  <unicode hex="2039"/>
  <outline>
    <contour>
      <point x="468" y="487" type="line"/>
      <point x="72" y="301" type="line"/>
      <point x="43" y="199" type="line"/>
      <point x="332" y="13" type="line"/>
      <point x="363" y="121" type="line"/>
      <point x="171" y="242" type="line"/>
      <point x="432" y="363" type="line"/>
    </contour>
  </outline>
</glyph>
<glyph name="guilsinglright" format="2">
  <advance width="500"/>
  <unicode hex="203A"/>
  <outline>
    <contour>
      <point x="32" y="13" type="line"/>
      <point x="428" y="199" type="line"/>
      <point x="457" y="301" type="line"/>
      <point x="168" y="487" type="line"/>
      <point x="137" y="379" type="line"/>
      <point x="329" y="258" type="line"/>
      <point x="68" y="137" type="line"/>
    </contour>
  </outline>
</glyph>
